<svg width="532" height="323" viewBox="0 0 532 323" fill="none" xmlns="http://www.w3.org/2000/svg">
<g clip-path="url(#clip0_505_1350)">
<rect x="132.467" y="4" width="399.533" height="233.842" rx="25.5119" fill="#121212"/>
<path d="M498.495 43.1606C496.257 42.3295 493.955 42.2016 491.846 42.777C490.375 43.1606 488.969 43.9278 487.69 44.8869L486.795 45.6541L486.539 45.9098L487.114 46.4213C487.178 46.4213 487.178 46.4852 487.242 46.5492C487.37 46.677 487.498 46.741 487.69 46.8688L488.073 47.1246L488.457 46.8049C488.521 46.741 488.649 46.6131 488.777 46.5492C489.928 45.5901 491.206 44.9508 492.549 44.6311C494.275 44.1836 496.129 44.2475 497.983 44.9508C499.518 45.5262 502.651 46.2295 506.423 44.6311L506.551 44.5672L506.742 44.3754C506.742 44.3114 506.806 44.3114 506.87 44.2475C507.19 43.8639 507.51 43.4803 507.765 43.0328L509.044 41.0508L506.998 42.2016C503.993 43.8639 501.244 44.1836 498.495 43.1606Z" fill="white"/>
<path d="M489.737 36.2557C491.463 35.8082 493.317 35.8721 495.171 36.5754C497.217 37.3426 502.46 38.4295 508.342 33.1229L509.301 32.1639L509.365 32.1L509.62 31.8442L509.492 31.5246C509.429 31.2688 509.301 30.9491 509.173 30.6295L508.853 29.7344L508.214 30.3737C508.15 30.5016 508.022 30.5655 507.894 30.6934C505.081 33.5704 500.733 36.5114 495.747 34.7213C493.509 33.8901 491.207 33.7623 489.097 34.3377C487.051 34.9131 485.261 36 483.599 37.5344V37.4705L482.64 38.4934C482.64 38.5573 482.576 38.5573 482.512 38.6213L482.32 38.8131L482.384 39.0688C482.448 39.3885 482.576 39.7082 482.64 40.0278L483.024 41.0508L483.663 40.2196C483.727 40.0918 483.855 40.0278 483.919 39.9C485.261 38.6852 487.115 36.959 489.737 36.2557Z" fill="white"/>
<path d="M483.534 35.1063C485.005 33.5719 486.667 32.6128 488.457 32.1014C490.184 31.6538 492.038 31.7178 493.892 32.421C499.646 34.5309 504.633 31.0784 506.807 29.2243L507.638 28.3932L507.957 28.1374L507.702 27.7538C507.51 27.562 507.382 27.3063 507.19 27.0506L506.807 26.5391L506.359 26.9866C506.295 27.0505 506.167 27.1784 506.103 27.2423C503.418 29.7997 499.262 32.4211 494.531 30.6309C492.293 29.7997 489.992 29.6719 487.882 30.2473C486.539 30.6309 485.261 31.2702 483.982 32.1014L482.639 33.1883C482.511 33.3161 482.448 33.3801 482.32 33.5079L482.192 33.6358V33.8276C482.128 34.2752 482.128 34.7227 482.064 35.1063L482 36.7047L483.087 35.5538C483.215 35.426 483.343 35.2342 483.534 35.1063Z" fill="white"/>
<path d="M500.349 47.5105L500.221 47.8941L500.349 47.5105C500.157 47.4466 500.029 47.3827 499.838 47.3187C497.6 46.4876 495.298 46.3597 493.188 46.9351C492.741 47.063 492.293 47.1909 491.846 47.3827L490.311 48.0859L489.928 48.2777L491.206 48.7253C491.59 48.8532 491.974 48.981 492.357 49.1089L492.549 49.1728L492.741 49.1089C492.933 49.045 493.124 48.9171 493.316 48.9171C493.444 48.9171 493.572 48.8532 493.7 48.7892C495.234 48.4056 496.897 48.4056 498.687 48.981C498.879 49.045 499.006 49.1089 499.198 49.1728L499.518 49.3007L499.71 49.2368C500.157 49.1089 500.669 48.981 501.052 48.7892L502.842 48.1499L500.988 47.7023C500.797 47.6384 500.541 47.5745 500.349 47.5105Z" fill="white"/>
<path d="M510.131 34.2773L509.172 35.2364C509.044 35.3642 508.916 35.4921 508.788 35.62C506.167 38.1134 501.947 40.7987 497.216 39.0085C494.978 38.1773 492.677 38.0495 490.567 38.6249C488.585 39.2003 486.795 40.2233 485.196 41.7577L484.365 42.6528L484.109 42.9724L484.365 43.356C484.557 43.6118 484.685 43.8036 484.813 44.0593L485.196 44.6347L485.644 44.0593C485.708 43.9954 485.836 43.8675 485.9 43.8036C487.434 42.1413 489.096 41.1183 491.014 40.6069C492.741 40.1593 494.595 40.2232 496.449 40.9265C498.047 41.5019 499.709 41.6938 501.372 41.502C504.313 41.1823 507.254 39.52 509.427 37.6659C509.555 37.538 509.683 37.4741 509.811 37.3462L510.003 37.1544V36.9626C510.003 36.579 510.067 36.1315 510.067 35.7478L510.131 34.2773Z" fill="white"/>
<path d="M485.835 28.3948L485.643 28.0112L485.835 28.3948C486.219 28.203 486.666 28.0751 487.05 27.9473C488.776 27.4997 490.63 27.5637 492.484 28.2669C493.699 28.7145 494.914 28.9063 496.256 28.9063C498.942 28.9063 501.627 27.9473 504.12 26.0932L505.079 25.326L505.399 25.0702L504.824 24.6227C504.632 24.4309 504.376 24.2391 504.12 24.1112L503.737 23.8555L503.417 24.1112C503.289 24.1751 503.225 24.303 503.097 24.3669C499.709 26.9243 496.32 27.6276 493.124 26.4128C490.822 25.5817 488.52 25.3899 486.219 26.0932C486.027 26.1571 485.835 26.221 485.579 26.285L485.452 26.3489L485.26 26.5407C485.26 26.6046 485.196 26.6046 485.132 26.6686C484.876 27.0522 484.556 27.3719 484.301 27.7555L483.086 29.6096L485.068 28.5866C485.388 28.5866 485.643 28.4588 485.835 28.3948Z" fill="white"/>
<path d="M491.079 24.0459L491.271 24.1098C492.102 24.4295 493.381 24.7492 494.979 24.7492C496.641 24.7492 498.24 24.3656 499.838 23.7262L501.82 22.7672L500.477 22.3197C500.094 22.1918 499.71 22.0639 499.263 22H499.071L498.879 22.0639C498.687 22.1279 498.496 22.2557 498.304 22.3197C496.386 23.023 494.468 23.1508 492.614 22.6393C492.422 22.5754 492.23 22.5115 492.038 22.4475L491.846 22.3836L491.655 22.4475C491.271 22.5754 490.887 22.7033 490.504 22.8951L489.033 23.5344L490.568 23.982C490.696 23.918 490.887 23.982 491.079 24.0459Z" fill="white"/>
<path d="M170.916 191.292H172.554V199.011C172.554 199.709 172.416 200.307 172.139 200.803C171.866 201.299 171.482 201.678 170.985 201.94C170.489 202.199 169.908 202.329 169.242 202.329C168.628 202.329 168.077 202.217 167.588 201.994C167.103 201.77 166.718 201.446 166.435 201.021C166.155 200.592 166.015 200.071 166.015 199.458H167.647C167.647 199.759 167.716 200.019 167.854 200.239C167.996 200.459 168.189 200.631 168.434 200.755C168.682 200.875 168.965 200.936 169.284 200.936C169.632 200.936 169.926 200.863 170.167 200.718C170.411 200.569 170.597 200.351 170.725 200.064C170.852 199.777 170.916 199.426 170.916 199.011V191.292ZM178.444 202.344C177.678 202.344 177.01 202.169 176.44 201.818C175.869 201.467 175.426 200.976 175.111 200.346C174.795 199.715 174.637 198.977 174.637 198.134C174.637 197.287 174.795 196.546 175.111 195.912C175.426 195.277 175.869 194.785 176.44 194.434C177.01 194.083 177.678 193.907 178.444 193.907C179.21 193.907 179.878 194.083 180.448 194.434C181.019 194.785 181.462 195.277 181.777 195.912C182.093 196.546 182.251 197.287 182.251 198.134C182.251 198.977 182.093 199.715 181.777 200.346C181.462 200.976 181.019 201.467 180.448 201.818C179.878 202.169 179.21 202.344 178.444 202.344ZM178.449 201.01C178.946 201.01 179.357 200.879 179.683 200.617C180.009 200.354 180.25 200.005 180.406 199.569C180.565 199.133 180.645 198.653 180.645 198.129C180.645 197.608 180.565 197.129 180.406 196.693C180.25 196.254 180.009 195.901 179.683 195.635C179.357 195.369 178.946 195.237 178.449 195.237C177.95 195.237 177.535 195.369 177.205 195.635C176.879 195.901 176.636 196.254 176.477 196.693C176.321 197.129 176.243 197.608 176.243 198.129C176.243 198.653 176.321 199.133 176.477 199.569C176.636 200.005 176.879 200.354 177.205 200.617C177.535 200.879 177.95 201.01 178.449 201.01ZM185.802 197.331V202.18H184.212V191.292H185.78V195.343H185.881C186.073 194.903 186.365 194.554 186.759 194.296C187.152 194.037 187.666 193.907 188.3 193.907C188.86 193.907 189.349 194.023 189.768 194.253C190.189 194.483 190.515 194.827 190.746 195.284C190.98 195.738 191.097 196.305 191.097 196.986V202.18H189.507V197.177C189.507 196.578 189.353 196.114 189.045 195.784C188.736 195.451 188.307 195.284 187.758 195.284C187.382 195.284 187.046 195.364 186.748 195.524C186.454 195.683 186.222 195.917 186.051 196.225C185.885 196.53 185.802 196.899 185.802 197.331ZM194.995 197.331V202.18H193.405V194.014H194.931V195.343H195.032C195.22 194.91 195.514 194.563 195.914 194.301C196.318 194.039 196.827 193.907 197.44 193.907C197.997 193.907 198.484 194.024 198.902 194.258C199.32 194.489 199.645 194.832 199.875 195.29C200.105 195.747 200.221 196.312 200.221 196.986V202.18H198.631V197.177C198.631 196.585 198.477 196.123 198.169 195.789C197.86 195.453 197.437 195.284 196.898 195.284C196.529 195.284 196.201 195.364 195.914 195.524C195.631 195.683 195.406 195.917 195.239 196.225C195.076 196.53 194.995 196.899 194.995 197.331ZM206.816 202.18V191.292H208.459V196.023H213.887V191.292H215.535V202.18H213.887V197.432H208.459V202.18H206.816ZM221.507 202.344C220.702 202.344 220.009 202.173 219.428 201.829C218.85 201.481 218.404 200.994 218.088 200.367C217.776 199.736 217.62 198.997 217.62 198.15C217.62 197.313 217.776 196.576 218.088 195.938C218.404 195.3 218.843 194.802 219.407 194.444C219.974 194.086 220.636 193.907 221.395 193.907C221.856 193.907 222.302 193.984 222.735 194.136C223.167 194.288 223.555 194.528 223.899 194.854C224.243 195.18 224.514 195.603 224.712 196.124C224.911 196.642 225.01 197.271 225.01 198.012V198.575H218.519V197.384H223.452C223.452 196.966 223.367 196.596 223.197 196.273C223.027 195.947 222.788 195.69 222.479 195.502C222.175 195.314 221.817 195.221 221.406 195.221C220.959 195.221 220.569 195.33 220.236 195.55C219.906 195.766 219.651 196.05 219.47 196.401C219.293 196.748 219.205 197.126 219.205 197.533V198.464C219.205 199.009 219.3 199.474 219.492 199.856C219.687 200.239 219.958 200.532 220.305 200.734C220.652 200.932 221.058 201.031 221.523 201.031C221.824 201.031 222.098 200.989 222.347 200.904C222.595 200.815 222.809 200.684 222.99 200.51C223.171 200.337 223.309 200.122 223.405 199.867L224.909 200.138C224.789 200.581 224.572 200.969 224.26 201.302C223.952 201.632 223.564 201.889 223.096 202.073C222.632 202.254 222.102 202.344 221.507 202.344ZM229.337 202.36C228.82 202.36 228.352 202.265 227.934 202.073C227.516 201.878 227.184 201.597 226.94 201.228C226.699 200.859 226.578 200.408 226.578 199.872C226.578 199.412 226.667 199.032 226.844 198.735C227.021 198.437 227.26 198.201 227.562 198.028C227.863 197.854 228.2 197.723 228.572 197.634C228.944 197.546 229.323 197.478 229.709 197.432C230.199 197.375 230.596 197.329 230.9 197.294C231.205 197.255 231.427 197.193 231.565 197.108C231.703 197.023 231.772 196.885 231.772 196.693V196.656C231.772 196.192 231.641 195.832 231.379 195.577C231.12 195.322 230.734 195.194 230.22 195.194C229.685 195.194 229.263 195.313 228.955 195.55C228.65 195.784 228.439 196.045 228.322 196.332L226.828 195.991C227.005 195.495 227.264 195.095 227.604 194.79C227.948 194.482 228.343 194.258 228.79 194.12C229.236 193.978 229.706 193.907 230.199 193.907C230.525 193.907 230.87 193.946 231.235 194.024C231.604 194.099 231.948 194.237 232.267 194.439C232.589 194.641 232.853 194.93 233.059 195.306C233.264 195.678 233.367 196.162 233.367 196.757V202.18H231.815V201.063H231.751C231.648 201.269 231.494 201.471 231.288 201.669C231.083 201.868 230.819 202.033 230.496 202.164C230.174 202.295 229.787 202.36 229.337 202.36ZM229.683 201.085C230.122 201.085 230.498 200.998 230.81 200.824C231.125 200.65 231.365 200.424 231.528 200.144C231.694 199.86 231.778 199.557 231.778 199.234V198.182C231.721 198.238 231.611 198.292 231.448 198.341C231.288 198.387 231.106 198.428 230.9 198.464C230.695 198.495 230.495 198.526 230.3 198.554C230.105 198.579 229.942 198.6 229.81 198.618C229.502 198.657 229.22 198.722 228.965 198.814C228.714 198.907 228.512 199.039 228.359 199.213C228.21 199.383 228.136 199.61 228.136 199.894C228.136 200.287 228.281 200.585 228.572 200.787C228.862 200.985 229.233 201.085 229.683 201.085ZM238.728 202.339C238.069 202.339 237.481 202.171 236.963 201.834C236.449 201.494 236.045 201.01 235.751 200.383C235.461 199.752 235.315 198.995 235.315 198.113C235.315 197.23 235.462 196.475 235.757 195.848C236.054 195.221 236.462 194.74 236.979 194.407C237.497 194.074 238.083 193.907 238.739 193.907C239.246 193.907 239.653 193.992 239.962 194.163C240.274 194.329 240.515 194.524 240.685 194.747C240.859 194.971 240.993 195.167 241.089 195.338H241.185V191.292H242.774V202.18H241.222V200.909H241.089C240.993 201.083 240.855 201.281 240.674 201.505C240.497 201.728 240.252 201.923 239.941 202.089C239.629 202.256 239.225 202.339 238.728 202.339ZM239.079 200.984C239.537 200.984 239.923 200.863 240.238 200.622C240.557 200.377 240.798 200.039 240.961 199.607C241.128 199.174 241.211 198.671 241.211 198.097C241.211 197.53 241.13 197.033 240.967 196.608C240.804 196.183 240.564 195.851 240.249 195.614C239.933 195.377 239.544 195.258 239.079 195.258C238.601 195.258 238.202 195.382 237.883 195.63C237.564 195.878 237.323 196.216 237.16 196.645C237.001 197.074 236.921 197.558 236.921 198.097C236.921 198.643 237.002 199.133 237.165 199.569C237.328 200.005 237.569 200.351 237.888 200.606C238.211 200.858 238.608 200.984 239.079 200.984ZM245.23 205.242V194.014H246.782V195.338H246.915C247.008 195.167 247.14 194.971 247.314 194.747C247.488 194.524 247.729 194.329 248.037 194.163C248.345 193.992 248.753 193.907 249.26 193.907C249.919 193.907 250.507 194.074 251.025 194.407C251.542 194.74 251.948 195.221 252.242 195.848C252.54 196.475 252.689 197.23 252.689 198.113C252.689 198.995 252.542 199.752 252.248 200.383C251.953 201.01 251.549 201.494 251.036 201.834C250.522 202.171 249.935 202.339 249.276 202.339C248.78 202.339 248.374 202.256 248.058 202.089C247.746 201.923 247.502 201.728 247.325 201.505C247.148 201.281 247.011 201.083 246.915 200.909H246.82V205.242H245.23ZM246.788 198.097C246.788 198.671 246.871 199.174 247.038 199.607C247.204 200.039 247.445 200.377 247.761 200.622C248.076 200.863 248.462 200.984 248.92 200.984C249.395 200.984 249.792 200.858 250.11 200.606C250.429 200.351 250.67 200.005 250.834 199.569C251 199.133 251.083 198.643 251.083 198.097C251.083 197.558 251.002 197.074 250.839 196.645C250.679 196.216 250.438 195.878 250.116 195.63C249.797 195.382 249.398 195.258 248.92 195.258C248.459 195.258 248.069 195.377 247.75 195.614C247.435 195.851 247.195 196.183 247.032 196.608C246.869 197.033 246.788 197.53 246.788 198.097ZM256.247 197.331V202.18H254.657V191.292H256.225V195.343H256.326C256.518 194.903 256.81 194.554 257.204 194.296C257.597 194.037 258.111 193.907 258.745 193.907C259.305 193.907 259.794 194.023 260.213 194.253C260.634 194.483 260.96 194.827 261.191 195.284C261.425 195.738 261.542 196.305 261.542 196.986V202.18H259.952V197.177C259.952 196.578 259.798 196.114 259.49 195.784C259.181 195.451 258.752 195.284 258.203 195.284C257.827 195.284 257.491 195.364 257.193 195.524C256.899 195.683 256.667 195.917 256.497 196.225C256.33 196.53 256.247 196.899 256.247 197.331ZM267.29 202.344C266.524 202.344 265.856 202.169 265.286 201.818C264.715 201.467 264.272 200.976 263.956 200.346C263.641 199.715 263.483 198.977 263.483 198.134C263.483 197.287 263.641 196.546 263.956 195.912C264.272 195.277 264.715 194.785 265.286 194.434C265.856 194.083 266.524 193.907 267.29 193.907C268.055 193.907 268.723 194.083 269.294 194.434C269.865 194.785 270.308 195.277 270.623 195.912C270.939 196.546 271.096 197.287 271.096 198.134C271.096 198.977 270.939 199.715 270.623 200.346C270.308 200.976 269.865 201.467 269.294 201.818C268.723 202.169 268.055 202.344 267.29 202.344ZM267.295 201.01C267.791 201.01 268.202 200.879 268.529 200.617C268.855 200.354 269.096 200.005 269.252 199.569C269.411 199.133 269.491 198.653 269.491 198.129C269.491 197.608 269.411 197.129 269.252 196.693C269.096 196.254 268.855 195.901 268.529 195.635C268.202 195.369 267.791 195.237 267.295 195.237C266.795 195.237 266.381 195.369 266.051 195.635C265.725 195.901 265.482 196.254 265.323 196.693C265.167 197.129 265.089 197.608 265.089 198.129C265.089 198.653 265.167 199.133 265.323 199.569C265.482 200.005 265.725 200.354 266.051 200.617C266.381 200.879 266.795 201.01 267.295 201.01ZM274.647 197.331V202.18H273.058V194.014H274.584V195.343H274.685C274.872 194.91 275.167 194.563 275.567 194.301C275.971 194.039 276.48 193.907 277.093 193.907C277.649 193.907 278.137 194.024 278.555 194.258C278.973 194.489 279.297 194.832 279.528 195.29C279.758 195.747 279.873 196.312 279.873 196.986V202.18H278.284V197.177C278.284 196.585 278.13 196.123 277.821 195.789C277.513 195.453 277.089 195.284 276.551 195.284C276.182 195.284 275.854 195.364 275.567 195.524C275.284 195.683 275.059 195.917 274.892 196.225C274.729 196.53 274.647 196.899 274.647 197.331ZM285.712 202.344C284.907 202.344 284.214 202.173 283.633 201.829C283.055 201.481 282.609 200.994 282.293 200.367C281.981 199.736 281.826 198.997 281.826 198.15C281.826 197.313 281.981 196.576 282.293 195.938C282.609 195.3 283.048 194.802 283.612 194.444C284.179 194.086 284.842 193.907 285.6 193.907C286.061 193.907 286.507 193.984 286.94 194.136C287.372 194.288 287.76 194.528 288.104 194.854C288.448 195.18 288.719 195.603 288.918 196.124C289.116 196.642 289.215 197.271 289.215 198.012V198.575H282.724V197.384H287.658C287.658 196.966 287.573 196.596 287.402 196.273C287.232 195.947 286.993 195.69 286.685 195.502C286.38 195.314 286.022 195.221 285.611 195.221C285.164 195.221 284.774 195.33 284.441 195.55C284.112 195.766 283.856 196.05 283.676 196.401C283.498 196.748 283.41 197.126 283.41 197.533V198.464C283.41 199.009 283.506 199.474 283.697 199.856C283.892 200.239 284.163 200.532 284.51 200.734C284.858 200.932 285.263 201.031 285.728 201.031C286.029 201.031 286.304 200.989 286.552 200.904C286.8 200.815 287.014 200.684 287.195 200.51C287.376 200.337 287.514 200.122 287.61 199.867L289.114 200.138C288.994 200.581 288.778 200.969 288.466 201.302C288.157 201.632 287.769 201.889 287.301 202.073C286.837 202.254 286.307 202.344 285.712 202.344Z" fill="#6A7784"/>
<g clip-path="url(#clip1_505_1350)">
<path d="M182.086 42.293H180.924L183.536 35.0344H184.801L187.413 42.293H186.251L184.199 36.3528H184.142L182.086 42.293ZM182.281 39.4505H186.052V40.372H182.281V39.4505ZM190.582 42.4028C190.055 42.4028 189.601 42.2835 189.221 42.0449C188.843 41.8039 188.552 41.4719 188.349 41.0489C188.146 40.626 188.044 40.1416 188.044 39.5958C188.044 39.0429 188.148 38.555 188.356 38.132C188.564 37.7067 188.857 37.3747 189.235 37.1361C189.613 36.8974 190.059 36.7781 190.571 36.7781C190.985 36.7781 191.353 36.8549 191.677 37.0085C192.001 37.1597 192.262 37.3724 192.46 37.6465C192.661 37.9206 192.781 38.2407 192.818 38.607H191.787C191.73 38.3518 191.6 38.132 191.397 37.9477C191.196 37.7634 190.927 37.6713 190.589 37.6713C190.294 37.6713 190.035 37.7492 189.813 37.9052C189.593 38.0588 189.422 38.2785 189.299 38.5644C189.176 38.848 189.115 39.1835 189.115 39.571C189.115 39.9679 189.175 40.3106 189.295 40.5988C189.416 40.8871 189.586 41.1104 189.806 41.2687C190.028 41.427 190.289 41.5061 190.589 41.5061C190.79 41.5061 190.972 41.4695 191.135 41.3963C191.3 41.3207 191.438 41.2132 191.55 41.0737C191.663 40.9343 191.742 40.7666 191.787 40.5705H192.818C192.781 40.9225 192.666 41.2368 192.475 41.5132C192.283 41.7897 192.027 42.0071 191.705 42.1654C191.386 42.3237 191.012 42.4028 190.582 42.4028ZM196.493 36.849V37.6996H193.519V36.849H196.493ZM194.317 35.5447H195.376V40.6945C195.376 40.9001 195.407 41.0548 195.469 41.1588C195.53 41.2604 195.609 41.3301 195.706 41.3679C195.805 41.4034 195.913 41.4211 196.029 41.4211C196.114 41.4211 196.188 41.4152 196.252 41.4034C196.316 41.3915 196.365 41.3821 196.401 41.375L196.592 42.2504C196.531 42.2741 196.443 42.2977 196.33 42.3213C196.216 42.3473 196.075 42.3615 195.905 42.3639C195.626 42.3686 195.366 42.319 195.125 42.215C194.884 42.111 194.689 41.9504 194.54 41.733C194.391 41.5156 194.317 41.2427 194.317 40.9143V35.5447ZM197.665 42.293V36.849H198.725V42.293H197.665ZM198.2 36.009C198.016 36.009 197.858 35.9476 197.725 35.8247C197.595 35.6995 197.53 35.5506 197.53 35.3781C197.53 35.2033 197.595 35.0544 197.725 34.9316C197.858 34.8063 198.016 34.7437 198.2 34.7437C198.385 34.7437 198.542 34.8063 198.672 34.9316C198.804 35.0544 198.87 35.2033 198.87 35.3781C198.87 35.5506 198.804 35.6995 198.672 35.8247C198.542 35.9476 198.385 36.009 198.2 36.009ZM204.808 36.849L202.834 42.293H201.699L199.722 36.849H200.859L202.238 41.0383H202.295L203.67 36.849H204.808ZM207.965 42.4028C207.428 42.4028 206.966 42.2882 206.579 42.059C206.194 41.8275 205.896 41.5026 205.686 41.0844C205.478 40.6638 205.374 40.1711 205.374 39.6064C205.374 39.0488 205.478 38.5573 205.686 38.132C205.896 37.7067 206.189 37.3747 206.565 37.1361C206.943 36.8974 207.385 36.7781 207.89 36.7781C208.197 36.7781 208.495 36.8289 208.783 36.9305C209.072 37.0321 209.33 37.1916 209.56 37.409C209.789 37.6264 209.97 37.9087 210.102 38.2561C210.234 38.601 210.3 39.0204 210.3 39.5143V39.89H205.973V39.0961H209.262C209.262 38.8172 209.205 38.5703 209.092 38.3553C208.978 38.1379 208.819 37.9666 208.613 37.8414C208.41 37.7162 208.171 37.6536 207.897 37.6536C207.6 37.6536 207.34 37.7268 207.118 37.8733C206.898 38.0174 206.728 38.2065 206.607 38.4404C206.489 38.6719 206.43 38.9236 206.43 39.1953V39.8155C206.43 40.1794 206.494 40.4889 206.621 40.7441C206.751 40.9993 206.932 41.1943 207.164 41.3289C207.395 41.4613 207.666 41.5274 207.975 41.5274C208.176 41.5274 208.359 41.4991 208.525 41.4424C208.69 41.3833 208.833 41.2959 208.954 41.1801C209.074 41.0643 209.166 40.9213 209.23 40.7512L210.233 40.932C210.153 41.2273 210.009 41.4861 209.801 41.7082C209.595 41.9279 209.336 42.0992 209.024 42.2221C208.715 42.3426 208.362 42.4028 207.965 42.4028Z" fill="#282828"/>
<ellipse cx="170.353" cy="39.1872" rx="4.82195" ry="4.83564" fill="white"/>
</g>
<rect x="165.531" y="106.781" width="44.0864" height="27.592" rx="7.25885" stroke="#8C96A0" stroke-width="1.19915"/>
<path d="M177.906 106.805V134.333" stroke="#8C96A0" stroke-width="1.45177"/>
<path d="M197.456 106.805V134.333" stroke="#8C96A0" stroke-width="1.45177"/>
<path d="M197.457 115.459H209.619" stroke="#8C96A0" stroke-width="1.45177"/>
<path d="M197.457 125.9H209.619" stroke="#8C96A0" stroke-width="1.45177"/>
<path d="M165.531 115.459H177.693" stroke="#8C96A0" stroke-width="1.45177"/>
<path d="M165.531 125.9H177.693" stroke="#8C96A0" stroke-width="1.45177"/>
<path d="M177.906 115.457H183.278L193.078 125.897H197.938" stroke="#8C96A0" stroke-width="1.45177"/>
<path d="M488.501 197.835C488.501 194.535 490.027 191.595 492.403 189.701C490.604 188.264 488.38 187.485 486.089 187.488C480.446 187.488 475.871 192.121 475.871 197.835C475.871 203.55 480.446 208.182 486.089 208.182C488.38 208.186 490.605 207.406 492.403 205.97C490.027 204.076 488.501 201.136 488.501 197.835" fill="white"/>
<path d="M508.937 197.835C508.937 203.55 504.362 208.182 498.72 208.182C496.429 208.186 494.203 207.406 492.404 205.97C494.781 204.075 496.307 201.136 496.307 197.835C496.307 194.535 494.781 191.595 492.404 189.701C494.203 188.264 496.428 187.485 498.719 187.488C504.362 187.488 508.937 192.121 508.937 197.835" fill="white"/>
</g>
<g filter="url(#filter0_d_505_1350)">
<g filter="url(#filter1_d_505_1350)">
<rect x="40" y="32.3906" width="399.533" height="233.842" rx="25.5119" fill="white"/>
</g>
<path d="M400.495 77.1606C398.257 76.3295 395.955 76.2016 393.846 76.777C392.375 77.1606 390.969 77.9278 389.69 78.8869L388.795 79.6541L388.539 79.9098L389.114 80.4213C389.178 80.4213 389.178 80.4852 389.242 80.5492C389.37 80.677 389.498 80.741 389.69 80.8688L390.073 81.1246L390.457 80.8049C390.521 80.741 390.649 80.6131 390.777 80.5492C391.928 79.5901 393.206 78.9508 394.549 78.6311C396.275 78.1836 398.129 78.2475 399.983 78.9508C401.518 79.5262 404.651 80.2295 408.423 78.6311L408.551 78.5672L408.742 78.3754C408.742 78.3114 408.806 78.3114 408.87 78.2475C409.19 77.8639 409.51 77.4803 409.765 77.0328L411.044 75.0508L408.998 76.2016C405.993 77.8639 403.244 78.1836 400.495 77.1606Z" fill="#201B21"/>
<path d="M391.737 70.2557C393.463 69.8082 395.317 69.8721 397.171 70.5754C399.217 71.3426 404.46 72.4295 410.342 67.1229L411.301 66.1639L411.365 66.1L411.62 65.8442L411.492 65.5246C411.429 65.2688 411.301 64.9491 411.173 64.6295L410.853 63.7344L410.214 64.3737C410.15 64.5016 410.022 64.5655 409.894 64.6934C407.081 67.5704 402.733 70.5114 397.747 68.7213C395.509 67.8901 393.207 67.7623 391.097 68.3377C389.051 68.9131 387.261 70 385.599 71.5344V71.4705L384.64 72.4934C384.64 72.5573 384.576 72.5573 384.512 72.6213L384.32 72.8131L384.384 73.0688C384.448 73.3885 384.576 73.7082 384.64 74.0278L385.024 75.0508L385.663 74.2196C385.727 74.0918 385.855 74.0278 385.919 73.9C387.261 72.6852 389.115 70.959 391.737 70.2557Z" fill="#201B21"/>
<path d="M385.534 69.1063C387.005 67.5719 388.667 66.6128 390.457 66.1014C392.184 65.6538 394.038 65.7178 395.892 66.421C401.646 68.5309 406.633 65.0784 408.807 63.2243L409.638 62.3932L409.957 62.1374L409.702 61.7538C409.51 61.562 409.382 61.3063 409.19 61.0506L408.807 60.5391L408.359 60.9866C408.295 61.0505 408.167 61.1784 408.103 61.2423C405.418 63.7997 401.262 66.4211 396.531 64.6309C394.293 63.7997 391.992 63.6719 389.882 64.2473C388.539 64.6309 387.261 65.2702 385.982 66.1014L384.639 67.1883C384.511 67.3161 384.448 67.3801 384.32 67.5079L384.192 67.6358V67.8276C384.128 68.2752 384.128 68.7227 384.064 69.1063L384 70.7047L385.087 69.5538C385.215 69.426 385.343 69.2342 385.534 69.1063Z" fill="#201B21"/>
<path d="M402.349 81.5105L402.221 81.8941L402.349 81.5105C402.157 81.4466 402.029 81.3827 401.838 81.3187C399.6 80.4876 397.298 80.3597 395.188 80.9351C394.741 81.063 394.293 81.1909 393.846 81.3827L392.311 82.0859L391.928 82.2777L393.206 82.7253C393.59 82.8532 393.974 82.981 394.357 83.1089L394.549 83.1728L394.741 83.1089C394.933 83.045 395.124 82.9171 395.316 82.9171C395.444 82.9171 395.572 82.8532 395.7 82.7892C397.234 82.4056 398.897 82.4056 400.687 82.981C400.879 83.045 401.006 83.1089 401.198 83.1728L401.518 83.3007L401.71 83.2368C402.157 83.1089 402.669 82.981 403.052 82.7892L404.842 82.1499L402.988 81.7023C402.797 81.6384 402.541 81.5745 402.349 81.5105Z" fill="#201B21"/>
<path d="M412.131 68.2773L411.172 69.2364C411.044 69.3642 410.916 69.4921 410.788 69.62C408.167 72.1134 403.947 74.7987 399.216 73.0085C396.978 72.1773 394.677 72.0495 392.567 72.6249C390.585 73.2003 388.795 74.2233 387.196 75.7577L386.365 76.6528L386.109 76.9724L386.365 77.356C386.557 77.6118 386.685 77.8036 386.813 78.0593L387.196 78.6347L387.644 78.0593C387.708 77.9954 387.836 77.8675 387.9 77.8036C389.434 76.1413 391.096 75.1183 393.014 74.6069C394.741 74.1593 396.595 74.2232 398.449 74.9265C400.047 75.5019 401.709 75.6938 403.372 75.502C406.313 75.1823 409.254 73.52 411.427 71.6659C411.555 71.538 411.683 71.4741 411.811 71.3462L412.003 71.1544V70.9626C412.003 70.579 412.067 70.1315 412.067 69.7478L412.131 68.2773Z" fill="#201B21"/>
<path d="M387.835 62.3948L387.643 62.0112L387.835 62.3948C388.219 62.203 388.666 62.0751 389.05 61.9473C390.776 61.4997 392.63 61.5637 394.484 62.2669C395.699 62.7145 396.914 62.9063 398.256 62.9063C400.942 62.9063 403.627 61.9473 406.12 60.0932L407.079 59.326L407.399 59.0702L406.824 58.6227C406.632 58.4309 406.376 58.2391 406.12 58.1112L405.737 57.8555L405.417 58.1112C405.289 58.1751 405.225 58.303 405.097 58.3669C401.709 60.9243 398.32 61.6276 395.124 60.4128C392.822 59.5817 390.52 59.3899 388.219 60.0932C388.027 60.1571 387.835 60.221 387.579 60.285L387.452 60.3489L387.26 60.5407C387.26 60.6046 387.196 60.6046 387.132 60.6686C386.876 61.0522 386.556 61.3719 386.301 61.7555L385.086 63.6096L387.068 62.5866C387.388 62.5866 387.643 62.4588 387.835 62.3948Z" fill="#201B21"/>
<path d="M393.079 58.0459L393.271 58.1098C394.102 58.4295 395.381 58.7492 396.979 58.7492C398.641 58.7492 400.24 58.3656 401.838 57.7262L403.82 56.7672L402.477 56.3197C402.094 56.1918 401.71 56.0639 401.263 56H401.071L400.879 56.0639C400.687 56.1279 400.496 56.2557 400.304 56.3197C398.386 57.023 396.468 57.1508 394.614 56.6393C394.422 56.5754 394.23 56.5115 394.038 56.4475L393.846 56.3836L393.655 56.4475C393.271 56.5754 392.887 56.7033 392.504 56.8951L391.033 57.5344L392.568 57.982C392.696 57.918 392.887 57.982 393.079 58.0459Z" fill="#201B21"/>
<path d="M78.4514 219.682H80.0889V227.402C80.0889 228.1 79.9507 228.697 79.6742 229.193C79.4013 229.69 79.0168 230.069 78.5206 230.331C78.0244 230.59 77.4431 230.719 76.7768 230.719C76.1636 230.719 75.6125 230.608 75.1234 230.384C74.6378 230.161 74.2533 229.837 73.9698 229.411C73.6898 228.982 73.5498 228.461 73.5498 227.848H75.1819C75.1819 228.15 75.251 228.41 75.3892 228.63C75.531 228.85 75.7242 229.021 75.9687 229.146C76.2168 229.266 76.5003 229.326 76.8193 229.326C77.1667 229.326 77.4608 229.254 77.7018 229.108C77.9464 228.959 78.1325 228.741 78.2601 228.454C78.3877 228.167 78.4514 227.816 78.4514 227.402V219.682ZM85.9792 230.735C85.2136 230.735 84.5455 230.56 83.9749 230.209C83.4043 229.858 82.9612 229.367 82.6458 228.736C82.3304 228.105 82.1726 227.368 82.1726 226.525C82.1726 225.677 82.3304 224.937 82.6458 224.302C82.9612 223.668 83.4043 223.175 83.9749 222.824C84.5455 222.473 85.2136 222.298 85.9792 222.298C86.7447 222.298 87.4128 222.473 87.9834 222.824C88.5541 223.175 88.9971 223.668 89.3125 224.302C89.628 224.937 89.7857 225.677 89.7857 226.525C89.7857 227.368 89.628 228.105 89.3125 228.736C88.9971 229.367 88.5541 229.858 87.9834 230.209C87.4128 230.56 86.7447 230.735 85.9792 230.735ZM85.9845 229.401C86.4807 229.401 86.8918 229.27 87.2179 229.007C87.5439 228.745 87.785 228.396 87.9409 227.96C88.1004 227.524 88.1801 227.044 88.1801 226.519C88.1801 225.998 88.1004 225.52 87.9409 225.084C87.785 224.644 87.5439 224.292 87.2179 224.026C86.8918 223.76 86.4807 223.627 85.9845 223.627C85.4847 223.627 85.0701 223.76 84.7404 224.026C84.4144 224.292 84.1716 224.644 84.0121 225.084C83.8562 225.52 83.7782 225.998 83.7782 226.519C83.7782 227.044 83.8562 227.524 84.0121 227.96C84.1716 228.396 84.4144 228.745 84.7404 229.007C85.0701 229.27 85.4847 229.401 85.9845 229.401ZM93.3367 225.722V230.57H91.7472V219.682H93.3155V223.733H93.4165C93.6079 223.294 93.9003 222.945 94.2937 222.686C94.6871 222.427 95.201 222.298 95.8354 222.298C96.3954 222.298 96.8845 222.413 97.3028 222.644C97.7245 222.874 98.0506 223.218 98.281 223.675C98.5149 224.129 98.6318 224.696 98.6318 225.376V230.57H97.0423V225.568C97.0423 224.969 96.8881 224.504 96.5797 224.175C96.2714 223.842 95.8425 223.675 95.2932 223.675C94.9175 223.675 94.5808 223.755 94.2831 223.914C93.9889 224.074 93.7567 224.308 93.5866 224.616C93.42 224.921 93.3367 225.289 93.3367 225.722ZM102.53 225.722V230.57H100.94V222.404H102.466V223.733H102.567C102.755 223.301 103.049 222.954 103.45 222.691C103.854 222.429 104.362 222.298 104.975 222.298C105.532 222.298 106.019 222.415 106.437 222.649C106.856 222.879 107.18 223.223 107.41 223.68C107.641 224.138 107.756 224.703 107.756 225.376V230.57H106.166V225.568C106.166 224.976 106.012 224.513 105.704 224.18C105.395 223.843 104.972 223.675 104.433 223.675C104.064 223.675 103.737 223.755 103.45 223.914C103.166 224.074 102.941 224.308 102.774 224.616C102.611 224.921 102.53 225.289 102.53 225.722ZM114.352 230.57V219.682H115.994V224.414H121.422V219.682H123.07V230.57H121.422V225.823H115.994V230.57H114.352ZM129.042 230.735C128.237 230.735 127.544 230.563 126.963 230.219C126.385 229.872 125.939 229.385 125.623 228.757C125.311 228.127 125.155 227.388 125.155 226.541C125.155 225.704 125.311 224.967 125.623 224.329C125.939 223.691 126.378 223.193 126.942 222.835C127.509 222.477 128.172 222.298 128.93 222.298C129.391 222.298 129.837 222.374 130.27 222.527C130.702 222.679 131.09 222.918 131.434 223.244C131.778 223.57 132.049 223.994 132.248 224.515C132.446 225.032 132.545 225.662 132.545 226.402V226.966H126.054V225.775H130.988C130.988 225.357 130.902 224.986 130.732 224.664C130.562 224.338 130.323 224.081 130.015 223.893C129.71 223.705 129.352 223.611 128.941 223.611C128.494 223.611 128.104 223.721 127.771 223.941C127.442 224.157 127.186 224.441 127.006 224.791C126.828 225.139 126.74 225.516 126.74 225.924V226.854C126.74 227.4 126.835 227.864 127.027 228.247C127.222 228.63 127.493 228.922 127.84 229.124C128.188 229.323 128.593 229.422 129.058 229.422C129.359 229.422 129.634 229.379 129.882 229.294C130.13 229.206 130.344 229.075 130.525 228.901C130.706 228.727 130.844 228.513 130.94 228.258L132.444 228.529C132.324 228.972 132.108 229.36 131.796 229.693C131.487 230.023 131.099 230.28 130.631 230.464C130.167 230.645 129.637 230.735 129.042 230.735ZM136.872 230.751C136.355 230.751 135.887 230.655 135.469 230.464C135.051 230.269 134.719 229.987 134.475 229.619C134.234 229.25 134.113 228.798 134.113 228.263C134.113 227.802 134.202 227.423 134.379 227.125C134.556 226.828 134.796 226.592 135.097 226.418C135.398 226.245 135.735 226.113 136.107 226.025C136.479 225.936 136.858 225.869 137.245 225.823C137.734 225.766 138.131 225.72 138.435 225.685C138.74 225.646 138.962 225.584 139.1 225.498C139.238 225.413 139.307 225.275 139.307 225.084V225.047C139.307 224.582 139.176 224.223 138.914 223.967C138.655 223.712 138.269 223.585 137.755 223.585C137.22 223.585 136.798 223.703 136.49 223.941C136.185 224.175 135.974 224.435 135.857 224.722L134.363 224.382C134.54 223.886 134.799 223.485 135.139 223.181C135.483 222.872 135.878 222.649 136.325 222.511C136.771 222.369 137.241 222.298 137.734 222.298C138.06 222.298 138.405 222.337 138.77 222.415C139.139 222.489 139.483 222.628 139.802 222.83C140.124 223.032 140.388 223.321 140.594 223.696C140.8 224.068 140.902 224.552 140.902 225.148V230.57H139.35V229.454H139.286C139.183 229.659 139.029 229.861 138.824 230.06C138.618 230.258 138.354 230.423 138.031 230.554C137.709 230.686 137.323 230.751 136.872 230.751ZM137.218 229.475C137.658 229.475 138.033 229.388 138.345 229.215C138.661 229.041 138.9 228.814 139.063 228.534C139.229 228.251 139.313 227.948 139.313 227.625V226.572C139.256 226.629 139.146 226.682 138.983 226.732C138.824 226.778 138.641 226.819 138.435 226.854C138.23 226.886 138.03 226.916 137.835 226.945C137.64 226.969 137.477 226.991 137.346 227.008C137.037 227.047 136.756 227.113 136.5 227.205C136.249 227.297 136.047 227.43 135.894 227.604C135.745 227.774 135.671 228.001 135.671 228.284C135.671 228.678 135.816 228.975 136.107 229.177C136.398 229.376 136.768 229.475 137.218 229.475ZM146.264 230.73C145.604 230.73 145.016 230.561 144.499 230.225C143.985 229.885 143.581 229.401 143.286 228.773C142.996 228.143 142.85 227.386 142.85 226.503C142.85 225.621 142.998 224.866 143.292 224.239C143.589 223.611 143.997 223.131 144.514 222.798C145.032 222.465 145.619 222.298 146.274 222.298C146.781 222.298 147.189 222.383 147.497 222.553C147.809 222.72 148.05 222.915 148.22 223.138C148.394 223.361 148.528 223.558 148.624 223.728H148.72V219.682H150.309V230.57H148.757V229.3H148.624C148.528 229.473 148.39 229.672 148.209 229.895C148.032 230.118 147.788 230.313 147.476 230.48C147.164 230.647 146.76 230.73 146.264 230.73ZM146.614 229.374C147.072 229.374 147.458 229.254 147.773 229.013C148.092 228.768 148.333 228.43 148.496 227.997C148.663 227.565 148.746 227.062 148.746 226.487C148.746 225.92 148.665 225.424 148.502 224.999C148.339 224.573 148.099 224.242 147.784 224.005C147.469 223.767 147.079 223.648 146.614 223.648C146.136 223.648 145.737 223.772 145.418 224.021C145.099 224.269 144.858 224.607 144.695 225.036C144.536 225.465 144.456 225.949 144.456 226.487C144.456 227.033 144.538 227.524 144.701 227.96C144.864 228.396 145.105 228.741 145.424 228.997C145.746 229.248 146.143 229.374 146.614 229.374ZM152.765 233.633V222.404H154.318V223.728H154.451C154.543 223.558 154.676 223.361 154.849 223.138C155.023 222.915 155.264 222.72 155.572 222.553C155.881 222.383 156.288 222.298 156.795 222.298C157.454 222.298 158.043 222.465 158.56 222.798C159.078 223.131 159.483 223.611 159.778 224.239C160.075 224.866 160.224 225.621 160.224 226.503C160.224 227.386 160.077 228.143 159.783 228.773C159.489 229.401 159.085 229.885 158.571 230.225C158.057 230.561 157.47 230.73 156.811 230.73C156.315 230.73 155.909 230.647 155.594 230.48C155.282 230.313 155.037 230.118 154.86 229.895C154.683 229.672 154.546 229.473 154.451 229.3H154.355V233.633H152.765ZM154.323 226.487C154.323 227.062 154.406 227.565 154.573 227.997C154.739 228.43 154.98 228.768 155.296 229.013C155.611 229.254 155.998 229.374 156.455 229.374C156.93 229.374 157.327 229.248 157.646 228.997C157.965 228.741 158.206 228.396 158.369 227.96C158.535 227.524 158.619 227.033 158.619 226.487C158.619 225.949 158.537 225.465 158.374 225.036C158.214 224.607 157.973 224.269 157.651 224.021C157.332 223.772 156.933 223.648 156.455 223.648C155.994 223.648 155.604 223.767 155.285 224.005C154.97 224.242 154.731 224.573 154.567 224.999C154.404 225.424 154.323 225.92 154.323 226.487ZM163.782 225.722V230.57H162.192V219.682H163.761V223.733H163.862C164.053 223.294 164.345 222.945 164.739 222.686C165.132 222.427 165.646 222.298 166.28 222.298C166.84 222.298 167.33 222.413 167.748 222.644C168.17 222.874 168.496 223.218 168.726 223.675C168.96 224.129 169.077 224.696 169.077 225.376V230.57H167.487V225.568C167.487 224.969 167.333 224.504 167.025 224.175C166.716 223.842 166.288 223.675 165.738 223.675C165.363 223.675 165.026 223.755 164.728 223.914C164.434 224.074 164.202 224.308 164.032 224.616C163.865 224.921 163.782 225.289 163.782 225.722ZM174.825 230.735C174.059 230.735 173.391 230.56 172.821 230.209C172.25 229.858 171.807 229.367 171.492 228.736C171.176 228.105 171.018 227.368 171.018 226.525C171.018 225.677 171.176 224.937 171.492 224.302C171.807 223.668 172.25 223.175 172.821 222.824C173.391 222.473 174.059 222.298 174.825 222.298C175.591 222.298 176.259 222.473 176.829 222.824C177.4 223.175 177.843 223.668 178.158 224.302C178.474 224.937 178.631 225.677 178.631 226.525C178.631 227.368 178.474 228.105 178.158 228.736C177.843 229.367 177.4 229.858 176.829 230.209C176.259 230.56 175.591 230.735 174.825 230.735ZM174.83 229.401C175.326 229.401 175.738 229.27 176.064 229.007C176.39 228.745 176.631 228.396 176.787 227.96C176.946 227.524 177.026 227.044 177.026 226.519C177.026 225.998 176.946 225.52 176.787 225.084C176.631 224.644 176.39 224.292 176.064 224.026C175.738 223.76 175.326 223.627 174.83 223.627C174.331 223.627 173.916 223.76 173.586 224.026C173.26 224.292 173.017 224.644 172.858 225.084C172.702 225.52 172.624 225.998 172.624 226.519C172.624 227.044 172.702 227.524 172.858 227.96C173.017 228.396 173.26 228.745 173.586 229.007C173.916 229.27 174.331 229.401 174.83 229.401ZM182.183 225.722V230.57H180.593V222.404H182.119V223.733H182.22C182.408 223.301 182.702 222.954 183.102 222.691C183.506 222.429 184.015 222.298 184.628 222.298C185.185 222.298 185.672 222.415 186.09 222.649C186.508 222.879 186.833 223.223 187.063 223.68C187.293 224.138 187.409 224.703 187.409 225.376V230.57H185.819V225.568C185.819 224.976 185.665 224.513 185.356 224.18C185.048 223.843 184.625 223.675 184.086 223.675C183.717 223.675 183.389 223.755 183.102 223.914C182.819 224.074 182.594 224.308 182.427 224.616C182.264 224.921 182.183 225.289 182.183 225.722ZM193.247 230.735C192.442 230.735 191.75 230.563 191.168 230.219C190.591 229.872 190.144 229.385 189.829 228.757C189.517 228.127 189.361 227.388 189.361 226.541C189.361 225.704 189.517 224.967 189.829 224.329C190.144 223.691 190.583 223.193 191.147 222.835C191.714 222.477 192.377 222.298 193.135 222.298C193.596 222.298 194.043 222.374 194.475 222.527C194.907 222.679 195.296 222.918 195.639 223.244C195.983 223.57 196.254 223.994 196.453 224.515C196.651 225.032 196.75 225.662 196.75 226.402V226.966H190.259V225.775H195.193C195.193 225.357 195.108 224.986 194.938 224.664C194.767 224.338 194.528 224.081 194.22 223.893C193.915 223.705 193.557 223.611 193.146 223.611C192.699 223.611 192.31 223.721 191.976 223.941C191.647 224.157 191.392 224.441 191.211 224.791C191.034 225.139 190.945 225.516 190.945 225.924V226.854C190.945 227.4 191.041 227.864 191.232 228.247C191.427 228.63 191.698 228.922 192.045 229.124C192.393 229.323 192.799 229.422 193.263 229.422C193.564 229.422 193.839 229.379 194.087 229.294C194.335 229.206 194.549 229.075 194.73 228.901C194.911 228.727 195.049 228.513 195.145 228.258L196.649 228.529C196.529 228.972 196.313 229.36 196.001 229.693C195.692 230.023 195.304 230.28 194.837 230.464C194.372 230.645 193.842 230.735 193.247 230.735Z" fill="#6A7784"/>
<g clip-path="url(#clip2_505_1350)">
<path d="M89.6215 70.6836H88.459L91.0711 63.425H92.3364L94.9485 70.6836H93.786L91.7339 64.7434H91.6772L89.6215 70.6836ZM89.8165 67.8411H93.5876V68.7626H89.8165V67.8411ZM98.1171 70.7935C97.5902 70.7935 97.1365 70.6741 96.7561 70.4355C96.3781 70.1945 96.0874 69.8625 95.8842 69.4396C95.681 69.0166 95.5794 68.5322 95.5794 67.9864C95.5794 67.4335 95.6834 66.9456 95.8913 66.5227C96.0992 66.0973 96.3922 65.7654 96.7703 65.5267C97.1483 65.2881 97.5937 65.1687 98.1065 65.1687C98.52 65.1687 98.8886 65.2455 99.2123 65.3991C99.536 65.5503 99.7971 65.763 99.9956 66.0371C100.196 66.3112 100.316 66.6313 100.354 66.9976H99.3221C99.2654 66.7424 99.1355 66.5227 98.9323 66.3383C98.7314 66.154 98.4621 66.0619 98.1242 66.0619C97.8288 66.0619 97.5701 66.1399 97.348 66.2958C97.1283 66.4494 96.957 66.6691 96.8341 66.955C96.7112 67.2386 96.6498 67.5741 96.6498 67.9616C96.6498 68.3586 96.71 68.7012 96.8305 68.9894C96.951 69.2777 97.1212 69.501 97.3409 69.6593C97.563 69.8176 97.8241 69.8968 98.1242 69.8968C98.325 69.8968 98.507 69.8601 98.67 69.7869C98.8354 69.7113 98.9736 69.6038 99.0847 69.4644C99.1981 69.325 99.2773 69.1572 99.3221 68.9611H100.354C100.316 69.3132 100.201 69.6274 100.01 69.9039C99.8183 70.1803 99.562 70.3977 99.2406 70.556C98.9216 70.7143 98.5471 70.7935 98.1171 70.7935ZM104.028 65.2396V66.0903H101.054V65.2396H104.028ZM101.852 63.9354H102.912V69.0851C102.912 69.2907 102.942 69.4455 103.004 69.5494C103.065 69.651 103.144 69.7207 103.241 69.7585C103.34 69.794 103.448 69.8117 103.564 69.8117C103.649 69.8117 103.723 69.8058 103.787 69.794C103.851 69.7822 103.9 69.7727 103.936 69.7656L104.127 70.6411C104.066 70.6647 103.978 70.6883 103.865 70.7119C103.752 70.7379 103.61 70.7521 103.44 70.7545C103.161 70.7592 102.901 70.7096 102.66 70.6056C102.419 70.5017 102.224 70.341 102.075 70.1236C101.926 69.9062 101.852 69.6333 101.852 69.3049V63.9354ZM105.2 70.6836V65.2396H106.26V70.6836H105.2ZM105.735 64.3996C105.551 64.3996 105.393 64.3382 105.261 64.2153C105.131 64.0901 105.066 63.9413 105.066 63.7688C105.066 63.5939 105.131 63.4451 105.261 63.3222C105.393 63.197 105.551 63.1344 105.735 63.1344C105.92 63.1344 106.077 63.197 106.207 63.3222C106.339 63.4451 106.405 63.5939 106.405 63.7688C106.405 63.9413 106.339 64.0901 106.207 64.2153C106.077 64.3382 105.92 64.3996 105.735 64.3996ZM112.343 65.2396L110.369 70.6836H109.235L107.257 65.2396H108.395L109.773 69.4289H109.83L111.205 65.2396H112.343ZM115.5 70.7935C114.963 70.7935 114.502 70.6789 114.114 70.4497C113.729 70.2181 113.431 69.8932 113.221 69.475C113.013 69.0544 112.909 68.5618 112.909 67.9971C112.909 67.4394 113.013 66.948 113.221 66.5227C113.431 66.0973 113.724 65.7654 114.1 65.5267C114.478 65.2881 114.92 65.1687 115.425 65.1687C115.733 65.1687 116.03 65.2196 116.319 65.3212C116.607 65.4228 116.866 65.5822 117.095 65.7996C117.324 66.017 117.505 66.2994 117.637 66.6467C117.769 66.9917 117.836 67.4111 117.836 67.9049V68.2806H113.508V67.4867H116.797C116.797 67.2079 116.74 66.961 116.627 66.7459C116.514 66.5286 116.354 66.3573 116.148 66.232C115.945 66.1068 115.707 66.0442 115.433 66.0442C115.135 66.0442 114.875 66.1174 114.653 66.2639C114.433 66.4081 114.263 66.5971 114.142 66.831C114.024 67.0626 113.965 67.3142 113.965 67.5859V68.2062C113.965 68.57 114.029 68.8796 114.157 69.1348C114.287 69.3899 114.467 69.5849 114.699 69.7196C114.93 69.8519 115.201 69.918 115.51 69.918C115.711 69.918 115.894 69.8897 116.06 69.833C116.225 69.7739 116.368 69.6865 116.489 69.5707C116.609 69.4549 116.701 69.312 116.765 69.1418L117.768 69.3226C117.688 69.618 117.544 69.8767 117.336 70.0988C117.13 70.3185 116.871 70.4898 116.56 70.6127C116.25 70.7332 115.897 70.7935 115.5 70.7935Z" fill="#282828"/>
<ellipse cx="77.8864" cy="67.5778" rx="4.82195" ry="4.83564" fill="#45D99D"/>
</g>
<g opacity="0.5">
<rect x="73.0645" y="135.172" width="44.0864" height="27.592" rx="7.25885" stroke="#8C96A0" stroke-width="1.19915"/>
<path d="M85.4387 135.195V162.724" stroke="#8C96A0" stroke-width="1.45177"/>
<path d="M104.99 135.195V162.724" stroke="#8C96A0" stroke-width="1.45177"/>
<path d="M104.99 143.849H117.152" stroke="#8C96A0" stroke-width="1.45177"/>
<path d="M104.99 154.291H117.152" stroke="#8C96A0" stroke-width="1.45177"/>
<path d="M73.0645 143.849H85.2262" stroke="#8C96A0" stroke-width="1.45177"/>
<path d="M73.0645 154.291H85.2262" stroke="#8C96A0" stroke-width="1.45177"/>
<path d="M85.4414 143.848H90.8134L100.614 154.288H105.473" stroke="#8C96A0" stroke-width="1.45177"/>
</g>
<path d="M394.756 234.504H385.801V217.949H394.756L394.756 234.504Z" fill="#FF5F00"/>
<path d="M386.032 226.226C386.032 222.926 387.558 219.986 389.935 218.091C388.136 216.655 385.911 215.875 383.62 215.879C377.977 215.879 373.402 220.511 373.402 226.226C373.402 231.94 377.977 236.573 383.62 236.573C385.911 236.576 388.136 235.797 389.935 234.361C387.558 232.466 386.032 229.526 386.032 226.226" fill="#EB001B"/>
<path d="M406.468 226.226C406.468 231.94 401.894 236.573 396.251 236.573C393.96 236.576 391.735 235.797 389.936 234.361C392.313 232.466 393.839 229.526 393.839 226.226C393.839 222.925 392.313 219.986 389.936 218.091C391.735 216.655 393.96 215.876 396.251 215.879C401.894 215.879 406.468 220.511 406.468 226.226" fill="#F79E1B"/>
</g>
<defs>
<filter id="filter0_d_505_1350" x="0" y="8.39062" width="479.533" height="313.844" filterUnits="userSpaceOnUse" color-interpolation-filters="sRGB">
<feFlood flood-opacity="0" result="BackgroundImageFix"/>
<feColorMatrix in="SourceAlpha" type="matrix" values="0 0 0 0 0 0 0 0 0 0 0 0 0 0 0 0 0 0 127 0" result="hardAlpha"/>
<feOffset dy="16"/>
<feGaussianBlur stdDeviation="20"/>
<feColorMatrix type="matrix" values="0 0 0 0 0 0 0 0 0 0 0 0 0 0 0 0 0 0 0.03 0"/>
<feBlend mode="normal" in2="BackgroundImageFix" result="effect1_dropShadow_505_1350"/>
<feBlend mode="normal" in="SourceGraphic" in2="effect1_dropShadow_505_1350" result="shape"/>
</filter>
<filter id="filter1_d_505_1350" x="7.71582" y="0.106446" width="465.847" height="300.157" filterUnits="userSpaceOnUse" color-interpolation-filters="sRGB">
<feFlood flood-opacity="0" result="BackgroundImageFix"/>
<feColorMatrix in="SourceAlpha" type="matrix" values="0 0 0 0 0 0 0 0 0 0 0 0 0 0 0 0 0 0 127 0" result="hardAlpha"/>
<feMorphology radius="7.85291" operator="dilate" in="SourceAlpha" result="effect1_dropShadow_505_1350"/>
<feOffset dx="0.872545" dy="0.872545"/>
<feGaussianBlur stdDeviation="12.6519"/>
<feColorMatrix type="matrix" values="0 0 0 0 0 0 0 0 0 0 0 0 0 0 0 0 0 0 0.0227546 0"/>
<feBlend mode="normal" in2="BackgroundImageFix" result="effect1_dropShadow_505_1350"/>
<feBlend mode="normal" in="SourceGraphic" in2="effect1_dropShadow_505_1350" result="shape"/>
</filter>
<clipPath id="clip0_505_1350">
<rect width="399.533" height="233.842" fill="white" transform="translate(132.467 4)"/>
</clipPath>
<clipPath id="clip1_505_1350">
<rect width="49.1501" height="13.11" fill="white" transform="translate(165.531 32.2812)"/>
</clipPath>
<clipPath id="clip2_505_1350">
<rect width="49.1501" height="13.11" fill="white" transform="translate(73.0645 60.6719)"/>
</clipPath>
</defs>
</svg>
