<svg width="1581" height="553" viewBox="0 0 1581 553" fill="none" xmlns="http://www.w3.org/2000/svg">
<rect width="1580.39" height="552.601" rx="20" fill="white"/>
<path d="M98.2943 100H94.8341L100.106 84.7273H104.268L109.533 100H106.072L102.247 88.2173H102.127L98.2943 100ZM98.0781 93.9968H106.251V96.5174H98.0781V93.9968ZM119.283 93.005V95.5032H113.302V93.005H119.283ZM114.346 88.5455V100H111.311V88.5455H114.346ZM121.274 88.5455V100H118.261V88.5455H121.274ZM127.005 100.216C126.274 100.216 125.623 100.089 125.051 99.8359C124.48 99.5774 124.027 99.1971 123.694 98.695C123.366 98.1879 123.202 97.5565 123.202 96.8008C123.202 96.1644 123.319 95.63 123.553 95.1974C123.786 94.7649 124.104 94.4169 124.507 94.1534C124.91 93.8899 125.367 93.6911 125.879 93.5568C126.396 93.4226 126.938 93.3281 127.505 93.2734C128.171 93.2038 128.708 93.1392 129.116 93.0795C129.523 93.0149 129.819 92.9205 130.003 92.7962C130.187 92.6719 130.279 92.4879 130.279 92.2443V92.1996C130.279 91.7273 130.13 91.3619 129.832 91.1033C129.538 90.8448 129.121 90.7156 128.579 90.7156C128.007 90.7156 127.552 90.8423 127.214 91.0959C126.876 91.3445 126.652 91.6577 126.543 92.0355L123.605 91.7969C123.754 91.1009 124.047 90.4993 124.485 89.9922C124.922 89.4801 125.486 89.0874 126.178 88.8139C126.874 88.5355 127.679 88.3963 128.594 88.3963C129.23 88.3963 129.839 88.4709 130.421 88.62C131.007 88.7692 131.527 89.0004 131.979 89.3136C132.437 89.6268 132.797 90.0295 133.061 90.5217C133.324 91.0089 133.456 91.593 133.456 92.2741V100H130.443V98.4116H130.354C130.17 98.7695 129.924 99.0852 129.615 99.3587C129.307 99.6271 128.937 99.8384 128.504 99.9925C128.072 100.142 127.572 100.216 127.005 100.216ZM127.915 98.0238C128.382 98.0238 128.795 97.9318 129.153 97.7479C129.511 97.5589 129.792 97.3054 129.996 96.9872C130.2 96.669 130.301 96.3086 130.301 95.9059V94.6903C130.202 94.755 130.065 94.8146 129.891 94.8693C129.722 94.919 129.531 94.9663 129.317 95.011C129.103 95.0508 128.89 95.0881 128.676 95.1229C128.462 95.1527 128.268 95.18 128.094 95.2049C127.721 95.2596 127.396 95.3466 127.117 95.4659C126.839 95.5852 126.622 95.7468 126.468 95.9506C126.314 96.1495 126.237 96.3981 126.237 96.6964C126.237 97.1289 126.394 97.4595 126.707 97.6882C127.025 97.9119 127.428 98.0238 127.915 98.0238ZM135.249 100L135.235 97.4794H135.615C135.883 97.4794 136.114 97.4148 136.308 97.2855C136.507 97.1513 136.671 96.935 136.801 96.6367C136.93 96.3384 137.032 95.9432 137.106 95.451C137.181 94.9538 137.231 94.3423 137.255 93.6165L137.442 88.5455H146.152V100H143.124V91.0437H140.298L140.119 94.5412C140.074 95.5007 139.958 96.326 139.769 97.017C139.585 97.7081 139.329 98.2749 139 98.7173C138.672 99.1548 138.277 99.478 137.815 99.6868C137.352 99.8956 136.815 100 136.204 100H135.249ZM151.65 95.8089L155.774 88.5455H158.906V100H155.878V92.7141L151.769 100H148.615V88.5455H151.65V95.8089ZM160.303 91.0437V88.5455H170.683V91.0437H166.992V100H163.964V91.0437H160.303ZM175.644 95.8089L179.768 88.5455H182.9V100H179.873V92.7141L175.764 100H172.609V88.5455H175.644V95.8089ZM185.447 100V88.5455H188.624V92.9901H189.519L192.636 88.5455H196.365L192.315 94.228L196.409 100H192.636L189.81 95.9357H188.624V100H185.447ZM201.018 100.216C200.287 100.216 199.636 100.089 199.064 99.8359C198.492 99.5774 198.04 99.1971 197.707 98.695C197.379 98.1879 197.215 97.5565 197.215 96.8008C197.215 96.1644 197.332 95.63 197.565 95.1974C197.799 94.7649 198.117 94.4169 198.52 94.1534C198.922 93.8899 199.38 93.6911 199.892 93.5568C200.409 93.4226 200.951 93.3281 201.518 93.2734C202.184 93.2038 202.721 93.1392 203.128 93.0795C203.536 93.0149 203.832 92.9205 204.016 92.7962C204.2 92.6719 204.292 92.4879 204.292 92.2443V92.1996C204.292 91.7273 204.143 91.3619 203.844 91.1033C203.551 90.8448 203.133 90.7156 202.591 90.7156C202.02 90.7156 201.565 90.8423 201.227 91.0959C200.889 91.3445 200.665 91.6577 200.556 92.0355L197.617 91.7969C197.767 91.1009 198.06 90.4993 198.497 89.9922C198.935 89.4801 199.499 89.0874 200.19 88.8139C200.886 88.5355 201.692 88.3963 202.606 88.3963C203.243 88.3963 203.852 88.4709 204.433 88.62C205.02 88.7692 205.54 89.0004 205.992 89.3136C206.449 89.6268 206.81 90.0295 207.073 90.5217C207.337 91.0089 207.469 91.593 207.469 92.2741V100H204.456V98.4116H204.366C204.182 98.7695 203.936 99.0852 203.628 99.3587C203.32 99.6271 202.949 99.8384 202.517 99.9925C202.084 100.142 201.585 100.216 201.018 100.216ZM201.928 98.0238C202.395 98.0238 202.808 97.9318 203.166 97.7479C203.524 97.5589 203.805 97.3054 204.008 96.9872C204.212 96.669 204.314 96.3086 204.314 95.9059V94.6903C204.215 94.755 204.078 94.8146 203.904 94.8693C203.735 94.919 203.544 94.9663 203.33 95.011C203.116 95.0508 202.902 95.0881 202.688 95.1229C202.475 95.1527 202.281 95.18 202.107 95.2049C201.734 95.2596 201.408 95.3466 201.13 95.4659C200.851 95.5852 200.635 95.7468 200.481 95.9506C200.327 96.1495 200.25 96.3981 200.25 96.6964C200.25 97.1289 200.406 97.4595 200.72 97.6882C201.038 97.9119 201.441 98.0238 201.928 98.0238Z" fill="#282828"/>
<rect x="94.4838" y="141.484" width="121.542" height="44.3195" rx="14.5162" stroke="#282828" stroke-width="0.967595"/>
<path d="M109.606 159.979V158.996H116.467V159.979H113.59V168.145H112.482V159.979H109.606ZM119.915 168.287C119.254 168.287 118.684 168.142 118.204 167.85C117.728 167.555 117.36 167.144 117.101 166.617C116.845 166.087 116.717 165.47 116.717 164.768C116.717 164.065 116.845 163.445 117.101 162.909C117.36 162.37 117.72 161.95 118.182 161.65C118.647 161.346 119.188 161.194 119.808 161.194C120.165 161.194 120.518 161.254 120.867 161.373C121.215 161.492 121.532 161.685 121.818 161.953C122.104 162.218 122.332 162.57 122.501 163.008C122.671 163.445 122.756 163.984 122.756 164.625V165.071H117.467V164.16H121.684C121.684 163.773 121.607 163.428 121.452 163.124C121.3 162.82 121.082 162.58 120.8 162.405C120.52 162.229 120.189 162.141 119.808 162.141C119.388 162.141 119.025 162.245 118.718 162.454C118.414 162.659 118.18 162.927 118.017 163.258C117.853 163.588 117.771 163.943 117.771 164.321V164.928C117.771 165.447 117.86 165.886 118.039 166.246C118.221 166.603 118.472 166.876 118.794 167.064C119.116 167.248 119.489 167.34 119.915 167.34C120.192 167.34 120.442 167.302 120.666 167.224C120.892 167.144 121.087 167.025 121.251 166.867C121.414 166.706 121.541 166.507 121.63 166.268L122.649 166.554C122.542 166.9 122.361 167.204 122.108 167.466C121.855 167.725 121.543 167.927 121.17 168.073C120.798 168.216 120.38 168.287 119.915 168.287ZM124.36 168.145V161.283H125.414V164.267H126.111L128.576 161.283H129.934L127.165 164.589L129.97 168.145H128.612L126.361 165.25H125.414V168.145H124.36ZM131.795 170.717C131.616 170.717 131.457 170.703 131.317 170.673C131.177 170.646 131.08 170.619 131.026 170.592L131.294 169.663C131.551 169.729 131.777 169.753 131.973 169.735C132.17 169.717 132.344 169.629 132.496 169.471C132.651 169.316 132.792 169.065 132.92 168.716L133.117 168.18L130.58 161.283H131.723L133.617 166.751H133.689L135.583 161.283H136.726L133.814 169.145C133.683 169.499 133.52 169.793 133.327 170.025C133.133 170.26 132.909 170.435 132.652 170.548C132.399 170.661 132.113 170.717 131.795 170.717ZM147.48 167.162L147.355 170.11H146.265V168.145H145.372V167.162H147.48ZM138.118 161.283H139.172V167.162H141.763V161.283H142.817V167.162H145.408V161.283H146.462V168.145H138.118V161.283ZM151.033 168.305C150.598 168.305 150.203 168.223 149.849 168.06C149.494 167.893 149.213 167.653 149.005 167.34C148.796 167.025 148.692 166.644 148.692 166.197C148.692 165.804 148.769 165.485 148.924 165.241C149.079 164.994 149.286 164.8 149.545 164.66C149.804 164.52 150.09 164.416 150.403 164.348C150.718 164.276 151.035 164.22 151.354 164.178C151.771 164.124 152.109 164.084 152.368 164.057C152.63 164.028 152.821 163.978 152.94 163.91C153.062 163.841 153.123 163.722 153.123 163.553V163.517C153.123 163.076 153.002 162.734 152.761 162.489C152.523 162.245 152.161 162.123 151.676 162.123C151.172 162.123 150.778 162.233 150.492 162.454C150.206 162.674 150.005 162.909 149.889 163.159L148.888 162.802C149.067 162.385 149.305 162.061 149.603 161.828C149.904 161.593 150.231 161.429 150.586 161.337C150.943 161.242 151.295 161.194 151.64 161.194C151.86 161.194 152.114 161.221 152.399 161.274C152.688 161.325 152.967 161.431 153.235 161.592C153.506 161.752 153.731 161.995 153.909 162.32C154.088 162.644 154.177 163.079 154.177 163.624V168.145H153.123V167.215H153.069C152.998 167.364 152.879 167.524 152.712 167.693C152.545 167.863 152.323 168.008 152.047 168.127C151.77 168.246 151.432 168.305 151.033 168.305ZM151.193 167.358C151.61 167.358 151.962 167.276 152.248 167.113C152.536 166.949 152.754 166.737 152.9 166.478C153.049 166.219 153.123 165.947 153.123 165.661V164.696C153.078 164.75 152.98 164.799 152.828 164.844C152.679 164.885 152.507 164.922 152.31 164.955C152.116 164.985 151.927 165.012 151.743 165.036C151.561 165.056 151.414 165.074 151.301 165.089C151.027 165.125 150.77 165.183 150.532 165.263C150.297 165.341 150.106 165.458 149.96 165.616C149.818 165.771 149.746 165.983 149.746 166.251C149.746 166.617 149.882 166.894 150.153 167.081C150.427 167.266 150.773 167.358 151.193 167.358ZM160.229 168.145V162.248H158.406C157.995 162.248 157.672 162.344 157.437 162.534C157.202 162.725 157.084 162.987 157.084 163.32C157.084 163.648 157.19 163.905 157.401 164.093C157.616 164.281 157.909 164.374 158.281 164.374H160.497V165.357H158.281C157.817 165.357 157.416 165.275 157.08 165.112C156.743 164.948 156.484 164.714 156.302 164.41C156.121 164.103 156.03 163.74 156.03 163.32C156.03 162.897 156.125 162.534 156.316 162.23C156.506 161.927 156.779 161.693 157.133 161.529C157.491 161.365 157.915 161.283 158.406 161.283H161.229V168.145H160.229ZM155.655 168.145L157.602 164.732H158.746L156.798 168.145H155.655Z" fill="#282828"/>
<path d="M195.012 160.463L189.64 167.145L184.012 160.145" stroke="#6A6A6A" stroke-width="1.85" stroke-linecap="round"/>
<path d="M138.152 308.405C138.092 307.803 137.836 307.336 137.384 307.003C136.932 306.67 136.318 306.503 135.542 306.503C135.015 306.503 134.57 306.578 134.207 306.727C133.844 306.871 133.566 307.072 133.372 307.331C133.183 307.589 133.089 307.883 133.089 308.211C133.079 308.484 133.136 308.723 133.26 308.927C133.389 309.131 133.566 309.307 133.79 309.456C134.013 309.6 134.272 309.727 134.565 309.837C134.858 309.941 135.172 310.031 135.505 310.105L136.877 310.433C137.543 310.582 138.155 310.781 138.711 311.03C139.268 311.278 139.75 311.584 140.158 311.947C140.566 312.31 140.882 312.738 141.105 313.23C141.334 313.722 141.451 314.286 141.456 314.923C141.451 315.857 141.212 316.668 140.74 317.354C140.273 318.035 139.596 318.564 138.711 318.942C137.831 319.315 136.77 319.501 135.527 319.501C134.294 319.501 133.22 319.312 132.306 318.935C131.396 318.557 130.685 317.998 130.173 317.257C129.666 316.511 129.4 315.589 129.375 314.49H132.499C132.534 315.002 132.681 315.43 132.939 315.773C133.203 316.111 133.553 316.367 133.991 316.541C134.433 316.71 134.933 316.794 135.49 316.794C136.037 316.794 136.511 316.715 136.914 316.556C137.322 316.397 137.638 316.175 137.861 315.892C138.085 315.609 138.197 315.283 138.197 314.915C138.197 314.572 138.095 314.284 137.891 314.05C137.692 313.816 137.399 313.618 137.011 313.453C136.628 313.289 136.159 313.14 135.602 313.006L133.939 312.588C132.651 312.275 131.634 311.786 130.889 311.119C130.143 310.453 129.773 309.556 129.777 308.427C129.773 307.502 130.019 306.695 130.516 306.004C131.018 305.312 131.706 304.773 132.581 304.385C133.456 303.998 134.451 303.804 135.564 303.804C136.698 303.804 137.687 303.998 138.532 304.385C139.383 304.773 140.044 305.312 140.516 306.004C140.988 306.695 141.232 307.495 141.247 308.405H138.152ZM146.834 319.501C146.104 319.501 145.452 319.375 144.881 319.121C144.309 318.863 143.856 318.482 143.523 317.98C143.195 317.473 143.031 316.842 143.031 316.086C143.031 315.45 143.148 314.915 143.382 314.483C143.615 314.05 143.933 313.702 144.336 313.439C144.739 313.175 145.196 312.976 145.708 312.842C146.225 312.708 146.767 312.613 147.334 312.559C148 312.489 148.537 312.424 148.945 312.365C149.352 312.3 149.648 312.206 149.832 312.081C150.016 311.957 150.108 311.773 150.108 311.529V311.485C150.108 311.012 149.959 310.647 149.661 310.388C149.367 310.13 148.95 310.001 148.408 310.001C147.836 310.001 147.381 310.127 147.043 310.381C146.705 310.63 146.481 310.943 146.372 311.321L143.434 311.082C143.583 310.386 143.876 309.784 144.314 309.277C144.751 308.765 145.316 308.373 146.007 308.099C146.703 307.821 147.508 307.681 148.423 307.681C149.059 307.681 149.668 307.756 150.25 307.905C150.837 308.054 151.356 308.286 151.808 308.599C152.266 308.912 152.626 309.315 152.89 309.807C153.153 310.294 153.285 310.878 153.285 311.559V319.285H150.272V317.697H150.183C149.999 318.055 149.753 318.37 149.444 318.644C149.136 318.912 148.766 319.124 148.333 319.278C147.901 319.427 147.401 319.501 146.834 319.501ZM147.744 317.309C148.212 317.309 148.624 317.217 148.982 317.033C149.34 316.844 149.621 316.591 149.825 316.272C150.029 315.954 150.131 315.594 150.131 315.191V313.975C150.031 314.04 149.894 314.1 149.72 314.154C149.551 314.204 149.36 314.251 149.146 314.296C148.932 314.336 148.719 314.373 148.505 314.408C148.291 314.438 148.097 314.465 147.923 314.49C147.55 314.545 147.225 314.632 146.946 314.751C146.668 314.87 146.452 315.032 146.297 315.236C146.143 315.435 146.066 315.683 146.066 315.982C146.066 316.414 146.223 316.745 146.536 316.973C146.854 317.197 147.257 317.309 147.744 317.309ZM158.927 304.012V319.285H155.75V304.012H158.927ZM166.692 319.509C165.513 319.509 164.499 319.27 163.649 318.793C162.804 318.311 162.152 317.63 161.695 316.75C161.238 315.865 161.009 314.818 161.009 313.61C161.009 312.432 161.238 311.398 161.695 310.508C162.152 309.618 162.796 308.924 163.627 308.427C164.462 307.93 165.441 307.681 166.565 307.681C167.32 307.681 168.024 307.803 168.675 308.047C169.331 308.286 169.903 308.646 170.39 309.128C170.883 309.61 171.265 310.217 171.539 310.948C171.812 311.674 171.949 312.524 171.949 313.498V314.371H162.277V312.402H168.959C168.959 311.945 168.859 311.539 168.66 311.186C168.461 310.833 168.186 310.558 167.833 310.359C167.485 310.155 167.079 310.053 166.617 310.053C166.135 310.053 165.707 310.165 165.334 310.388C164.966 310.607 164.678 310.903 164.469 311.276C164.26 311.644 164.154 312.054 164.149 312.506V314.378C164.149 314.945 164.253 315.435 164.462 315.847C164.676 316.26 164.976 316.578 165.364 316.802C165.752 317.026 166.212 317.137 166.744 317.137C167.097 317.137 167.42 317.088 167.713 316.988C168.007 316.889 168.258 316.74 168.466 316.541C168.675 316.342 168.834 316.098 168.944 315.81L171.882 316.004C171.733 316.71 171.427 317.326 170.965 317.853C170.507 318.375 169.916 318.783 169.19 319.076C168.469 319.365 167.636 319.509 166.692 319.509ZM183.553 311.097L180.644 311.276C180.595 311.027 180.488 310.804 180.324 310.605C180.16 310.401 179.943 310.239 179.675 310.12C179.411 309.996 179.096 309.934 178.728 309.934C178.236 309.934 177.82 310.038 177.482 310.247C177.144 310.451 176.975 310.724 176.975 311.067C176.975 311.341 177.085 311.572 177.303 311.761C177.522 311.95 177.898 312.101 178.429 312.216L180.503 312.633C181.616 312.862 182.447 313.23 182.993 313.737C183.54 314.244 183.814 314.91 183.814 315.735C183.814 316.486 183.592 317.145 183.15 317.712C182.712 318.278 182.111 318.721 181.345 319.039C180.585 319.352 179.707 319.509 178.713 319.509C177.197 319.509 175.988 319.193 175.089 318.562C174.194 317.925 173.669 317.06 173.515 315.967L176.64 315.803C176.734 316.265 176.963 316.618 177.326 316.862C177.689 317.1 178.154 317.219 178.72 317.219C179.277 317.219 179.725 317.113 180.063 316.899C180.406 316.68 180.58 316.399 180.585 316.056C180.58 315.768 180.458 315.532 180.219 315.348C179.981 315.159 179.613 315.015 179.116 314.915L177.132 314.52C176.013 314.296 175.181 313.908 174.634 313.357C174.092 312.805 173.821 312.101 173.821 311.246C173.821 310.51 174.02 309.876 174.417 309.344C174.82 308.812 175.384 308.402 176.11 308.114C176.841 307.826 177.696 307.681 178.676 307.681C180.122 307.681 181.261 307.987 182.091 308.599C182.926 309.21 183.413 310.043 183.553 311.097Z" fill="#282828"/>
<mask id="path-7-inside-1_323_898" fill="white">
<path d="M217.796 410.702C217.796 422.945 214.165 434.912 207.364 445.091C200.563 455.27 190.895 463.204 179.585 467.889C168.275 472.574 155.829 473.799 143.822 471.411C131.815 469.023 120.786 463.127 112.129 454.471C103.473 445.814 97.5777 434.785 95.1893 422.778C92.801 410.771 94.0268 398.326 98.7117 387.015C103.397 375.705 111.33 366.038 121.509 359.236C131.688 352.435 143.656 348.805 155.898 348.805V366.669C147.189 366.669 138.675 369.251 131.434 374.09C124.193 378.928 118.549 385.805 115.216 393.852C111.883 401.898 111.011 410.751 112.71 419.293C114.409 427.835 118.603 435.681 124.761 441.839C130.92 447.997 138.766 452.191 147.307 453.89C155.849 455.589 164.703 454.717 172.749 451.384C180.795 448.052 187.672 442.408 192.51 435.166C197.349 427.925 199.931 419.412 199.931 410.702H217.796Z"/>
</mask>
<path d="M217.796 410.702C217.796 422.945 214.165 434.912 207.364 445.091C200.563 455.27 190.895 463.204 179.585 467.889C168.275 472.574 155.829 473.799 143.822 471.411C131.815 469.023 120.786 463.127 112.129 454.471C103.473 445.814 97.5777 434.785 95.1893 422.778C92.801 410.771 94.0268 398.326 98.7117 387.015C103.397 375.705 111.33 366.038 121.509 359.236C131.688 352.435 143.656 348.805 155.898 348.805V366.669C147.189 366.669 138.675 369.251 131.434 374.09C124.193 378.928 118.549 385.805 115.216 393.852C111.883 401.898 111.011 410.751 112.71 419.293C114.409 427.835 118.603 435.681 124.761 441.839C130.92 447.997 138.766 452.191 147.307 453.89C155.849 455.589 164.703 454.717 172.749 451.384C180.795 448.052 187.672 442.408 192.51 435.166C197.349 427.925 199.931 419.412 199.931 410.702H217.796Z" stroke="#2E90FA" stroke-width="37.8415" mask="url(#path-7-inside-1_323_898)"/>
<mask id="path-8-inside-2_323_898" fill="white">
<path d="M217.796 410.702C217.796 402.574 216.195 394.525 213.084 387.015C209.973 379.505 205.414 372.682 199.666 366.934C193.918 361.186 187.095 356.627 179.585 353.516C172.075 350.406 164.026 348.805 155.898 348.805V359.682C162.598 359.682 169.232 361.002 175.422 363.566C181.612 366.13 187.237 369.888 191.974 374.626C196.712 379.364 200.47 384.988 203.034 391.178C205.598 397.368 206.918 404.002 206.918 410.702H217.796Z"/>
</mask>
<path d="M217.796 410.702C217.796 402.574 216.195 394.525 213.084 387.015C209.973 379.505 205.414 372.682 199.666 366.934C193.918 361.186 187.095 356.627 179.585 353.516C172.075 350.406 164.026 348.805 155.898 348.805V359.682C162.598 359.682 169.232 361.002 175.422 363.566C181.612 366.13 187.237 369.888 191.974 374.626C196.712 379.364 200.47 384.988 203.034 391.178C205.598 397.368 206.918 404.002 206.918 410.702H217.796Z" stroke="black" stroke-opacity="0.2" stroke-width="37.8415" mask="url(#path-8-inside-2_323_898)"/>
<path d="M136.009 418.945L142.34 406.417V406.312H134.965V403.673H145.681V406.35L139.342 418.945H136.009ZM153.554 419.281C152.272 419.276 151.168 418.96 150.243 418.334C149.324 417.707 148.615 416.8 148.118 415.612C147.626 414.424 147.382 412.994 147.387 411.324C147.387 409.658 147.633 408.239 148.125 407.066C148.623 405.892 149.331 405 150.251 404.388C151.175 403.772 152.277 403.464 153.554 403.464C154.832 403.464 155.931 403.772 156.85 404.388C157.775 405.005 158.486 405.9 158.983 407.073C159.48 408.241 159.727 409.658 159.722 411.324C159.722 412.999 159.473 414.431 158.976 415.619C158.484 416.808 157.778 417.715 156.858 418.341C155.938 418.968 154.837 419.281 153.554 419.281ZM153.554 416.604C154.429 416.604 155.128 416.164 155.65 415.284C156.172 414.404 156.43 413.084 156.425 411.324C156.425 410.165 156.306 409.201 156.067 408.43C155.834 407.66 155.501 407.081 155.068 406.693C154.641 406.305 154.136 406.111 153.554 406.111C152.684 406.111 151.988 406.546 151.466 407.416C150.944 408.286 150.681 409.589 150.676 411.324C150.676 412.497 150.793 413.477 151.026 414.262C151.265 415.043 151.6 415.629 152.033 416.022C152.466 416.41 152.973 416.604 153.554 416.604ZM170.384 416.082V415.276C170.384 414.665 170.513 414.103 170.772 413.591C171.035 413.074 171.415 412.661 171.913 412.353C172.415 412.04 173.026 411.883 173.747 411.883C174.478 411.883 175.092 412.037 175.589 412.346C176.091 412.654 176.469 413.066 176.723 413.583C176.981 414.096 177.11 414.66 177.11 415.276V416.082C177.11 416.693 176.981 417.257 176.723 417.775C176.464 418.287 176.084 418.697 175.582 419.005C175.079 419.318 174.468 419.475 173.747 419.475C173.016 419.475 172.402 419.318 171.905 419.005C171.408 418.697 171.03 418.287 170.772 417.775C170.513 417.257 170.384 416.693 170.384 416.082ZM172.554 415.276V416.082C172.554 416.435 172.638 416.768 172.807 417.081C172.981 417.394 173.295 417.551 173.747 417.551C174.199 417.551 174.508 417.397 174.672 417.088C174.841 416.78 174.925 416.445 174.925 416.082V415.276C174.925 414.913 174.846 414.575 174.687 414.262C174.528 413.949 174.214 413.792 173.747 413.792C173.3 413.792 172.989 413.949 172.815 414.262C172.641 414.575 172.554 414.913 172.554 415.276ZM162.546 407.342V406.536C162.546 405.92 162.678 405.355 162.941 404.843C163.205 404.326 163.585 403.914 164.082 403.605C164.584 403.297 165.191 403.143 165.902 403.143C166.638 403.143 167.254 403.297 167.751 403.605C168.248 403.914 168.626 404.326 168.885 404.843C169.143 405.355 169.273 405.92 169.273 406.536V407.342C169.273 407.958 169.141 408.522 168.877 409.034C168.619 409.547 168.239 409.957 167.736 410.265C167.239 410.568 166.628 410.72 165.902 410.72C165.176 410.72 164.562 410.566 164.06 410.257C163.563 409.944 163.185 409.534 162.926 409.027C162.673 408.515 162.546 407.953 162.546 407.342ZM164.731 406.536V407.342C164.731 407.705 164.816 408.04 164.985 408.348C165.159 408.657 165.464 408.811 165.902 408.811C166.359 408.811 166.67 408.657 166.834 408.348C167.003 408.04 167.088 407.705 167.088 407.342V406.536C167.088 406.173 167.008 405.835 166.849 405.522C166.69 405.209 166.374 405.052 165.902 405.052C165.459 405.052 165.154 405.211 164.985 405.529C164.816 405.848 164.731 406.183 164.731 406.536ZM163.53 418.945L174.03 403.673H175.984L165.484 418.945H163.53Z" fill="#282828"/>
<path d="M295.28 304.012L298.972 315.616H299.114L302.812 304.012H306.392L301.127 319.285H296.966L291.693 304.012H295.28ZM308.171 319.285V307.831H311.347V319.285H308.171ZM309.766 306.354C309.294 306.354 308.889 306.197 308.551 305.884C308.218 305.566 308.051 305.186 308.051 304.743C308.051 304.306 308.218 303.93 308.551 303.617C308.889 303.299 309.294 303.14 309.766 303.14C310.239 303.14 310.641 303.299 310.975 303.617C311.313 303.93 311.482 304.306 311.482 304.743C311.482 305.186 311.313 305.566 310.975 305.884C310.641 306.197 310.239 306.354 309.766 306.354ZM319.112 319.509C317.934 319.509 316.92 319.27 316.07 318.793C315.225 318.311 314.573 317.63 314.116 316.75C313.659 315.865 313.43 314.818 313.43 313.61C313.43 312.432 313.659 311.398 314.116 310.508C314.573 309.618 315.217 308.924 316.047 308.427C316.883 307.93 317.862 307.681 318.986 307.681C319.741 307.681 320.445 307.803 321.096 308.047C321.752 308.286 322.324 308.646 322.811 309.128C323.303 309.61 323.686 310.217 323.96 310.948C324.233 311.674 324.37 312.524 324.37 313.498V314.371H314.698V312.402H321.379C321.379 311.945 321.28 311.539 321.081 311.186C320.882 310.833 320.606 310.558 320.253 310.359C319.905 310.155 319.5 310.053 319.038 310.053C318.556 310.053 318.128 310.165 317.755 310.388C317.387 310.607 317.099 310.903 316.89 311.276C316.681 311.644 316.574 312.054 316.569 312.506V314.378C316.569 314.945 316.674 315.435 316.883 315.847C317.096 316.26 317.397 316.578 317.785 316.802C318.173 317.026 318.633 317.137 319.165 317.137C319.518 317.137 319.841 317.088 320.134 316.988C320.427 316.889 320.678 316.74 320.887 316.541C321.096 316.342 321.255 316.098 321.365 315.81L324.303 316.004C324.154 316.71 323.848 317.326 323.386 317.853C322.928 318.375 322.337 318.783 321.611 319.076C320.89 319.365 320.057 319.509 319.112 319.509ZM328.621 319.285L325.503 307.831H328.718L330.492 315.527H330.597L332.446 307.831H335.601L337.48 315.482H337.577L339.322 307.831H342.529L339.419 319.285H336.056L334.087 312.081H333.945L331.976 319.285H328.621ZM353.754 311.097L350.845 311.276C350.796 311.027 350.689 310.804 350.525 310.605C350.361 310.401 350.144 310.239 349.876 310.12C349.613 309.996 349.297 309.934 348.929 309.934C348.437 309.934 348.022 310.038 347.684 310.247C347.345 310.451 347.176 310.724 347.176 311.067C347.176 311.341 347.286 311.572 347.505 311.761C347.723 311.95 348.099 312.101 348.631 312.216L350.704 312.633C351.817 312.862 352.648 313.23 353.195 313.737C353.741 314.244 354.015 314.91 354.015 315.735C354.015 316.486 353.794 317.145 353.351 317.712C352.914 318.278 352.312 318.721 351.546 319.039C350.786 319.352 349.908 319.509 348.914 319.509C347.398 319.509 346.19 319.193 345.29 318.562C344.395 317.925 343.87 317.06 343.716 315.967L346.841 315.803C346.935 316.265 347.164 316.618 347.527 316.862C347.89 317.1 348.355 317.219 348.921 317.219C349.478 317.219 349.926 317.113 350.264 316.899C350.607 316.68 350.781 316.399 350.786 316.056C350.781 315.768 350.659 315.532 350.42 315.348C350.182 315.159 349.814 315.015 349.317 314.915L347.333 314.52C346.214 314.296 345.382 313.908 344.835 313.357C344.293 312.805 344.022 312.101 344.022 311.246C344.022 310.51 344.221 309.876 344.619 309.344C345.021 308.812 345.586 308.402 346.311 308.114C347.042 307.826 347.897 307.681 348.877 307.681C350.323 307.681 351.462 307.987 352.292 308.599C353.127 309.21 353.615 310.043 353.754 311.097Z" fill="#282828"/>
<mask id="path-11-inside-3_323_898" fill="white">
<path d="M384.591 410.702C384.591 422.945 380.96 434.912 374.159 445.091C367.357 455.27 357.69 463.204 346.38 467.889C335.07 472.574 322.624 473.799 310.617 471.411C298.61 469.023 287.581 463.127 278.924 454.471C270.268 445.814 264.373 434.785 261.984 422.778C259.596 410.771 260.822 398.326 265.507 387.015C270.192 375.705 278.125 366.038 288.304 359.236C298.483 352.435 310.451 348.805 322.693 348.805V366.669C313.984 366.669 305.47 369.251 298.229 374.09C290.988 378.928 285.344 385.805 282.011 393.852C278.678 401.898 277.806 410.751 279.505 419.293C281.204 427.835 285.398 435.681 291.556 441.839C297.714 447.997 305.56 452.191 314.102 453.89C322.644 455.589 331.498 454.717 339.544 451.384C347.59 448.052 354.467 442.408 359.305 435.166C364.144 427.925 366.726 419.412 366.726 410.702H384.591Z"/>
</mask>
<path d="M384.591 410.702C384.591 422.945 380.96 434.912 374.159 445.091C367.357 455.27 357.69 463.204 346.38 467.889C335.07 472.574 322.624 473.799 310.617 471.411C298.61 469.023 287.581 463.127 278.924 454.471C270.268 445.814 264.373 434.785 261.984 422.778C259.596 410.771 260.822 398.326 265.507 387.015C270.192 375.705 278.125 366.038 288.304 359.236C298.483 352.435 310.451 348.805 322.693 348.805V366.669C313.984 366.669 305.47 369.251 298.229 374.09C290.988 378.928 285.344 385.805 282.011 393.852C278.678 401.898 277.806 410.751 279.505 419.293C281.204 427.835 285.398 435.681 291.556 441.839C297.714 447.997 305.56 452.191 314.102 453.89C322.644 455.589 331.498 454.717 339.544 451.384C347.59 448.052 354.467 442.408 359.305 435.166C364.144 427.925 366.726 419.412 366.726 410.702H384.591Z" stroke="#12B76A" stroke-width="37.8415" mask="url(#path-11-inside-3_323_898)"/>
<mask id="path-12-inside-4_323_898" fill="white">
<path d="M384.591 410.702C384.591 402.574 382.99 394.525 379.879 387.015C376.768 379.505 372.209 372.682 366.461 366.934C360.713 361.186 353.89 356.627 346.38 353.516C338.87 350.406 330.821 348.805 322.693 348.805V359.682C329.393 359.682 336.027 361.002 342.217 363.566C348.407 366.13 354.032 369.888 358.769 374.626C363.507 379.364 367.265 384.988 369.829 391.178C372.393 397.368 373.713 404.002 373.713 410.702H384.591Z"/>
</mask>
<path d="M384.591 410.702C384.591 402.574 382.99 394.525 379.879 387.015C376.768 379.505 372.209 372.682 366.461 366.934C360.713 361.186 353.89 356.627 346.38 353.516C338.87 350.406 330.821 348.805 322.693 348.805V359.682C329.393 359.682 336.027 361.002 342.217 363.566C348.407 366.13 354.032 369.888 358.769 374.626C363.507 379.364 367.265 384.988 369.829 391.178C372.393 397.368 373.713 404.002 373.713 410.702H384.591Z" stroke="black" stroke-opacity="0.2" stroke-width="37.8415" mask="url(#path-12-inside-4_323_898)"/>
<path d="M307.773 400.464C308.559 400.464 309.314 400.596 310.04 400.859C310.771 401.123 311.422 401.543 311.994 402.119C312.571 402.696 313.026 403.462 313.359 404.416C313.697 405.366 313.868 406.532 313.873 407.914C313.873 409.211 313.727 410.37 313.433 411.389C313.145 412.403 312.73 413.266 312.188 413.977C311.646 414.688 310.992 415.229 310.227 415.602C309.461 415.97 308.606 416.154 307.661 416.154C306.642 416.154 305.742 415.958 304.962 415.565C304.181 415.167 303.552 414.628 303.075 413.947C302.603 413.261 302.317 412.49 302.217 411.635H305.402C305.526 412.192 305.787 412.624 306.185 412.933C306.582 413.236 307.075 413.387 307.661 413.387C308.656 413.387 309.411 412.955 309.928 412.09C310.445 411.22 310.706 410.029 310.711 408.518H310.607C310.378 408.965 310.07 409.35 309.682 409.674C309.294 409.992 308.849 410.238 308.347 410.412C307.85 410.586 307.321 410.673 306.759 410.673C305.859 410.673 305.056 410.462 304.35 410.039C303.644 409.616 303.087 409.035 302.68 408.294C302.272 407.553 302.068 406.708 302.068 405.759C302.063 404.734 302.299 403.822 302.777 403.022C303.254 402.221 303.92 401.595 304.775 401.142C305.635 400.685 306.635 400.459 307.773 400.464ZM307.795 402.999C307.293 402.999 306.846 403.119 306.453 403.357C306.065 403.596 305.757 403.917 305.528 404.319C305.305 404.722 305.195 405.172 305.2 405.669C305.2 406.171 305.31 406.624 305.528 407.026C305.752 407.424 306.055 407.742 306.438 407.981C306.826 408.214 307.269 408.331 307.766 408.331C308.139 408.331 308.484 408.262 308.802 408.123C309.12 407.983 309.396 407.792 309.63 407.548C309.869 407.3 310.055 407.014 310.189 406.691C310.324 406.368 310.391 406.025 310.391 405.662C310.386 405.179 310.271 404.737 310.048 404.334C309.824 403.931 309.516 403.608 309.123 403.365C308.73 403.121 308.288 402.999 307.795 402.999ZM322.099 416.281C320.816 416.276 319.712 415.96 318.788 415.334C317.868 414.707 317.159 413.8 316.662 412.612C316.17 411.424 315.927 409.994 315.932 408.324C315.932 406.658 316.178 405.239 316.67 404.066C317.167 402.892 317.875 402 318.795 401.388C319.72 400.772 320.821 400.464 322.099 400.464C323.376 400.464 324.475 400.772 325.395 401.388C326.32 402.005 327.031 402.9 327.528 404.073C328.025 405.241 328.271 406.658 328.266 408.324C328.266 409.999 328.017 411.431 327.52 412.619C327.028 413.808 326.322 414.715 325.402 415.341C324.483 415.968 323.381 416.281 322.099 416.281ZM322.099 413.604C322.974 413.604 323.672 413.164 324.194 412.284C324.716 411.404 324.975 410.084 324.97 408.324C324.97 407.165 324.851 406.201 324.612 405.43C324.378 404.66 324.045 404.081 323.613 403.693C323.185 403.305 322.68 403.111 322.099 403.111C321.229 403.111 320.533 403.546 320.011 404.416C319.489 405.286 319.225 406.589 319.22 408.324C319.22 409.497 319.337 410.477 319.571 411.262C319.809 412.043 320.145 412.629 320.577 413.022C321.01 413.41 321.517 413.604 322.099 413.604ZM338.928 413.082V412.276C338.928 411.665 339.057 411.103 339.316 410.591C339.58 410.074 339.96 409.661 340.457 409.353C340.959 409.04 341.571 408.883 342.292 408.883C343.022 408.883 343.636 409.037 344.133 409.346C344.636 409.654 345.013 410.066 345.267 410.583C345.526 411.096 345.655 411.66 345.655 412.276V413.082C345.655 413.693 345.526 414.257 345.267 414.775C345.008 415.287 344.628 415.697 344.126 416.005C343.624 416.318 343.012 416.475 342.292 416.475C341.561 416.475 340.947 416.318 340.45 416.005C339.952 415.697 339.575 415.287 339.316 414.775C339.057 414.257 338.928 413.693 338.928 413.082ZM341.098 412.276V413.082C341.098 413.435 341.183 413.768 341.352 414.081C341.526 414.394 341.839 414.551 342.292 414.551C342.744 414.551 343.052 414.397 343.216 414.088C343.385 413.78 343.47 413.445 343.47 413.082V412.276C343.47 411.913 343.39 411.575 343.231 411.262C343.072 410.949 342.759 410.792 342.292 410.792C341.844 410.792 341.533 410.949 341.359 411.262C341.185 411.575 341.098 411.913 341.098 412.276ZM331.091 404.342V403.536C331.091 402.92 331.222 402.355 331.486 401.843C331.749 401.326 332.13 400.914 332.627 400.605C333.129 400.297 333.735 400.143 334.446 400.143C335.182 400.143 335.799 400.297 336.296 400.605C336.793 400.914 337.171 401.326 337.429 401.843C337.688 402.355 337.817 402.92 337.817 403.536V404.342C337.817 404.958 337.685 405.522 337.422 406.034C337.163 406.547 336.783 406.957 336.281 407.265C335.784 407.568 335.172 407.72 334.446 407.72C333.72 407.72 333.106 407.566 332.604 407.257C332.107 406.944 331.729 406.534 331.471 406.027C331.217 405.515 331.091 404.953 331.091 404.342ZM333.276 403.536V404.342C333.276 404.705 333.36 405.04 333.529 405.348C333.703 405.657 334.009 405.811 334.446 405.811C334.904 405.811 335.214 405.657 335.379 405.348C335.548 405.04 335.632 404.705 335.632 404.342V403.536C335.632 403.173 335.553 402.835 335.393 402.522C335.234 402.209 334.919 402.052 334.446 402.052C334.004 402.052 333.698 402.211 333.529 402.529C333.36 402.848 333.276 403.183 333.276 403.536ZM332.075 415.945L342.575 400.673H344.529L334.029 415.945H332.075Z" fill="#282828"/>
<path d="M451.471 319.285V304.012H461.763V306.675H454.701V310.314H461.233V312.976H454.701V316.623H461.792V319.285H451.471ZM467.537 319.501C466.806 319.501 466.154 319.375 465.583 319.121C465.011 318.863 464.559 318.482 464.225 317.98C463.897 317.473 463.733 316.842 463.733 316.086C463.733 315.45 463.85 314.915 464.084 314.483C464.317 314.05 464.636 313.702 465.038 313.439C465.441 313.175 465.898 312.976 466.41 312.842C466.928 312.708 467.469 312.613 468.036 312.559C468.702 312.489 469.239 312.424 469.647 312.365C470.055 312.3 470.35 312.206 470.534 312.081C470.718 311.957 470.81 311.773 470.81 311.529V311.485C470.81 311.012 470.661 310.647 470.363 310.388C470.07 310.13 469.652 310.001 469.11 310.001C468.538 310.001 468.083 310.127 467.745 310.381C467.407 310.63 467.184 310.943 467.074 311.321L464.136 311.082C464.285 310.386 464.578 309.784 465.016 309.277C465.453 308.765 466.018 308.373 466.709 308.099C467.405 307.821 468.21 307.681 469.125 307.681C469.761 307.681 470.37 307.756 470.952 307.905C471.539 308.054 472.058 308.286 472.511 308.599C472.968 308.912 473.328 309.315 473.592 309.807C473.855 310.294 473.987 310.878 473.987 311.559V319.285H470.974V317.697H470.885C470.701 318.055 470.455 318.37 470.147 318.644C469.838 318.912 469.468 319.124 469.035 319.278C468.603 319.427 468.103 319.501 467.537 319.501ZM468.446 317.309C468.914 317.309 469.326 317.217 469.684 317.033C470.042 316.844 470.323 316.591 470.527 316.272C470.731 315.954 470.833 315.594 470.833 315.191V313.975C470.733 314.04 470.597 314.1 470.423 314.154C470.254 314.204 470.062 314.251 469.848 314.296C469.635 314.336 469.421 314.373 469.207 314.408C468.993 314.438 468.799 314.465 468.625 314.49C468.252 314.545 467.927 314.632 467.648 314.751C467.37 314.87 467.154 315.032 467 315.236C466.845 315.435 466.768 315.683 466.768 315.982C466.768 316.414 466.925 316.745 467.238 316.973C467.556 317.197 467.959 317.309 468.446 317.309ZM476.452 319.285V307.831H479.532V309.829H479.651C479.86 309.118 480.21 308.581 480.703 308.218C481.195 307.85 481.761 307.667 482.403 307.667C482.562 307.667 482.733 307.676 482.917 307.696C483.101 307.716 483.263 307.744 483.402 307.778V310.597C483.253 310.553 483.047 310.513 482.783 310.478C482.52 310.443 482.279 310.426 482.06 310.426C481.592 310.426 481.175 310.528 480.807 310.732C480.444 310.93 480.156 311.209 479.942 311.567C479.733 311.925 479.629 312.337 479.629 312.805V319.285H476.452ZM488.221 312.663V319.285H485.045V307.831H488.072V309.852H488.207C488.46 309.185 488.885 308.658 489.482 308.271C490.078 307.878 490.802 307.681 491.652 307.681C492.447 307.681 493.141 307.855 493.732 308.203C494.324 308.551 494.784 309.049 495.112 309.695C495.44 310.336 495.604 311.102 495.604 311.992V319.285H492.427V312.559C492.432 311.858 492.253 311.311 491.89 310.918C491.528 310.52 491.028 310.321 490.392 310.321C489.964 310.321 489.586 310.413 489.258 310.597C488.935 310.781 488.681 311.05 488.497 311.403C488.318 311.751 488.226 312.171 488.221 312.663ZM498.108 319.285V307.831H501.285V319.285H498.108ZM499.704 306.354C499.232 306.354 498.826 306.197 498.488 305.884C498.155 305.566 497.989 305.186 497.989 304.743C497.989 304.306 498.155 303.93 498.488 303.617C498.826 303.299 499.232 303.14 499.704 303.14C500.176 303.14 500.579 303.299 500.912 303.617C501.25 303.93 501.419 304.306 501.419 304.743C501.419 305.186 501.25 305.566 500.912 305.884C500.579 306.197 500.176 306.354 499.704 306.354ZM507.007 312.663V319.285H503.83V307.831H506.857V309.852H506.992C507.245 309.185 507.67 308.658 508.267 308.271C508.864 307.878 509.587 307.681 510.437 307.681C511.232 307.681 511.926 307.855 512.518 308.203C513.109 308.551 513.569 309.049 513.897 309.695C514.225 310.336 514.389 311.102 514.389 311.992V319.285H511.213V312.559C511.218 311.858 511.039 311.311 510.676 310.918C510.313 310.52 509.813 310.321 509.177 310.321C508.749 310.321 508.371 310.413 508.043 310.597C507.72 310.781 507.466 311.05 507.283 311.403C507.104 311.751 507.012 312.171 507.007 312.663ZM522.054 323.819C521.025 323.819 520.142 323.678 519.406 323.394C518.676 323.116 518.094 322.735 517.661 322.253C517.229 321.771 516.948 321.229 516.819 320.627L519.757 320.232C519.846 320.461 519.988 320.675 520.182 320.874C520.376 321.072 520.632 321.232 520.95 321.351C521.273 321.475 521.666 321.537 522.128 321.537C522.819 321.537 523.389 321.368 523.836 321.03C524.288 320.697 524.515 320.138 524.515 319.352V317.257H524.38C524.241 317.575 524.032 317.876 523.754 318.159C523.476 318.442 523.118 318.674 522.68 318.853C522.243 319.032 521.721 319.121 521.114 319.121C520.254 319.121 519.471 318.922 518.765 318.525C518.064 318.122 517.505 317.508 517.087 316.683C516.674 315.852 516.468 314.803 516.468 313.536C516.468 312.238 516.679 311.154 517.102 310.284C517.525 309.414 518.086 308.763 518.787 308.33C519.493 307.898 520.266 307.681 521.107 307.681C521.748 307.681 522.285 307.791 522.717 308.01C523.15 308.223 523.498 308.492 523.761 308.815C524.03 309.133 524.236 309.446 524.38 309.755H524.5V307.831H527.654V319.397C527.654 320.371 527.416 321.187 526.938 321.843C526.461 322.499 525.8 322.991 524.955 323.32C524.114 323.653 523.148 323.819 522.054 323.819ZM522.121 316.735C522.633 316.735 523.065 316.608 523.418 316.354C523.776 316.096 524.05 315.728 524.239 315.251C524.433 314.768 524.53 314.192 524.53 313.521C524.53 312.849 524.435 312.268 524.246 311.776C524.057 311.278 523.784 310.893 523.426 310.62C523.068 310.346 522.633 310.21 522.121 310.21C521.599 310.21 521.159 310.351 520.801 310.635C520.443 310.913 520.172 311.301 519.988 311.798C519.804 312.295 519.712 312.869 519.712 313.521C519.712 314.182 519.804 314.754 519.988 315.236C520.177 315.713 520.448 316.083 520.801 316.347C521.159 316.605 521.599 316.735 522.121 316.735Z" fill="#282828"/>
<mask id="path-15-inside-5_323_898" fill="white">
<path d="M551.387 410.702C551.387 422.945 547.757 434.912 540.956 445.091C534.154 455.27 524.487 463.204 513.177 467.889C501.867 472.574 489.421 473.799 477.414 471.411C465.407 469.023 454.378 463.127 445.721 454.471C437.065 445.814 431.169 434.785 428.781 422.778C426.393 410.771 427.619 398.326 432.303 387.015C436.988 375.705 444.922 366.038 455.101 359.236C465.28 352.435 477.247 348.805 489.49 348.805V366.669C480.781 366.669 472.267 369.251 465.026 374.09C457.785 378.928 452.141 385.805 448.808 393.852C445.475 401.898 444.603 410.751 446.302 419.293C448.001 427.835 452.195 435.681 458.353 441.839C464.511 447.997 472.357 452.191 480.899 453.89C489.441 455.589 498.294 454.717 506.341 451.384C514.387 448.052 521.264 442.408 526.102 435.166C530.941 427.925 533.523 419.412 533.523 410.702H551.387Z"/>
</mask>
<path d="M551.387 410.702C551.387 422.945 547.757 434.912 540.956 445.091C534.154 455.27 524.487 463.204 513.177 467.889C501.867 472.574 489.421 473.799 477.414 471.411C465.407 469.023 454.378 463.127 445.721 454.471C437.065 445.814 431.169 434.785 428.781 422.778C426.393 410.771 427.619 398.326 432.303 387.015C436.988 375.705 444.922 366.038 455.101 359.236C465.28 352.435 477.247 348.805 489.49 348.805V366.669C480.781 366.669 472.267 369.251 465.026 374.09C457.785 378.928 452.141 385.805 448.808 393.852C445.475 401.898 444.603 410.751 446.302 419.293C448.001 427.835 452.195 435.681 458.353 441.839C464.511 447.997 472.357 452.191 480.899 453.89C489.441 455.589 498.294 454.717 506.341 451.384C514.387 448.052 521.264 442.408 526.102 435.166C530.941 427.925 533.523 419.412 533.523 410.702H551.387Z" stroke="#7BEA6D" stroke-width="37.8415" mask="url(#path-15-inside-5_323_898)"/>
<mask id="path-16-inside-6_323_898" fill="white">
<path d="M551.387 410.702C551.387 402.574 549.786 394.525 546.676 387.015C543.565 379.505 539.006 372.682 533.258 366.934C527.51 361.186 520.687 356.627 513.177 353.516C505.667 350.406 497.618 348.805 489.49 348.805V359.682C496.19 359.682 502.824 361.002 509.014 363.566C515.204 366.13 520.829 369.888 525.566 374.626C530.304 379.364 534.062 384.988 536.626 391.178C539.19 397.368 540.51 404.002 540.51 410.702H551.387Z"/>
</mask>
<path d="M551.387 410.702C551.387 402.574 549.786 394.525 546.676 387.015C543.565 379.505 539.006 372.682 533.258 366.934C527.51 361.186 520.687 356.627 513.177 353.516C505.667 350.406 497.618 348.805 489.49 348.805V359.682C496.19 359.682 502.824 361.002 509.014 363.566C515.204 366.13 520.829 369.888 525.566 374.626C530.304 379.364 534.062 384.988 536.626 391.178C539.19 397.368 540.51 404.002 540.51 410.702H551.387Z" stroke="black" stroke-opacity="0.2" stroke-width="37.8415" mask="url(#path-16-inside-6_323_898)"/>
<path d="M474.802 416.15C474.017 416.145 473.258 416.013 472.528 415.755C471.802 415.496 471.15 415.076 470.574 414.495C469.997 413.913 469.54 413.142 469.202 412.183C468.868 411.223 468.702 410.045 468.702 408.648C468.707 407.365 468.854 406.219 469.142 405.21C469.435 404.196 469.853 403.336 470.395 402.63C470.942 401.924 471.595 401.387 472.356 401.019C473.117 400.646 473.969 400.46 474.914 400.46C475.933 400.46 476.833 400.659 477.614 401.056C478.394 401.449 479.02 401.984 479.493 402.66C479.97 403.336 480.258 404.094 480.358 404.934H477.174C477.049 404.402 476.788 403.985 476.39 403.681C475.993 403.378 475.501 403.227 474.914 403.227C473.92 403.227 473.164 403.659 472.647 404.524C472.135 405.389 471.874 406.565 471.864 408.051H471.968C472.197 407.599 472.505 407.214 472.893 406.896C473.286 406.572 473.731 406.326 474.228 406.157C474.73 405.983 475.259 405.896 475.816 405.896C476.721 405.896 477.527 406.11 478.232 406.538C478.938 406.96 479.495 407.542 479.903 408.283C480.311 409.023 480.514 409.871 480.514 410.826C480.514 411.86 480.273 412.779 479.791 413.585C479.314 414.39 478.645 415.022 477.785 415.479C476.93 415.931 475.936 416.155 474.802 416.15ZM474.787 413.615C475.284 413.615 475.729 413.495 476.122 413.257C476.515 413.018 476.823 412.695 477.047 412.287C477.27 411.88 477.382 411.422 477.382 410.915C477.382 410.408 477.27 409.953 477.047 409.55C476.828 409.148 476.525 408.827 476.137 408.588C475.749 408.35 475.307 408.23 474.81 408.23C474.437 408.23 474.091 408.3 473.773 408.439C473.46 408.578 473.184 408.772 472.945 409.021C472.712 409.27 472.528 409.558 472.393 409.886C472.259 410.209 472.192 410.555 472.192 410.923C472.192 411.415 472.304 411.865 472.528 412.272C472.756 412.68 473.064 413.006 473.452 413.249C473.845 413.493 474.29 413.615 474.787 413.615ZM488.792 416.277C487.509 416.272 486.406 415.956 485.481 415.33C484.561 414.703 483.853 413.796 483.356 412.608C482.864 411.42 482.62 409.99 482.625 408.32C482.625 406.654 482.871 405.235 483.363 404.062C483.86 402.888 484.569 401.996 485.489 401.385C486.413 400.768 487.514 400.46 488.792 400.46C490.07 400.46 491.169 400.768 492.088 401.385C493.013 402.001 493.724 402.896 494.221 404.069C494.718 405.238 494.964 406.654 494.959 408.32C494.959 409.995 494.711 411.427 494.214 412.615C493.721 413.804 493.015 414.711 492.096 415.337C491.176 415.964 490.075 416.277 488.792 416.277ZM488.792 413.6C489.667 413.6 490.366 413.16 490.888 412.28C491.41 411.4 491.668 410.08 491.663 408.32C491.663 407.162 491.544 406.197 491.305 405.426C491.072 404.656 490.739 404.077 490.306 403.689C489.878 403.301 489.374 403.107 488.792 403.107C487.922 403.107 487.226 403.542 486.704 404.412C486.182 405.282 485.919 406.585 485.914 408.32C485.914 409.493 486.03 410.473 486.264 411.258C486.503 412.039 486.838 412.625 487.271 413.018C487.703 413.406 488.21 413.6 488.792 413.6ZM505.622 413.078V412.272C505.622 411.661 505.751 411.099 506.009 410.587C506.273 410.07 506.653 409.657 507.15 409.349C507.652 409.036 508.264 408.879 508.985 408.879C509.716 408.879 510.33 409.033 510.827 409.342C511.329 409.65 511.707 410.062 511.96 410.58C512.219 411.092 512.348 411.656 512.348 412.272V413.078C512.348 413.689 512.219 414.254 511.96 414.771C511.702 415.283 511.322 415.693 510.819 416.001C510.317 416.314 509.706 416.471 508.985 416.471C508.254 416.471 507.64 416.314 507.143 416.001C506.646 415.693 506.268 415.283 506.009 414.771C505.751 414.254 505.622 413.689 505.622 413.078ZM507.792 412.272V413.078C507.792 413.431 507.876 413.764 508.045 414.077C508.219 414.39 508.532 414.547 508.985 414.547C509.437 414.547 509.746 414.393 509.91 414.085C510.079 413.776 510.163 413.441 510.163 413.078V412.272C510.163 411.909 510.084 411.571 509.924 411.258C509.765 410.945 509.452 410.788 508.985 410.788C508.537 410.788 508.227 410.945 508.053 411.258C507.879 411.571 507.792 411.909 507.792 412.272ZM497.784 404.338V403.532C497.784 402.916 497.916 402.352 498.179 401.839C498.443 401.322 498.823 400.91 499.32 400.602C499.822 400.293 500.429 400.139 501.14 400.139C501.875 400.139 502.492 400.293 502.989 400.602C503.486 400.91 503.864 401.322 504.123 401.839C504.381 402.352 504.51 402.916 504.51 403.532V404.338C504.51 404.954 504.379 405.518 504.115 406.031C503.857 406.543 503.476 406.953 502.974 407.261C502.477 407.564 501.866 407.716 501.14 407.716C500.414 407.716 499.8 407.562 499.298 407.254C498.801 406.94 498.423 406.53 498.164 406.023C497.911 405.511 497.784 404.949 497.784 404.338ZM499.969 403.532V404.338C499.969 404.701 500.053 405.036 500.222 405.344C500.396 405.653 500.702 405.807 501.14 405.807C501.597 405.807 501.908 405.653 502.072 405.344C502.241 405.036 502.325 404.701 502.325 404.338V403.532C502.325 403.169 502.246 402.831 502.087 402.518C501.928 402.205 501.612 402.048 501.14 402.048C500.697 402.048 500.391 402.207 500.222 402.526C500.053 402.844 499.969 403.179 499.969 403.532ZM498.768 415.941L509.268 400.669H511.222L500.722 415.941H498.768Z" fill="#282828"/>
<rect x="766.66" y="334.305" width="23.3773" height="108.836" fill="#7BEA6D"/>
<rect x="766.66" y="334.305" width="23.3773" height="46.9294" fill="#2E90FA"/>
<rect width="23.3773" height="26.9594" transform="matrix(1 0 0 -1 766.66 408.195)" fill="#12B76A"/>
<path d="M767.322 464.723V452.822H774.458V454.1H768.763V458.121H773.923V459.4H768.763V464.723H767.322ZM779.828 464.909C778.967 464.909 778.226 464.719 777.602 464.339C776.982 463.956 776.504 463.421 776.167 462.735C775.833 462.046 775.667 461.244 775.667 460.329C775.667 459.415 775.833 458.609 776.167 457.912C776.504 457.211 776.972 456.665 777.573 456.273C778.177 455.878 778.882 455.681 779.688 455.681C780.153 455.681 780.612 455.758 781.065 455.913C781.519 456.068 781.931 456.32 782.303 456.668C782.675 457.013 782.971 457.47 783.192 458.04C783.413 458.609 783.523 459.311 783.523 460.144V460.725H776.643V459.539H782.129C782.129 459.036 782.028 458.586 781.827 458.191C781.629 457.796 781.346 457.484 780.978 457.255C780.614 457.027 780.184 456.913 779.688 456.913C779.142 456.913 778.669 457.048 778.27 457.319C777.875 457.587 777.571 457.935 777.358 458.365C777.145 458.795 777.038 459.256 777.038 459.748V460.539C777.038 461.213 777.154 461.784 777.387 462.253C777.623 462.718 777.951 463.072 778.369 463.316C778.787 463.557 779.274 463.677 779.828 463.677C780.188 463.677 780.513 463.626 780.804 463.526C781.098 463.421 781.352 463.266 781.565 463.061C781.778 462.851 781.943 462.592 782.059 462.282L783.384 462.654C783.244 463.103 783.01 463.498 782.681 463.839C782.351 464.176 781.945 464.44 781.46 464.63C780.976 464.816 780.432 464.909 779.828 464.909ZM785.796 464.723V452.822H787.167V457.215H787.283C787.384 457.06 787.523 456.862 787.702 456.622C787.884 456.378 788.143 456.161 788.48 455.971C788.821 455.777 789.282 455.681 789.863 455.681C790.615 455.681 791.277 455.868 791.851 456.244C792.424 456.62 792.872 457.153 793.193 457.842C793.515 458.532 793.675 459.345 793.675 460.283C793.675 461.228 793.515 462.048 793.193 462.741C792.872 463.431 792.426 463.965 791.857 464.345C791.287 464.721 790.63 464.909 789.887 464.909C789.313 464.909 788.854 464.814 788.509 464.624C788.165 464.43 787.899 464.211 787.713 463.967C787.527 463.719 787.384 463.514 787.283 463.351H787.12V464.723H785.796ZM787.144 460.26C787.144 460.934 787.242 461.528 787.44 462.044C787.638 462.555 787.926 462.956 788.306 463.247C788.686 463.533 789.15 463.677 789.701 463.677C790.274 463.677 790.752 463.526 791.136 463.223C791.523 462.917 791.814 462.507 792.008 461.991C792.205 461.472 792.304 460.895 792.304 460.26C792.304 459.632 792.207 459.067 792.013 458.563C791.824 458.055 791.535 457.654 791.148 457.36C790.764 457.062 790.282 456.913 789.701 456.913C789.143 456.913 788.674 457.054 788.294 457.337C787.915 457.616 787.628 458.007 787.434 458.511C787.241 459.01 787.144 459.593 787.144 460.26Z" fill="#282828"/>
<rect x="834.453" y="278.492" width="23.3773" height="164.65" fill="#7BEA6D"/>
<rect x="834.453" y="278.492" width="23.3773" height="70.9957" fill="#2E90FA"/>
<rect width="23.3773" height="40.7848" transform="matrix(1 0 0 -1 834.453 390.273)" fill="#12B76A"/>
<path d="M838.232 452.822H839.952L843.997 462.7H844.136L848.181 452.822H849.901V464.723H848.553V455.681H848.436L844.717 464.723H843.416L839.697 455.681H839.58V464.723H838.232V452.822ZM855.231 464.932C854.666 464.932 854.152 464.825 853.691 464.612C853.23 464.395 852.864 464.083 852.593 463.677C852.322 463.266 852.186 462.77 852.186 462.189C852.186 461.678 852.287 461.263 852.488 460.945C852.69 460.624 852.959 460.372 853.296 460.19C853.633 460.008 854.005 459.872 854.412 459.783C854.822 459.69 855.235 459.617 855.65 459.562C856.192 459.493 856.632 459.44 856.969 459.405C857.31 459.367 857.558 459.303 857.712 459.214C857.871 459.125 857.951 458.97 857.951 458.749V458.702C857.951 458.129 857.794 457.683 857.48 457.366C857.17 457.048 856.699 456.889 856.068 456.889C855.413 456.889 854.9 457.033 854.528 457.319C854.156 457.606 853.895 457.912 853.743 458.237L852.442 457.773C852.674 457.23 852.984 456.808 853.372 456.506C853.763 456.2 854.189 455.987 854.65 455.867C855.115 455.743 855.572 455.681 856.021 455.681C856.308 455.681 856.637 455.715 857.009 455.785C857.385 455.851 857.747 455.989 858.096 456.198C858.449 456.407 858.741 456.723 858.973 457.145C859.206 457.567 859.322 458.133 859.322 458.842V464.723H857.951V463.514H857.881C857.788 463.708 857.633 463.915 857.416 464.136C857.199 464.357 856.911 464.544 856.55 464.699C856.19 464.854 855.75 464.932 855.231 464.932ZM855.44 463.7C855.983 463.7 856.44 463.593 856.812 463.38C857.188 463.167 857.47 462.892 857.66 462.555C857.854 462.218 857.951 461.864 857.951 461.492V460.236C857.893 460.306 857.765 460.37 857.567 460.428C857.373 460.482 857.149 460.531 856.893 460.574C856.641 460.612 856.395 460.647 856.155 460.678C855.919 460.705 855.727 460.728 855.58 460.748C855.223 460.794 854.89 460.87 854.58 460.974C854.274 461.075 854.026 461.228 853.836 461.434C853.65 461.635 853.558 461.91 853.558 462.259C853.558 462.735 853.734 463.096 854.086 463.34C854.443 463.58 854.894 463.7 855.44 463.7ZM861.825 464.723V455.797H863.15V457.145H863.243C863.406 456.703 863.7 456.345 864.126 456.07C864.553 455.795 865.033 455.657 865.568 455.657C865.668 455.657 865.794 455.659 865.945 455.663C866.096 455.667 866.211 455.673 866.288 455.681V457.075C866.242 457.064 866.135 457.046 865.969 457.023C865.806 456.996 865.633 456.982 865.451 456.982C865.018 456.982 864.63 457.073 864.289 457.255C863.952 457.434 863.685 457.682 863.487 457.999C863.294 458.313 863.197 458.671 863.197 459.074V464.723H861.825Z" fill="#282828"/>
<rect x="902.248" y="161.285" width="23.3773" height="281.858" fill="#7BEA6D"/>
<rect x="902.248" y="161.285" width="23.3773" height="121.535" fill="#2E90FA"/>
<rect width="23.3773" height="69.818" transform="matrix(1 0 0 -1 902.248 352.637)" fill="#12B76A"/>
<path d="M903.398 464.723H901.887L906.257 452.822H907.745L912.115 464.723H910.604L907.047 454.704H906.954L903.398 464.723ZM903.956 460.074H910.046V461.352H903.956V460.074ZM913.782 468.07V455.797H915.107V457.215H915.27C915.371 457.06 915.51 456.862 915.689 456.622C915.871 456.378 916.13 456.161 916.467 455.971C916.808 455.777 917.269 455.681 917.85 455.681C918.602 455.681 919.264 455.868 919.838 456.244C920.411 456.62 920.858 457.153 921.18 457.842C921.502 458.532 921.662 459.345 921.662 460.283C921.662 461.228 921.502 462.048 921.18 462.741C920.858 463.431 920.413 463.965 919.843 464.345C919.274 464.721 918.617 464.909 917.874 464.909C917.3 464.909 916.841 464.814 916.496 464.624C916.151 464.43 915.886 464.211 915.7 463.967C915.514 463.719 915.371 463.514 915.27 463.351H915.154V468.07H913.782ZM915.131 460.26C915.131 460.934 915.229 461.528 915.427 462.044C915.625 462.555 915.913 462.956 916.293 463.247C916.673 463.533 917.137 463.677 917.688 463.677C918.261 463.677 918.739 463.526 919.123 463.223C919.51 462.917 919.801 462.507 919.995 461.991C920.192 461.472 920.291 460.895 920.291 460.26C920.291 459.632 920.194 459.067 920 458.563C919.811 458.055 919.522 457.654 919.135 457.36C918.751 457.062 918.269 456.913 917.688 456.913C917.13 456.913 916.661 457.054 916.281 457.337C915.902 457.616 915.615 458.007 915.421 458.511C915.228 459.01 915.131 459.593 915.131 460.26ZM923.754 464.723V455.797H925.079V457.145H925.172C925.335 456.703 925.629 456.345 926.056 456.07C926.482 455.795 926.962 455.657 927.497 455.657C927.597 455.657 927.723 455.659 927.874 455.663C928.026 455.667 928.14 455.673 928.217 455.681V457.075C928.171 457.064 928.064 457.046 927.898 457.023C927.735 456.996 927.563 456.982 927.38 456.982C926.947 456.982 926.559 457.073 926.218 457.255C925.881 457.434 925.614 457.682 925.416 457.999C925.223 458.313 925.126 458.671 925.126 459.074V464.723H923.754Z" fill="#282828"/>
<rect x="970.043" y="121.285" width="23.3773" height="321.857" fill="#7BEA6D"/>
<rect x="970.043" y="121.285" width="23.3773" height="138.783" fill="#2E90FA"/>
<rect width="23.3773" height="79.7261" transform="matrix(1 0 0 -1 970.043 339.793)" fill="#12B76A"/>
<path d="M973.043 452.822H974.763L978.807 462.7H978.947L982.991 452.822H984.711V464.723H983.363V455.681H983.247L979.528 464.723H978.226L974.507 455.681H974.391V464.723H973.043V452.822ZM990.042 464.932C989.476 464.932 988.963 464.825 988.502 464.612C988.041 464.395 987.675 464.083 987.403 463.677C987.132 463.266 986.997 462.77 986.997 462.189C986.997 461.678 987.097 461.263 987.299 460.945C987.5 460.624 987.77 460.372 988.107 460.19C988.444 460.008 988.816 459.872 989.222 459.783C989.633 459.69 990.046 459.617 990.46 459.562C991.002 459.493 991.442 459.44 991.779 459.405C992.12 459.367 992.368 459.303 992.523 459.214C992.682 459.125 992.761 458.97 992.761 458.749V458.702C992.761 458.129 992.604 457.683 992.291 457.366C991.981 457.048 991.51 456.889 990.878 456.889C990.224 456.889 989.71 457.033 989.339 457.319C988.967 457.606 988.705 457.912 988.554 458.237L987.252 457.773C987.485 457.23 987.795 456.808 988.182 456.506C988.573 456.2 989 455.987 989.461 455.867C989.925 455.743 990.383 455.681 990.832 455.681C991.119 455.681 991.448 455.715 991.82 455.785C992.196 455.851 992.558 455.989 992.907 456.198C993.259 456.407 993.552 456.723 993.784 457.145C994.016 457.567 994.133 458.133 994.133 458.842V464.723H992.761V463.514H992.692C992.599 463.708 992.444 463.915 992.227 464.136C992.01 464.357 991.721 464.544 991.361 464.699C991.001 464.854 990.561 464.932 990.042 464.932ZM990.251 463.7C990.793 463.7 991.25 463.593 991.622 463.38C991.998 463.167 992.281 462.892 992.471 462.555C992.664 462.218 992.761 461.864 992.761 461.492V460.236C992.703 460.306 992.575 460.37 992.378 460.428C992.184 460.482 991.959 460.531 991.704 460.574C991.452 460.612 991.206 460.647 990.966 460.678C990.729 460.705 990.538 460.728 990.39 460.748C990.034 460.794 989.701 460.87 989.391 460.974C989.085 461.075 988.837 461.228 988.647 461.434C988.461 461.635 988.368 461.91 988.368 462.259C988.368 462.735 988.544 463.096 988.897 463.34C989.253 463.58 989.705 463.7 990.251 463.7ZM997.2 468.07C996.967 468.07 996.76 468.05 996.578 468.012C996.396 467.977 996.27 467.942 996.2 467.907L996.549 466.698C996.882 466.784 997.176 466.815 997.432 466.791C997.688 466.768 997.914 466.654 998.112 466.449C998.313 466.247 998.497 465.92 998.664 465.466L998.92 464.769L995.619 455.797H997.107L999.57 462.91H999.663L1002.13 455.797H1003.61L999.826 466.024C999.656 466.485 999.445 466.867 999.193 467.169C998.941 467.475 998.648 467.702 998.315 467.849C997.986 467.996 997.614 468.07 997.2 468.07Z" fill="#282828"/>
<rect x="1037.06" y="251.516" width="23.3773" height="191.626" fill="#7BEA6D"/>
<rect x="1037.06" y="251.516" width="23.3773" height="82.6278" fill="#2E90FA"/>
<rect width="23.3773" height="47.467" transform="matrix(1 0 0 -1 1037.06 381.609)" fill="#12B76A"/>
<path d="M1046.95 452.822H1048.39V461.329C1048.39 462.088 1048.25 462.733 1047.97 463.264C1047.69 463.795 1047.3 464.198 1046.79 464.473C1046.29 464.748 1045.69 464.885 1045 464.885C1044.35 464.885 1043.77 464.767 1043.26 464.531C1042.75 464.291 1042.35 463.95 1042.06 463.508C1041.77 463.066 1041.63 462.542 1041.63 461.933H1043.05C1043.05 462.27 1043.13 462.565 1043.3 462.817C1043.47 463.065 1043.7 463.258 1043.99 463.398C1044.29 463.537 1044.62 463.607 1045 463.607C1045.41 463.607 1045.77 463.52 1046.06 463.345C1046.35 463.171 1046.57 462.915 1046.72 462.578C1046.87 462.237 1046.95 461.821 1046.95 461.329V452.822ZM1056.72 461.073V455.797H1058.09V464.723H1056.72V463.212H1056.63C1056.42 463.665 1056.09 464.051 1055.65 464.368C1055.21 464.682 1054.65 464.839 1053.98 464.839C1053.42 464.839 1052.92 464.717 1052.49 464.473C1052.06 464.225 1051.71 463.853 1051.47 463.357C1051.22 462.857 1051.09 462.228 1051.09 461.468V455.797H1052.47V461.375C1052.47 462.026 1052.65 462.545 1053.01 462.933C1053.38 463.32 1053.85 463.514 1054.42 463.514C1054.76 463.514 1055.11 463.427 1055.46 463.252C1055.82 463.078 1056.11 462.811 1056.35 462.451C1056.6 462.09 1056.72 461.631 1056.72 461.073ZM1061.97 459.353V464.723H1060.6V455.797H1061.93V457.191H1062.04C1062.25 456.738 1062.57 456.374 1063 456.099C1063.42 455.82 1063.97 455.681 1064.65 455.681C1065.25 455.681 1065.78 455.805 1066.23 456.052C1066.69 456.297 1067.04 456.668 1067.29 457.168C1067.54 457.664 1067.67 458.292 1067.67 459.051V464.723H1066.3V459.144C1066.3 458.443 1066.12 457.897 1065.75 457.505C1065.39 457.11 1064.89 456.913 1064.25 456.913C1063.81 456.913 1063.42 457.007 1063.08 457.197C1062.74 457.387 1062.47 457.664 1062.27 458.028C1062.07 458.392 1061.97 458.834 1061.97 459.353Z" fill="#282828"/>
<rect x="1104.07" y="291.516" width="23.3773" height="151.626" fill="#7BEA6D"/>
<rect x="1104.07" y="291.516" width="23.3773" height="65.3802" fill="#2E90FA"/>
<rect width="23.3773" height="37.5588" transform="matrix(1 0 0 -1 1104.07 394.453)" fill="#12B76A"/>
<path d="M1111.63 452.822H1113.07V461.329C1113.07 462.088 1112.93 462.733 1112.65 463.264C1112.37 463.795 1111.98 464.198 1111.47 464.473C1110.96 464.748 1110.36 464.885 1109.68 464.885C1109.02 464.885 1108.45 464.767 1107.94 464.531C1107.43 464.291 1107.03 463.95 1106.74 463.508C1106.45 463.066 1106.3 462.542 1106.3 461.933H1107.72C1107.72 462.27 1107.81 462.565 1107.97 462.817C1108.14 463.065 1108.38 463.258 1108.67 463.398C1108.96 463.537 1109.3 463.607 1109.68 463.607C1110.09 463.607 1110.44 463.52 1110.73 463.345C1111.02 463.171 1111.24 462.915 1111.4 462.578C1111.55 462.237 1111.63 461.821 1111.63 461.329V452.822ZM1121.4 461.073V455.797H1122.77V464.723H1121.4V463.212H1121.3C1121.09 463.665 1120.77 464.051 1120.33 464.368C1119.89 464.682 1119.33 464.839 1118.65 464.839C1118.1 464.839 1117.6 464.717 1117.17 464.473C1116.73 464.225 1116.39 463.853 1116.14 463.357C1115.9 462.857 1115.77 462.228 1115.77 461.468V455.797H1117.14V461.375C1117.14 462.026 1117.32 462.545 1117.69 462.933C1118.06 463.32 1118.53 463.514 1119.1 463.514C1119.44 463.514 1119.78 463.427 1120.14 463.252C1120.49 463.078 1120.79 462.811 1121.03 462.451C1121.27 462.09 1121.4 461.631 1121.4 461.073ZM1126.65 452.822V464.723H1125.28V452.822H1126.65Z" fill="#282828"/>
<rect x="1171.09" y="259.887" width="23.3773" height="183.254" fill="#7BEA6D"/>
<rect x="1171.09" y="259.887" width="23.3773" height="79.0178" fill="#2E90FA"/>
<rect width="23.3773" height="45.3932" transform="matrix(1 0 0 -1 1171.09 384.297)" fill="#12B76A"/>
<path d="M1174.57 464.723H1173.06L1177.43 452.822H1178.92L1183.29 464.723H1181.78L1178.22 454.704H1178.13L1174.57 464.723ZM1175.13 460.074H1181.22V461.352H1175.13V460.074ZM1190.58 461.073V455.797H1191.96V464.723H1190.58V463.212H1190.49C1190.28 463.665 1189.96 464.051 1189.52 464.368C1189.07 464.682 1188.52 464.839 1187.84 464.839C1187.28 464.839 1186.79 464.717 1186.35 464.473C1185.92 464.225 1185.58 463.853 1185.33 463.357C1185.08 462.857 1184.96 462.228 1184.96 461.468V455.797H1186.33V461.375C1186.33 462.026 1186.51 462.545 1186.88 462.933C1187.24 463.32 1187.71 463.514 1188.28 463.514C1188.62 463.514 1188.97 463.427 1189.32 463.252C1189.68 463.078 1189.98 462.811 1190.22 462.451C1190.46 462.09 1190.58 461.631 1190.58 461.073ZM1198.07 468.256C1197.41 468.256 1196.84 468.171 1196.36 468C1195.89 467.834 1195.49 467.613 1195.17 467.338C1194.86 467.066 1194.61 466.776 1194.42 466.466L1195.51 465.699C1195.64 465.862 1195.79 466.048 1195.98 466.257C1196.17 466.47 1196.43 466.654 1196.76 466.809C1197.1 466.968 1197.53 467.047 1198.07 467.047C1198.79 467.047 1199.39 466.873 1199.85 466.524C1200.32 466.175 1200.56 465.629 1200.56 464.885V463.072H1200.44C1200.34 463.235 1200.2 463.436 1200.01 463.677C1199.83 463.913 1199.57 464.124 1199.22 464.31C1198.88 464.492 1198.42 464.583 1197.84 464.583C1197.12 464.583 1196.47 464.413 1195.9 464.072C1195.33 463.731 1194.88 463.235 1194.54 462.584C1194.21 461.933 1194.05 461.143 1194.05 460.213C1194.05 459.299 1194.21 458.503 1194.53 457.825C1194.85 457.143 1195.3 456.616 1195.87 456.244C1196.45 455.868 1197.11 455.681 1197.86 455.681C1198.44 455.681 1198.9 455.777 1199.24 455.971C1199.59 456.161 1199.85 456.378 1200.03 456.622C1200.22 456.862 1200.36 457.06 1200.46 457.215H1200.6V455.797H1201.93V464.978C1201.93 465.745 1201.75 466.369 1201.41 466.85C1201.06 467.334 1200.6 467.688 1200.01 467.913C1199.43 468.142 1198.78 468.256 1198.07 468.256ZM1198.02 463.351C1198.57 463.351 1199.04 463.225 1199.42 462.974C1199.8 462.722 1200.09 462.359 1200.28 461.887C1200.48 461.414 1200.58 460.849 1200.58 460.19C1200.58 459.547 1200.48 458.979 1200.29 458.487C1200.1 457.995 1199.81 457.61 1199.43 457.331C1199.05 457.052 1198.58 456.913 1198.02 456.913C1197.44 456.913 1196.96 457.06 1196.57 457.354C1196.19 457.649 1195.9 458.044 1195.71 458.54C1195.52 459.036 1195.42 459.586 1195.42 460.19C1195.42 460.81 1195.52 461.358 1195.71 461.835C1195.91 462.307 1196.2 462.679 1196.58 462.95C1196.97 463.218 1197.45 463.351 1198.02 463.351Z" fill="#282828"/>
<rect x="1228.39" y="188.137" width="23.3773" height="255.007" fill="#7BEA6D"/>
<rect x="1228.39" y="188.137" width="23.3773" height="109.957" fill="#2E90FA"/>
<rect width="23.3773" height="63.1669" transform="matrix(1 0 0 -1 1228.39 361.262)" fill="#12B76A"/>
<path d="M1237.89 455.801C1237.83 455.212 1237.54 454.755 1237.05 454.429C1236.55 454.104 1235.94 453.941 1235.22 453.941C1234.69 453.941 1234.23 454.026 1233.84 454.197C1233.45 454.367 1233.14 454.602 1232.92 454.9C1232.7 455.198 1232.6 455.537 1232.6 455.917C1232.6 456.235 1232.67 456.508 1232.82 456.736C1232.98 456.961 1233.17 457.149 1233.41 457.3C1233.65 457.447 1233.91 457.569 1234.17 457.666C1234.43 457.759 1234.68 457.835 1234.9 457.893L1236.11 458.218C1236.42 458.299 1236.76 458.412 1237.14 458.555C1237.52 458.699 1237.89 458.894 1238.24 459.142C1238.59 459.386 1238.88 459.7 1239.11 460.083C1239.34 460.467 1239.45 460.938 1239.45 461.496C1239.45 462.139 1239.28 462.72 1238.95 463.239C1238.61 463.758 1238.13 464.171 1237.48 464.477C1236.84 464.783 1236.07 464.936 1235.15 464.936C1234.3 464.936 1233.56 464.798 1232.94 464.523C1232.32 464.248 1231.83 463.865 1231.47 463.373C1231.12 462.881 1230.92 462.309 1230.88 461.658H1232.36C1232.4 462.108 1232.55 462.48 1232.82 462.774C1233.08 463.065 1233.42 463.282 1233.83 463.425C1234.24 463.564 1234.68 463.634 1235.15 463.634C1235.7 463.634 1236.2 463.545 1236.63 463.367C1237.07 463.185 1237.42 462.933 1237.67 462.611C1237.93 462.286 1238.06 461.906 1238.06 461.472C1238.06 461.077 1237.95 460.756 1237.73 460.508C1237.51 460.26 1237.22 460.058 1236.85 459.903C1236.49 459.748 1236.11 459.613 1235.69 459.497L1234.22 459.078C1233.29 458.811 1232.56 458.429 1232.01 457.933C1231.47 457.437 1231.2 456.789 1231.2 455.987C1231.2 455.32 1231.38 454.739 1231.74 454.243C1232.11 453.744 1232.59 453.356 1233.21 453.081C1233.82 452.802 1234.51 452.663 1235.27 452.663C1236.04 452.663 1236.72 452.8 1237.31 453.075C1237.91 453.346 1238.38 453.718 1238.73 454.191C1239.08 454.664 1239.27 455.2 1239.29 455.801H1237.89ZM1245.38 464.913C1244.52 464.913 1243.78 464.723 1243.15 464.343C1242.53 463.959 1242.05 463.425 1241.72 462.739C1241.38 462.05 1241.22 461.248 1241.22 460.333C1241.22 459.419 1241.38 458.613 1241.72 457.916C1242.05 457.215 1242.52 456.668 1243.12 456.277C1243.73 455.882 1244.43 455.684 1245.24 455.684C1245.7 455.684 1246.16 455.762 1246.62 455.917C1247.07 456.072 1247.48 456.324 1247.85 456.672C1248.23 457.017 1248.52 457.474 1248.74 458.044C1248.96 458.613 1249.07 459.314 1249.07 460.147V460.729H1242.19V459.543H1247.68C1247.68 459.039 1247.58 458.59 1247.38 458.195C1247.18 457.8 1246.9 457.488 1246.53 457.259C1246.16 457.031 1245.73 456.916 1245.24 456.916C1244.69 456.916 1244.22 457.052 1243.82 457.323C1243.43 457.591 1243.12 457.939 1242.91 458.369C1242.7 458.799 1242.59 459.26 1242.59 459.752V460.543C1242.59 461.217 1242.71 461.788 1242.94 462.257C1243.17 462.722 1243.5 463.076 1243.92 463.32C1244.34 463.56 1244.82 463.681 1245.38 463.681C1245.74 463.681 1246.06 463.63 1246.35 463.529C1246.65 463.425 1246.9 463.27 1247.12 463.065C1247.33 462.855 1247.49 462.596 1247.61 462.286L1248.93 462.658C1248.8 463.107 1248.56 463.502 1248.23 463.843C1247.9 464.18 1247.5 464.444 1247.01 464.634C1246.53 464.82 1245.98 464.913 1245.38 464.913ZM1251.16 468.074V455.801H1252.49V457.219H1252.65C1252.75 457.064 1252.89 456.866 1253.07 456.626C1253.25 456.382 1253.51 456.165 1253.84 455.975C1254.19 455.781 1254.65 455.684 1255.23 455.684C1255.98 455.684 1256.64 455.872 1257.22 456.248C1257.79 456.624 1258.24 457.157 1258.56 457.846C1258.88 458.536 1259.04 459.349 1259.04 460.287C1259.04 461.232 1258.88 462.052 1258.56 462.745C1258.24 463.435 1257.79 463.969 1257.22 464.349C1256.65 464.725 1256 464.913 1255.25 464.913C1254.68 464.913 1254.22 464.818 1253.87 464.628C1253.53 464.434 1253.26 464.215 1253.08 463.971C1252.89 463.723 1252.75 463.518 1252.65 463.355H1252.53V468.074H1251.16ZM1252.51 460.264C1252.51 460.938 1252.61 461.532 1252.8 462.048C1253 462.559 1253.29 462.96 1253.67 463.251C1254.05 463.537 1254.52 463.681 1255.07 463.681C1255.64 463.681 1256.12 463.529 1256.5 463.227C1256.89 462.921 1257.18 462.511 1257.37 461.995C1257.57 461.476 1257.67 460.899 1257.67 460.264C1257.67 459.636 1257.57 459.07 1257.38 458.567C1257.19 458.059 1256.9 457.658 1256.51 457.364C1256.13 457.066 1255.65 456.916 1255.07 456.916C1254.51 456.916 1254.04 457.058 1253.66 457.341C1253.28 457.62 1252.99 458.011 1252.8 458.514C1252.61 459.014 1252.51 459.597 1252.51 460.264Z" fill="#282828"/>
<rect x="1285.69" y="259.887" width="23.3773" height="183.254" fill="#7BEA6D"/>
<rect x="1285.69" y="259.887" width="23.3773" height="79.0178" fill="#2E90FA"/>
<rect width="23.3773" height="45.3932" transform="matrix(1 0 0 -1 1285.69 384.297)" fill="#12B76A"/>
<path d="M1298.73 458.772C1298.73 460.027 1298.5 461.112 1298.05 462.026C1297.59 462.941 1296.97 463.646 1296.18 464.142C1295.39 464.637 1294.49 464.885 1293.47 464.885C1292.46 464.885 1291.56 464.637 1290.77 464.142C1289.98 463.646 1289.35 462.941 1288.9 462.026C1288.45 461.112 1288.22 460.027 1288.22 458.772C1288.22 457.517 1288.45 456.432 1288.9 455.518C1289.35 454.604 1289.98 453.898 1290.77 453.403C1291.56 452.907 1292.46 452.659 1293.47 452.659C1294.49 452.659 1295.39 452.907 1296.18 453.403C1296.97 453.898 1297.59 454.604 1298.05 455.518C1298.5 456.432 1298.73 457.517 1298.73 458.772ZM1297.33 458.772C1297.33 457.742 1297.16 456.872 1296.82 456.163C1296.48 455.454 1296.01 454.917 1295.43 454.553C1294.85 454.189 1294.2 454.007 1293.47 454.007C1292.75 454.007 1292.1 454.189 1291.52 454.553C1290.94 454.917 1290.47 455.454 1290.13 456.163C1289.79 456.872 1289.62 457.742 1289.62 458.772C1289.62 459.803 1289.79 460.672 1290.13 461.381C1290.47 462.09 1290.94 462.627 1291.52 462.991C1292.1 463.355 1292.75 463.537 1293.47 463.537C1294.2 463.537 1294.85 463.355 1295.43 462.991C1296.01 462.627 1296.48 462.09 1296.82 461.381C1297.16 460.672 1297.33 459.803 1297.33 458.772ZM1304.59 464.909C1303.75 464.909 1303.03 464.711 1302.43 464.316C1301.83 463.921 1301.36 463.376 1301.03 462.683C1300.71 461.989 1300.55 461.197 1300.55 460.306C1300.55 459.4 1300.71 458.6 1301.05 457.906C1301.38 457.209 1301.85 456.665 1302.45 456.273C1303.06 455.878 1303.76 455.681 1304.57 455.681C1305.2 455.681 1305.76 455.797 1306.26 456.029C1306.77 456.262 1307.18 456.587 1307.5 457.006C1307.82 457.424 1308.02 457.912 1308.1 458.47H1306.73C1306.63 458.063 1306.39 457.703 1306.03 457.389C1305.68 457.071 1305.2 456.913 1304.59 456.913C1304.06 456.913 1303.59 457.052 1303.18 457.331C1302.79 457.606 1302.47 457.995 1302.25 458.499C1302.03 458.999 1301.92 459.586 1301.92 460.26C1301.92 460.949 1302.03 461.55 1302.24 462.061C1302.46 462.573 1302.77 462.97 1303.17 463.252C1303.58 463.535 1304.05 463.677 1304.59 463.677C1304.95 463.677 1305.27 463.615 1305.56 463.491C1305.85 463.367 1306.1 463.189 1306.3 462.956C1306.5 462.724 1306.64 462.445 1306.73 462.119H1308.1C1308.02 462.646 1307.83 463.121 1307.53 463.543C1307.22 463.961 1306.82 464.295 1306.32 464.543C1305.83 464.787 1305.25 464.909 1304.59 464.909ZM1313.99 455.797V456.959H1309.36V455.797H1313.99ZM1310.71 453.658H1312.08V462.166C1312.08 462.553 1312.14 462.844 1312.25 463.037C1312.37 463.227 1312.51 463.355 1312.69 463.421C1312.87 463.483 1313.07 463.514 1313.27 463.514C1313.42 463.514 1313.54 463.506 1313.64 463.491C1313.74 463.471 1313.81 463.456 1313.87 463.444L1314.15 464.676C1314.06 464.711 1313.93 464.746 1313.76 464.781C1313.59 464.82 1313.38 464.839 1313.13 464.839C1312.74 464.839 1312.36 464.756 1311.99 464.589C1311.62 464.422 1311.31 464.169 1311.07 463.828C1310.83 463.487 1310.71 463.057 1310.71 462.538V453.658Z" fill="#282828"/>
<rect x="1342.99" y="163.066" width="23.3773" height="280.076" fill="#7BEA6D"/>
<rect x="1342.99" y="163.066" width="23.3773" height="120.767" fill="#2E90FA"/>
<rect width="23.3773" height="69.3766" transform="matrix(1 0 0 -1 1342.99 353.211)" fill="#12B76A"/>
<path d="M1355.42 452.822V464.723H1354.03L1347.54 455.378H1347.43V464.723H1345.99V452.822H1347.38L1353.89 462.189H1354.01V452.822H1355.42ZM1361.75 464.909C1360.94 464.909 1360.23 464.717 1359.63 464.333C1359.02 463.95 1358.55 463.413 1358.21 462.724C1357.87 462.034 1357.7 461.228 1357.7 460.306C1357.7 459.376 1357.87 458.565 1358.21 457.871C1358.55 457.178 1359.02 456.639 1359.63 456.256C1360.23 455.872 1360.94 455.681 1361.75 455.681C1362.55 455.681 1363.26 455.872 1363.86 456.256C1364.47 456.639 1364.94 457.178 1365.28 457.871C1365.62 458.565 1365.79 459.376 1365.79 460.306C1365.79 461.228 1365.62 462.034 1365.28 462.724C1364.94 463.413 1364.47 463.95 1363.86 464.333C1363.26 464.717 1362.55 464.909 1361.75 464.909ZM1361.75 463.677C1362.36 463.677 1362.86 463.52 1363.26 463.206C1363.65 462.892 1363.95 462.48 1364.14 461.968C1364.33 461.457 1364.42 460.903 1364.42 460.306C1364.42 459.71 1364.33 459.154 1364.14 458.638C1363.95 458.123 1363.65 457.707 1363.26 457.389C1362.86 457.071 1362.36 456.913 1361.75 456.913C1361.14 456.913 1360.63 457.071 1360.24 457.389C1359.84 457.707 1359.55 458.123 1359.36 458.638C1359.17 459.154 1359.07 459.71 1359.07 460.306C1359.07 460.903 1359.17 461.457 1359.36 461.968C1359.55 462.48 1359.84 462.892 1360.24 463.206C1360.63 463.52 1361.14 463.677 1361.75 463.677ZM1374.86 455.797L1371.56 464.723H1370.17L1366.87 455.797H1368.36L1370.82 462.91H1370.91L1373.38 455.797H1374.86Z" fill="#282828"/>
<rect x="1400.29" y="259.887" width="23.3773" height="183.254" fill="#7BEA6D"/>
<rect x="1400.29" y="259.887" width="23.3773" height="79.0178" fill="#2E90FA"/>
<rect width="23.3773" height="45.3932" transform="matrix(1 0 0 -1 1400.29 384.297)" fill="#12B76A"/>
<path d="M1406.96 464.723H1403.29V452.822H1407.12C1408.28 452.822 1409.26 453.06 1410.08 453.536C1410.91 454.009 1411.54 454.689 1411.97 455.576C1412.41 456.459 1412.63 457.517 1412.63 458.749C1412.63 459.989 1412.41 461.056 1411.97 461.951C1411.53 462.842 1410.88 463.528 1410.04 464.008C1409.19 464.484 1408.17 464.723 1406.96 464.723ZM1404.73 463.444H1406.87C1407.85 463.444 1408.67 463.254 1409.31 462.875C1409.96 462.495 1410.44 461.955 1410.76 461.253C1411.08 460.552 1411.24 459.717 1411.24 458.749C1411.24 457.788 1411.08 456.961 1410.76 456.267C1410.45 455.57 1409.98 455.036 1409.36 454.664C1408.73 454.288 1407.96 454.1 1407.03 454.1H1404.73V463.444ZM1418.6 464.909C1417.74 464.909 1417 464.719 1416.38 464.339C1415.76 463.956 1415.28 463.421 1414.94 462.735C1414.61 462.046 1414.44 461.244 1414.44 460.329C1414.44 459.415 1414.61 458.609 1414.94 457.912C1415.28 457.211 1415.75 456.665 1416.35 456.273C1416.95 455.878 1417.66 455.681 1418.46 455.681C1418.93 455.681 1419.39 455.758 1419.84 455.913C1420.3 456.068 1420.71 456.32 1421.08 456.668C1421.45 457.013 1421.75 457.47 1421.97 458.04C1422.19 458.609 1422.3 459.311 1422.3 460.144V460.725H1415.42V459.539H1420.91C1420.91 459.036 1420.8 458.586 1420.6 458.191C1420.41 457.796 1420.12 457.484 1419.75 457.255C1419.39 457.027 1418.96 456.913 1418.46 456.913C1417.92 456.913 1417.45 457.048 1417.05 457.319C1416.65 457.587 1416.35 457.935 1416.13 458.365C1415.92 458.795 1415.81 459.256 1415.81 459.748V460.539C1415.81 461.213 1415.93 461.784 1416.16 462.253C1416.4 462.718 1416.73 463.072 1417.15 463.316C1417.56 463.557 1418.05 463.677 1418.6 463.677C1418.96 463.677 1419.29 463.626 1419.58 463.526C1419.87 463.421 1420.13 463.266 1420.34 463.061C1420.55 462.851 1420.72 462.592 1420.84 462.282L1422.16 462.654C1422.02 463.103 1421.79 463.498 1421.46 463.839C1421.13 464.176 1420.72 464.44 1420.24 464.63C1419.75 464.816 1419.21 464.909 1418.6 464.909ZM1428.01 464.909C1427.18 464.909 1426.45 464.711 1425.85 464.316C1425.25 463.921 1424.78 463.376 1424.46 462.683C1424.13 461.989 1423.97 461.197 1423.97 460.306C1423.97 459.4 1424.13 458.6 1424.47 457.906C1424.8 457.209 1425.27 456.665 1425.87 456.273C1426.48 455.878 1427.18 455.681 1427.99 455.681C1428.62 455.681 1429.18 455.797 1429.69 456.029C1430.19 456.262 1430.6 456.587 1430.92 457.006C1431.25 457.424 1431.44 457.912 1431.52 458.47H1430.15C1430.05 458.063 1429.81 457.703 1429.45 457.389C1429.1 457.071 1428.62 456.913 1428.01 456.913C1427.48 456.913 1427.01 457.052 1426.61 457.331C1426.21 457.606 1425.89 457.995 1425.67 458.499C1425.45 458.999 1425.34 459.586 1425.34 460.26C1425.34 460.949 1425.45 461.55 1425.66 462.061C1425.89 462.573 1426.2 462.97 1426.59 463.252C1427 463.535 1427.47 463.677 1428.01 463.677C1428.37 463.677 1428.69 463.615 1428.98 463.491C1429.27 463.367 1429.52 463.189 1429.72 462.956C1429.92 462.724 1430.07 462.445 1430.15 462.119H1431.52C1431.44 462.646 1431.25 463.121 1430.95 463.543C1430.64 463.961 1430.24 464.295 1429.74 464.543C1429.25 464.787 1428.67 464.909 1428.01 464.909Z" fill="#282828"/>
<path d="M638.408 193.777V192.817L642.017 188.867C642.44 188.404 642.789 188.002 643.063 187.66C643.337 187.315 643.54 186.991 643.671 186.689C643.807 186.383 643.874 186.062 643.874 185.728C643.874 185.344 643.782 185.011 643.597 184.73C643.415 184.449 643.166 184.232 642.849 184.079C642.533 183.926 642.177 183.849 641.782 183.849C641.362 183.849 640.995 183.936 640.682 184.111C640.373 184.281 640.132 184.522 639.962 184.831C639.794 185.141 639.711 185.504 639.711 185.92H638.451C638.451 185.28 638.599 184.717 638.894 184.233C639.189 183.749 639.591 183.372 640.1 183.102C640.613 182.831 641.187 182.696 641.824 182.696C642.465 182.696 643.033 182.831 643.527 183.102C644.022 183.372 644.41 183.737 644.691 184.196C644.972 184.655 645.112 185.166 645.112 185.728C645.112 186.13 645.04 186.523 644.894 186.908C644.751 187.288 644.502 187.714 644.146 188.183C643.794 188.65 643.305 189.219 642.678 189.891L640.223 192.518V192.603H645.305V193.777H638.408ZM651.075 193.927C650.271 193.927 649.586 193.708 649.02 193.27C648.454 192.829 648.022 192.19 647.723 191.354C647.424 190.514 647.274 189.5 647.274 188.311C647.274 187.13 647.424 186.121 647.723 185.285C648.025 184.445 648.459 183.805 649.025 183.363C649.594 182.919 650.278 182.696 651.075 182.696C651.872 182.696 652.553 182.919 653.119 183.363C653.688 183.805 654.123 184.445 654.422 185.285C654.724 186.121 654.875 187.13 654.875 188.311C654.875 189.5 654.726 190.514 654.427 191.354C654.128 192.19 653.696 192.829 653.13 193.27C652.564 193.708 651.879 193.927 651.075 193.927ZM651.075 192.752C651.872 192.752 652.491 192.368 652.932 191.6C653.374 190.831 653.594 189.735 653.594 188.311C653.594 187.365 653.493 186.559 653.29 185.893C653.091 185.228 652.802 184.721 652.425 184.372C652.052 184.023 651.601 183.849 651.075 183.849C650.285 183.849 649.667 184.239 649.223 185.018C648.778 185.794 648.555 186.892 648.555 188.311C648.555 189.258 648.655 190.062 648.854 190.724C649.054 191.386 649.34 191.89 649.714 192.235C650.091 192.58 650.545 192.752 651.075 192.752ZM660.469 193.927C659.665 193.927 658.98 193.708 658.414 193.27C657.848 192.829 657.416 192.19 657.117 191.354C656.818 190.514 656.669 189.5 656.669 188.311C656.669 187.13 656.818 186.121 657.117 185.285C657.42 184.445 657.854 183.805 658.42 183.363C658.989 182.919 659.672 182.696 660.469 182.696C661.266 182.696 661.948 182.919 662.514 183.363C663.083 183.805 663.517 184.445 663.816 185.285C664.118 186.121 664.27 187.13 664.27 188.311C664.27 189.5 664.12 190.514 663.821 191.354C663.522 192.19 663.09 192.829 662.524 193.27C661.958 193.708 661.273 193.927 660.469 193.927ZM660.469 192.752C661.266 192.752 661.886 192.368 662.327 191.6C662.768 190.831 662.989 189.735 662.989 188.311C662.989 187.365 662.887 186.559 662.684 185.893C662.485 185.228 662.197 184.721 661.82 184.372C661.446 184.023 660.996 183.849 660.469 183.849C659.679 183.849 659.062 184.239 658.617 185.018C658.172 185.794 657.95 186.892 657.95 188.311C657.95 189.258 658.049 190.062 658.249 190.724C658.448 191.386 658.734 191.89 659.108 192.235C659.485 192.58 659.939 192.752 660.469 192.752ZM669.864 193.927C669.059 193.927 668.374 193.708 667.809 193.27C667.243 192.829 666.81 192.19 666.512 191.354C666.213 190.514 666.063 189.5 666.063 188.311C666.063 187.13 666.213 186.121 666.512 185.285C666.814 184.445 667.248 183.805 667.814 183.363C668.383 182.919 669.067 182.696 669.864 182.696C670.661 182.696 671.342 182.919 671.908 183.363C672.477 183.805 672.912 184.445 673.21 185.285C673.513 186.121 673.664 187.13 673.664 188.311C673.664 189.5 673.515 190.514 673.216 191.354C672.917 192.19 672.485 192.829 671.919 193.27C671.353 193.708 670.668 193.927 669.864 193.927ZM669.864 192.752C670.661 192.752 671.28 192.368 671.721 191.6C672.162 190.831 672.383 189.735 672.383 188.311C672.383 187.365 672.282 186.559 672.079 185.893C671.88 185.228 671.591 184.721 671.214 184.372C670.841 184.023 670.39 183.849 669.864 183.849C669.074 183.849 668.456 184.239 668.011 185.018C667.567 185.794 667.344 186.892 667.344 188.311C667.344 189.258 667.444 190.062 667.643 190.724C667.842 191.386 668.129 191.89 668.503 192.235C668.88 192.58 669.333 192.752 669.864 192.752Z" fill="#565656"/>
<path d="M644.113 245.346V256.277H642.789V246.733H642.725L640.056 248.506V247.16L642.789 245.346H644.113ZM650.823 256.427C650.018 256.427 649.333 256.208 648.768 255.77C648.202 255.329 647.769 254.69 647.471 253.854C647.172 253.014 647.022 252 647.022 250.811C647.022 249.63 647.172 248.621 647.471 247.785C647.773 246.945 648.207 246.305 648.773 245.863C649.342 245.419 650.026 245.196 650.823 245.196C651.62 245.196 652.301 245.419 652.867 245.863C653.436 246.305 653.87 246.945 654.169 247.785C654.472 248.621 654.623 249.63 654.623 250.811C654.623 252 654.474 253.014 654.175 253.854C653.876 254.69 653.443 255.329 652.878 255.77C652.312 256.208 651.627 256.427 650.823 256.427ZM650.823 255.252C651.62 255.252 652.239 254.868 652.68 254.1C653.121 253.331 653.342 252.235 653.342 250.811C653.342 249.865 653.241 249.059 653.038 248.393C652.839 247.728 652.55 247.221 652.173 246.872C651.799 246.523 651.349 246.349 650.823 246.349C650.033 246.349 649.415 246.739 648.97 247.518C648.526 248.294 648.303 249.392 648.303 250.811C648.303 251.758 648.403 252.562 648.602 253.224C648.801 253.886 649.088 254.39 649.461 254.735C649.839 255.08 650.292 255.252 650.823 255.252ZM660.217 256.427C659.413 256.427 658.728 256.208 658.162 255.77C657.596 255.329 657.164 254.69 656.865 253.854C656.566 253.014 656.417 252 656.417 250.811C656.417 249.63 656.566 248.621 656.865 247.785C657.167 246.945 657.602 246.305 658.167 245.863C658.737 245.419 659.42 245.196 660.217 245.196C661.014 245.196 661.696 245.419 662.261 245.863C662.831 246.305 663.265 246.945 663.564 247.785C663.866 248.621 664.018 249.63 664.018 250.811C664.018 252 663.868 253.014 663.569 253.854C663.27 254.69 662.838 255.329 662.272 255.77C661.706 256.208 661.021 256.427 660.217 256.427ZM660.217 255.252C661.014 255.252 661.633 254.868 662.075 254.1C662.516 253.331 662.736 252.235 662.736 250.811C662.736 249.865 662.635 249.059 662.432 248.393C662.233 247.728 661.945 247.221 661.568 246.872C661.194 246.523 660.744 246.349 660.217 246.349C659.427 246.349 658.81 246.739 658.365 247.518C657.92 248.294 657.698 249.392 657.698 250.811C657.698 251.758 657.797 252.562 657.997 253.224C658.196 253.886 658.482 254.39 658.856 254.735C659.233 255.08 659.687 255.252 660.217 255.252ZM669.612 256.427C668.807 256.427 668.122 256.208 667.556 255.77C666.991 255.329 666.558 254.69 666.259 253.854C665.961 253.014 665.811 252 665.811 250.811C665.811 249.63 665.961 248.621 666.259 247.785C666.562 246.945 666.996 246.305 667.562 245.863C668.131 245.419 668.814 245.196 669.612 245.196C670.409 245.196 671.09 245.419 671.656 245.863C672.225 246.305 672.659 246.945 672.958 247.785C673.261 248.621 673.412 249.63 673.412 250.811C673.412 252 673.263 253.014 672.964 253.854C672.665 254.69 672.232 255.329 671.667 255.77C671.101 256.208 670.416 256.427 669.612 256.427ZM669.612 255.252C670.409 255.252 671.028 254.868 671.469 254.1C671.91 253.331 672.131 252.235 672.131 250.811C672.131 249.865 672.03 249.059 671.827 248.393C671.627 247.728 671.339 247.221 670.962 246.872C670.588 246.523 670.138 246.349 669.612 246.349C668.822 246.349 668.204 246.739 667.759 247.518C667.315 248.294 667.092 249.392 667.092 250.811C667.092 251.758 667.192 252.562 667.391 253.224C667.59 253.886 667.877 254.39 668.25 254.735C668.628 255.08 669.081 255.252 669.612 255.252Z" fill="#565656"/>
<path d="M642.607 318.931C641.981 318.931 641.417 318.806 640.915 318.557C640.413 318.308 640.011 317.966 639.709 317.532C639.406 317.098 639.241 316.603 639.212 316.048H640.493C640.543 316.543 640.767 316.952 641.166 317.276C641.568 317.596 642.048 317.756 642.607 317.756C643.056 317.756 643.454 317.651 643.803 317.441C644.155 317.232 644.431 316.943 644.63 316.577C644.833 316.207 644.934 315.789 644.934 315.322C644.934 314.846 644.829 314.42 644.619 314.047C644.413 313.669 644.128 313.372 643.765 313.155C643.402 312.938 642.988 312.828 642.522 312.824C642.187 312.821 641.844 312.872 641.492 312.979C641.139 313.082 640.849 313.216 640.621 313.379L639.383 313.23L640.045 307.85H645.724V309.024H641.155L640.771 312.248H640.835C641.059 312.07 641.34 311.922 641.678 311.805C642.016 311.687 642.369 311.629 642.735 311.629C643.404 311.629 644 311.789 644.523 312.109C645.05 312.426 645.463 312.86 645.762 313.411C646.064 313.963 646.215 314.593 646.215 315.301C646.215 315.998 646.059 316.621 645.746 317.169C645.436 317.714 645.009 318.144 644.465 318.461C643.92 318.774 643.301 318.931 642.607 318.931ZM651.902 318.931C651.097 318.931 650.412 318.712 649.846 318.274C649.281 317.833 648.848 317.194 648.549 316.358C648.25 315.518 648.101 314.504 648.101 313.315C648.101 312.134 648.25 311.125 648.549 310.289C648.852 309.449 649.286 308.809 649.852 308.367C650.421 307.922 651.104 307.7 651.902 307.7C652.699 307.7 653.38 307.922 653.946 308.367C654.515 308.809 654.949 309.449 655.248 310.289C655.551 311.125 655.702 312.134 655.702 313.315C655.702 314.504 655.553 315.518 655.254 316.358C654.955 317.194 654.522 317.833 653.957 318.274C653.391 318.712 652.706 318.931 651.902 318.931ZM651.902 317.756C652.699 317.756 653.318 317.372 653.759 316.603C654.2 315.835 654.421 314.739 654.421 313.315C654.421 312.369 654.32 311.563 654.117 310.897C653.917 310.232 653.629 309.725 653.252 309.376C652.878 309.027 652.428 308.853 651.902 308.853C651.112 308.853 650.494 309.243 650.049 310.022C649.604 310.798 649.382 311.896 649.382 313.315C649.382 314.262 649.482 315.066 649.681 315.728C649.88 316.39 650.167 316.893 650.54 317.239C650.918 317.584 651.371 317.756 651.902 317.756ZM661.296 318.931C660.492 318.931 659.807 318.712 659.241 318.274C658.675 317.833 658.243 317.194 657.944 316.358C657.645 315.518 657.495 314.504 657.495 313.315C657.495 312.134 657.645 311.125 657.944 310.289C658.246 309.449 658.68 308.809 659.246 308.367C659.816 307.922 660.499 307.7 661.296 307.7C662.093 307.7 662.775 307.922 663.34 308.367C663.91 308.809 664.344 309.449 664.643 310.289C664.945 311.125 665.096 312.134 665.096 313.315C665.096 314.504 664.947 315.518 664.648 316.358C664.349 317.194 663.917 317.833 663.351 318.274C662.785 318.712 662.1 318.931 661.296 318.931ZM661.296 317.756C662.093 317.756 662.712 317.372 663.154 316.603C663.595 315.835 663.815 314.739 663.815 313.315C663.815 312.369 663.714 311.563 663.511 310.897C663.312 310.232 663.024 309.725 662.646 309.376C662.273 309.027 661.823 308.853 661.296 308.853C660.506 308.853 659.889 309.243 659.444 310.022C658.999 310.798 658.777 311.896 658.777 313.315C658.777 314.262 658.876 315.066 659.075 315.728C659.275 316.39 659.561 316.893 659.935 317.239C660.312 317.584 660.766 317.756 661.296 317.756ZM670.69 318.931C669.886 318.931 669.201 318.712 668.635 318.274C668.07 317.833 667.637 317.194 667.338 316.358C667.039 315.518 666.89 314.504 666.89 313.315C666.89 312.134 667.039 311.125 667.338 310.289C667.641 309.449 668.075 308.809 668.641 308.367C669.21 307.922 669.893 307.7 670.69 307.7C671.488 307.7 672.169 307.922 672.735 308.367C673.304 308.809 673.738 309.449 674.037 310.289C674.34 311.125 674.491 312.134 674.491 313.315C674.491 314.504 674.341 315.518 674.043 316.358C673.744 317.194 673.311 317.833 672.745 318.274C672.18 318.712 671.495 318.931 670.69 318.931ZM670.69 317.756C671.488 317.756 672.107 317.372 672.548 316.603C672.989 315.835 673.21 314.739 673.21 313.315C673.21 312.369 673.108 311.563 672.906 310.897C672.706 310.232 672.418 309.725 672.041 309.376C671.667 309.027 671.217 308.853 670.69 308.853C669.9 308.853 669.283 309.243 668.838 310.022C668.393 310.798 668.171 311.896 668.171 313.315C668.171 314.262 668.271 315.066 668.47 315.728C668.669 316.39 668.956 316.893 669.329 317.239C669.707 317.584 670.16 317.756 670.69 317.756Z" fill="#565656"/>
<path d="M643.105 381.281V380.32L646.714 376.371C647.137 375.908 647.486 375.506 647.76 375.164C648.034 374.819 648.237 374.495 648.369 374.193C648.504 373.887 648.571 373.566 648.571 373.232C648.571 372.848 648.479 372.515 648.294 372.234C648.112 371.953 647.863 371.736 647.547 371.583C647.23 371.43 646.874 371.353 646.479 371.353C646.059 371.353 645.693 371.44 645.379 371.615C645.07 371.785 644.83 372.026 644.659 372.335C644.492 372.645 644.408 373.008 644.408 373.424H643.148C643.148 372.784 643.296 372.221 643.591 371.737C643.887 371.253 644.289 370.876 644.798 370.606C645.31 370.335 645.885 370.2 646.522 370.2C647.162 370.2 647.73 370.335 648.224 370.606C648.719 370.876 649.107 371.241 649.388 371.7C649.669 372.159 649.81 372.67 649.81 373.232C649.81 373.634 649.737 374.027 649.591 374.412C649.449 374.792 649.199 375.218 648.844 375.687C648.491 376.153 648.002 376.723 647.376 377.395L644.92 380.022V380.107H650.002V381.281H643.105ZM655.772 381.431C654.968 381.431 654.283 381.212 653.717 380.774C653.151 380.333 652.719 379.694 652.42 378.858C652.121 378.018 651.972 377.004 651.972 375.815C651.972 374.634 652.121 373.625 652.42 372.789C652.722 371.949 653.157 371.309 653.722 370.867C654.292 370.422 654.975 370.2 655.772 370.2C656.569 370.2 657.251 370.422 657.816 370.867C658.386 371.309 658.82 371.949 659.119 372.789C659.421 373.625 659.572 374.634 659.572 375.815C659.572 377.004 659.423 378.018 659.124 378.858C658.825 379.694 658.393 380.333 657.827 380.774C657.261 381.212 656.576 381.431 655.772 381.431ZM655.772 380.256C656.569 380.256 657.188 379.872 657.63 379.103C658.071 378.335 658.291 377.239 658.291 375.815C658.291 374.869 658.19 374.063 657.987 373.397C657.788 372.732 657.5 372.225 657.122 371.876C656.749 371.527 656.299 371.353 655.772 371.353C654.982 371.353 654.365 371.743 653.92 372.522C653.475 373.298 653.253 374.396 653.253 375.815C653.253 376.762 653.352 377.566 653.551 378.228C653.751 378.89 654.037 379.393 654.411 379.739C654.788 380.084 655.242 380.256 655.772 380.256ZM665.166 381.431C664.362 381.431 663.677 381.212 663.111 380.774C662.546 380.333 662.113 379.694 661.814 378.858C661.515 378.018 661.366 377.004 661.366 375.815C661.366 374.634 661.515 373.625 661.814 372.789C662.117 371.949 662.551 371.309 663.117 370.867C663.686 370.422 664.369 370.2 665.166 370.2C665.964 370.2 666.645 370.422 667.211 370.867C667.78 371.309 668.214 371.949 668.513 372.789C668.816 373.625 668.967 374.634 668.967 375.815C668.967 377.004 668.817 378.018 668.519 378.858C668.22 379.694 667.787 380.333 667.222 380.774C666.656 381.212 665.971 381.431 665.166 381.431ZM665.166 380.256C665.964 380.256 666.583 379.872 667.024 379.103C667.465 378.335 667.686 377.239 667.686 375.815C667.686 374.869 667.584 374.063 667.382 373.397C667.182 372.732 666.894 372.225 666.517 371.876C666.143 371.527 665.693 371.353 665.166 371.353C664.376 371.353 663.759 371.743 663.314 372.522C662.869 373.298 662.647 374.396 662.647 375.815C662.647 376.762 662.747 377.566 662.946 378.228C663.145 378.89 663.432 379.393 663.805 379.739C664.183 380.084 664.636 380.256 665.166 380.256Z" fill="#565656"/>
<path d="M647.875 432.85V443.781H646.551V434.237H646.487L643.818 436.009V434.664L646.551 432.85H647.875ZM654.584 443.931C653.78 443.931 653.095 443.712 652.529 443.274C651.963 442.833 651.531 442.194 651.232 441.358C650.933 440.518 650.784 439.504 650.784 438.315C650.784 437.134 650.933 436.125 651.232 435.289C651.535 434.449 651.969 433.809 652.535 433.367C653.104 432.922 653.787 432.7 654.584 432.7C655.381 432.7 656.063 432.922 656.629 433.367C657.198 433.809 657.632 434.449 657.931 435.289C658.233 436.125 658.385 437.134 658.385 438.315C658.385 439.504 658.235 440.518 657.936 441.358C657.637 442.194 657.205 442.833 656.639 443.274C656.073 443.712 655.388 443.931 654.584 443.931ZM654.584 442.756C655.381 442.756 656 442.372 656.442 441.603C656.883 440.835 657.104 439.739 657.104 438.315C657.104 437.369 657.002 436.563 656.799 435.897C656.6 435.232 656.312 434.725 655.935 434.376C655.561 434.027 655.111 433.853 654.584 433.853C653.794 433.853 653.177 434.243 652.732 435.022C652.287 435.798 652.065 436.896 652.065 438.315C652.065 439.262 652.164 440.066 652.364 440.728C652.563 441.39 652.849 441.893 653.223 442.239C653.6 442.584 654.054 442.756 654.584 442.756ZM663.979 443.931C663.174 443.931 662.489 443.712 661.924 443.274C661.358 442.833 660.925 442.194 660.627 441.358C660.328 440.518 660.178 439.504 660.178 438.315C660.178 437.134 660.328 436.125 660.627 435.289C660.929 434.449 661.363 433.809 661.929 433.367C662.498 432.922 663.182 432.7 663.979 432.7C664.776 432.7 665.457 432.922 666.023 433.367C666.592 433.809 667.027 434.449 667.325 435.289C667.628 436.125 667.779 437.134 667.779 438.315C667.779 439.504 667.63 440.518 667.331 441.358C667.032 442.194 666.6 442.833 666.034 443.274C665.468 443.712 664.783 443.931 663.979 443.931ZM663.979 442.756C664.776 442.756 665.395 442.372 665.836 441.603C666.277 440.835 666.498 439.739 666.498 438.315C666.498 437.369 666.397 436.563 666.194 435.897C665.995 435.232 665.706 434.725 665.329 434.376C664.955 434.027 664.505 433.853 663.979 433.853C663.189 433.853 662.571 434.243 662.126 435.022C661.682 435.798 661.459 436.896 661.459 438.315C661.459 439.262 661.559 440.066 661.758 440.728C661.957 441.39 662.244 441.893 662.618 442.239C662.995 442.584 663.448 442.756 663.979 442.756Z" fill="#565656"/>
<line x1="1486.39" y1="443.299" x2="710.26" y2="443.299" stroke="#8A8A8A" stroke-width="0.715768" stroke-dasharray="1.43 1.43"/>
<line x1="1486.39" y1="379.702" x2="710.26" y2="379.702" stroke="#8A8A8A" stroke-width="0.715768" stroke-dasharray="1.43 1.43"/>
<line x1="1486.39" y1="316.104" x2="710.26" y2="316.104" stroke="#8A8A8A" stroke-width="0.715768" stroke-dasharray="1.43 1.43"/>
<line x1="1486.39" y1="252.506" x2="710.26" y2="252.506" stroke="#8A8A8A" stroke-width="0.715768" stroke-dasharray="1.43 1.43"/>
<line x1="1486.39" y1="188.909" x2="710.26" y2="188.909" stroke="#8A8A8A" stroke-width="0.715768" stroke-dasharray="1.43 1.43"/>
</svg>
