<svg width="24545" height="14101" viewBox="0 0 24545 14101" fill="none" xmlns="http://www.w3.org/2000/svg">
<rect width="24545" height="14101" rx="1500" fill="#F2F4F7"/>
<path d="M5575.17 5307.5C5472.51 5272.5 5379.17 5237.5 5295.17 5202.5C5211.17 5165.17 5138.84 5120.83 5078.17 5069.5C5017.51 5018.17 4969.67 4957.5 4934.67 4887.5C4902.01 4815.17 4885.67 4727.67 4885.67 4625C4885.67 4426.67 4961.51 4268 5113.17 4149C5267.17 4030 5481.84 3970.5 5757.17 3970.5C5857.51 3970.5 5950.84 3977.5 6037.17 3991.5C6123.51 4005.5 6197.01 4027.67 6257.67 4058C6320.67 4086 6369.67 4123.33 6404.67 4170C6439.67 4214.33 6457.17 4266.83 6457.17 4327.5C6457.17 4388.17 6443.17 4440.67 6415.17 4485C6387.17 4527 6353.34 4563.17 6313.67 4593.5C6262.34 4560.83 6193.51 4532.83 6107.17 4509.5C6020.84 4483.83 5926.34 4471 5823.67 4471C5718.67 4471 5641.67 4486.17 5592.67 4516.5C5543.67 4544.5 5519.17 4580.67 5519.17 4625C5519.17 4660 5534.34 4689.17 5564.67 4712.5C5595.01 4733.5 5640.51 4753.33 5701.17 4772L5886.67 4831.5C6106.01 4901.5 6274.01 4991.33 6390.67 5101C6509.67 5208.33 6569.17 5355.33 6569.17 5542C6569.17 5740.33 6491.01 5901.33 6334.67 6025C6178.34 6146.33 5948.51 6207 5645.17 6207C5537.84 6207 5437.51 6197.67 5344.17 6179C5253.17 6162.67 5172.67 6138.17 5102.67 6105.5C5035.01 6070.5 4981.34 6028.5 4941.67 5979.5C4904.34 5928.17 4885.67 5869.83 4885.67 5804.5C4885.67 5736.83 4905.51 5679.67 4945.17 5633C4984.84 5584 5028.01 5546.67 5074.67 5521C5140.01 5572.33 5219.34 5616.67 5312.67 5654C5408.34 5691.33 5512.17 5710 5624.17 5710C5738.51 5710 5819.01 5692.5 5865.67 5657.5C5912.34 5622.5 5935.67 5581.67 5935.67 5535C5935.67 5488.33 5917.01 5453.33 5879.67 5430C5842.34 5404.33 5789.84 5379.83 5722.17 5356.5L5575.17 5307.5ZM8779.99 5367C8779.99 5493 8757.83 5608.5 8713.49 5713.5C8671.49 5816.17 8609.66 5904.83 8527.99 5979.5C8446.33 6051.83 8347.16 6107.83 8230.49 6147.5C8113.83 6187.17 7981.99 6207 7834.99 6207C7687.99 6207 7556.16 6187.17 7439.49 6147.5C7322.83 6107.83 7223.66 6051.83 7141.99 5979.5C7060.33 5904.83 6997.33 5816.17 6952.99 5713.5C6910.99 5608.5 6889.99 5493 6889.99 5367V4030C6915.66 4025.33 6956.49 4019.5 7012.49 4012.5C7068.49 4003.17 7122.16 3998.5 7173.49 3998.5C7227.16 3998.5 7273.83 4003.17 7313.49 4012.5C7355.49 4019.5 7390.49 4033.5 7418.49 4054.5C7446.49 4075.5 7467.49 4104.67 7481.49 4142C7495.49 4179.33 7502.49 4228.33 7502.49 4289V5356.5C7502.49 5468.5 7532.83 5556 7593.49 5619C7656.49 5682 7736.99 5713.5 7834.99 5713.5C7935.33 5713.5 8015.83 5682 8076.49 5619C8137.16 5556 8167.49 5468.5 8167.49 5356.5V4030C8193.16 4025.33 8233.99 4019.5 8289.99 4012.5C8345.99 4003.17 8399.66 3998.5 8450.99 3998.5C8504.66 3998.5 8551.33 4003.17 8590.99 4012.5C8632.99 4019.5 8667.99 4033.5 8695.99 4054.5C8723.99 4075.5 8744.99 4104.67 8758.99 4142C8772.99 4179.33 8779.99 4228.33 8779.99 4289V5367ZM10018.8 5013.5C10116.8 5013.5 10191.5 4991.33 10242.8 4947C10296.5 4900.33 10323.3 4830.33 10323.3 4737C10323.3 4648.33 10295.3 4580.67 10239.3 4534C10185.6 4485 10106.3 4460.5 10001.3 4460.5C9963.96 4460.5 9932.46 4461.67 9906.79 4464C9883.46 4464 9858.96 4466.33 9833.29 4471V5013.5H10018.8ZM9836.79 6137C9811.13 6144 9770.29 6151 9714.29 6158C9660.63 6165 9606.96 6168.5 9553.29 6168.5C9499.63 6168.5 9451.79 6163.83 9409.79 6154.5C9370.13 6147.5 9336.29 6133.5 9308.29 6112.5C9280.29 6091.5 9259.29 6062.33 9245.29 6025C9231.29 5987.67 9224.29 5938.67 9224.29 5878V4229.5C9224.29 4180.5 9237.13 4143.17 9262.79 4117.5C9290.79 4089.5 9328.13 4067.33 9374.79 4051C9454.13 4023 9543.96 4003.17 9644.29 3991.5C9746.96 3977.5 9849.63 3970.5 9952.29 3970.5C10274.3 3970.5 10520.5 4039.33 10690.8 4177C10861.1 4314.67 10946.3 4501.33 10946.3 4737C10946.3 4851.33 10927.6 4955.17 10890.3 5048.5C10855.3 5139.5 10801.6 5218.83 10729.3 5286.5C10659.3 5351.83 10569.5 5403.17 10459.8 5440.5C10352.5 5475.5 10227.6 5493 10085.3 5493H9836.79V6137ZM11866.6 5465V6137C11840.9 6144 11800.1 6151 11744.1 6158C11690.4 6165 11636.7 6168.5 11583.1 6168.5C11529.4 6168.5 11481.6 6163.83 11439.6 6154.5C11399.9 6147.5 11366.1 6133.5 11338.1 6112.5C11312.4 6091.5 11292.6 6062.33 11278.6 6025C11264.6 5987.67 11257.6 5938.67 11257.6 5878V4229.5C11257.6 4180.5 11270.4 4143.17 11296.1 4117.5C11324.1 4089.5 11361.4 4067.33 11408.1 4051C11487.4 4023 11579.6 4003.17 11684.6 3991.5C11789.6 3977.5 11901.6 3970.5 12020.6 3970.5C12342.6 3970.5 12585.2 4038.17 12748.6 4173.5C12911.9 4308.83 12993.6 4492 12993.6 4723C12993.6 4867.67 12956.2 4991.33 12881.6 5094C12806.9 5196.67 12718.2 5276 12615.6 5332C12699.6 5446.33 12782.4 5553.67 12864.1 5654C12945.7 5754.33 13009.9 5845.33 13056.6 5927C13033.2 6008.67 12990.1 6071.67 12927.1 6116C12866.4 6158 12797.6 6179 12720.6 6179C12669.2 6179 12624.9 6173.17 12587.6 6161.5C12550.2 6149.83 12517.6 6133.5 12489.6 6112.5C12461.6 6091.5 12435.9 6065.83 12412.6 6035.5C12389.2 6005.17 12367.1 5972.5 12346.1 5937.5L12052.1 5465H11866.6ZM12087.1 4999.5C12175.7 4999.5 12245.7 4977.33 12297.1 4933C12348.4 4886.33 12374.1 4818.67 12374.1 4730C12374.1 4641.33 12344.9 4574.83 12286.6 4530.5C12230.6 4483.83 12140.7 4460.5 12017.1 4460.5C11982.1 4460.5 11954.1 4461.67 11933.1 4464C11912.1 4466.33 11888.7 4469.83 11863.1 4474.5V4999.5H12087.1ZM13390 4355.5C13390 4255.17 13419.1 4175.83 13477.5 4117.5C13535.8 4059.17 13615.1 4030 13715.5 4030H14870.5C14886.8 4055.67 14900.8 4089.5 14912.5 4131.5C14926.5 4173.5 14933.5 4217.83 14933.5 4264.5C14933.5 4353.17 14913.6 4416.17 14874 4453.5C14836.6 4490.83 14786.5 4509.5 14723.5 4509.5H13985V4835H14772.5C14788.8 4860.67 14802.8 4894.5 14814.5 4936.5C14828.5 4976.17 14835.5 5019.33 14835.5 5066C14835.5 5154.67 14816.8 5217.67 14779.5 5255C14742.1 5292.33 14692 5311 14629 5311H13985V5678.5H14884.5C14900.8 5704.17 14914.8 5738 14926.5 5780C14940.5 5822 14947.5 5866.33 14947.5 5913C14947.5 6001.67 14927.6 6065.83 14888 6105.5C14850.6 6142.83 14800.5 6161.5 14737.5 6161.5H13715.5C13615.1 6161.5 13535.8 6132.33 13477.5 6074C13419.1 6015.67 13390 5936.33 13390 5836V4355.5ZM16787.2 5629.5C16756.9 5655.17 16717.2 5676.17 16668.2 5692.5C16621.5 5706.5 16566.7 5713.5 16503.7 5713.5C16419.7 5713.5 16349.7 5703 16293.7 5682C16240 5661 16205 5624.83 16188.7 5573.5C16123.4 5368.17 16069.7 5202.5 16027.7 5076.5C15985.7 4948.17 15953 4836.17 15929.7 4740.5H15912.2C15905.2 4878.17 15899.4 5004.17 15894.7 5118.5C15892.4 5230.5 15890 5340.17 15887.7 5447.5C15887.7 5554.83 15885.4 5663.33 15880.7 5773C15878.4 5882.67 15873.7 6004 15866.7 6137C15836.4 6148.67 15796.7 6158 15747.7 6165C15698.7 6174.33 15649.7 6179 15600.7 6179C15498 6179 15417.5 6162.67 15359.2 6130C15303.2 6097.33 15275.2 6037.83 15275.2 5951.5L15376.7 4166.5C15395.4 4136.17 15436.2 4103.5 15499.2 4068.5C15562.2 4033.5 15650.9 4016 15765.2 4016C15888.9 4016 15985.7 4035.83 16055.7 4075.5C16125.7 4112.83 16177 4174.67 16209.7 4261C16230.7 4317 16252.9 4381.17 16276.2 4453.5C16301.9 4525.83 16326.4 4600.5 16349.7 4677.5C16375.4 4754.5 16399.9 4831.5 16423.2 4908.5C16446.5 4983.17 16467.5 5050.83 16486.2 5111.5H16503.7C16559.7 4915.5 16615.7 4726.5 16671.7 4544.5C16727.7 4360.17 16779 4206.17 16825.7 4082.5C16860.7 4063.83 16905 4048.67 16958.7 4037C17014.7 4023 17076.5 4016 17144.2 4016C17258.5 4016 17351.9 4033.5 17424.2 4068.5C17496.5 4101.17 17538.5 4149 17550.2 4212C17559.5 4258.67 17568.9 4331 17578.2 4429C17589.9 4524.67 17601.5 4633.17 17613.2 4754.5C17624.9 4875.83 17636.5 5004.17 17648.2 5139.5C17659.9 5274.83 17670.4 5405.5 17679.7 5531.5C17691.4 5655.17 17700.7 5769.5 17707.7 5874.5C17714.7 5977.17 17719.4 6056.5 17721.7 6112.5C17682 6135.83 17640 6152.17 17595.7 6161.5C17553.7 6173.17 17498.9 6179 17431.2 6179C17342.5 6179 17267.9 6163.83 17207.2 6133.5C17146.5 6103.17 17113.9 6043.67 17109.2 5955C17095.2 5700.67 17085.9 5472 17081.2 5269C17078.9 5066 17074.2 4895.67 17067.2 4758H17049.7C17026.4 4849 16992.5 4963.33 16948.2 5101C16903.9 5238.67 16850.2 5414.83 16787.2 5629.5ZM18109.3 4355.5C18109.3 4255.17 18138.5 4175.83 18196.8 4117.5C18255.2 4059.17 18334.5 4030 18434.8 4030H19589.8C19606.2 4055.67 19620.2 4089.5 19631.8 4131.5C19645.8 4173.5 19652.8 4217.83 19652.8 4264.5C19652.8 4353.17 19633 4416.17 19593.3 4453.5C19556 4490.83 19505.8 4509.5 19442.8 4509.5H18704.3V4835H19491.8C19508.2 4860.67 19522.2 4894.5 19533.8 4936.5C19547.8 4976.17 19554.8 5019.33 19554.8 5066C19554.8 5154.67 19536.2 5217.67 19498.8 5255C19461.5 5292.33 19411.3 5311 19348.3 5311H18704.3V5678.5H19603.8C19620.2 5704.17 19634.2 5738 19645.8 5780C19659.8 5822 19666.8 5866.33 19666.8 5913C19666.8 6001.67 19647 6065.83 19607.3 6105.5C19570 6142.83 19519.8 6161.5 19456.8 6161.5H18434.8C18334.5 6161.5 18255.2 6132.33 18196.8 6074C18138.5 6015.67 18109.3 5936.33 18109.3 5836V4355.5ZM2818.77 8355.5C2818.77 8255.17 2847.94 8175.83 2906.27 8117.5C2964.6 8059.17 3043.94 8030 3144.27 8030H4299.27C4315.6 8055.67 4329.6 8089.5 4341.27 8131.5C4355.27 8173.5 4362.27 8217.83 4362.27 8264.5C4362.27 8353.17 4342.44 8416.17 4302.77 8453.5C4265.44 8490.83 4215.27 8509.5 4152.27 8509.5H3413.77V8835H4201.27C4217.6 8860.67 4231.6 8894.5 4243.27 8936.5C4257.27 8976.17 4264.27 9019.33 4264.27 9066C4264.27 9154.67 4245.6 9217.67 4208.27 9255C4170.94 9292.33 4120.77 9311 4057.77 9311H3413.77V9678.5H4313.27C4329.6 9704.17 4343.6 9738 4355.27 9780C4369.27 9822 4376.27 9866.33 4376.27 9913C4376.27 10001.7 4356.44 10065.8 4316.77 10105.5C4279.44 10142.8 4229.27 10161.5 4166.27 10161.5H3144.27C3043.94 10161.5 2964.6 10132.3 2906.27 10074C2847.94 10015.7 2818.77 9936.33 2818.77 9836V8355.5ZM6657.33 10077.5C6624.67 10110.2 6576.83 10134.7 6513.83 10151C6453.17 10169.7 6379.67 10179 6293.33 10179C6207 10179 6125.33 10166.2 6048.33 10140.5C5971.33 10114.8 5908.33 10053 5859.33 9955L5512.83 9248C5477.83 9175.67 5446.33 9108 5418.33 9045C5390.33 8979.67 5360 8905 5327.33 8821L5306.33 8824.5C5315.67 8950.5 5320.33 9078.83 5320.33 9209.5C5322.67 9340.17 5323.83 9468.5 5323.83 9594.5V10137C5298.17 10144 5258.5 10151 5204.83 10158C5153.5 10165 5102.17 10168.5 5050.83 10168.5C4999.5 10168.5 4954 10165 4914.33 10158C4874.67 10151 4842 10137 4816.33 10116C4790.67 10095 4770.83 10067 4756.83 10032C4742.83 9994.67 4735.83 9946.83 4735.83 9888.5V8138.5C4768.5 8091.83 4818.67 8056.83 4886.33 8033.5C4954 8010.17 5026.33 7998.5 5103.33 7998.5C5189.67 7998.5 5271.33 8012.5 5348.33 8040.5C5427.67 8066.17 5490.67 8126.83 5537.33 8222.5L5887.33 8929.5C5922.33 9001.83 5953.83 9070.67 5981.83 9136C6009.83 9199 6040.17 9272.5 6072.83 9356.5L6090.33 9353C6081 9227 6075.17 9101 6072.83 8975C6070.5 8849 6069.33 8723 6069.33 8597V8030C6095 8023 6133.5 8016 6184.83 8009C6238.5 8002 6291 7998.5 6342.33 7998.5C6445 7998.5 6523.17 8017.17 6576.83 8054.5C6630.5 8089.5 6657.33 8164.17 6657.33 8278.5V10077.5ZM7012.91 8520C6996.57 8494.33 6981.41 8459.33 6967.41 8415C6953.41 8370.67 6946.41 8324 6946.41 8275C6946.41 8184 6966.24 8118.67 7005.91 8079C7047.91 8039.33 7101.57 8019.5 7166.91 8019.5H8692.91C8709.24 8045.17 8724.41 8080.17 8738.41 8124.5C8752.41 8168.83 8759.41 8215.5 8759.41 8264.5C8759.41 8355.5 8738.41 8420.83 8696.41 8460.5C8656.74 8500.17 8604.24 8520 8538.91 8520H8150.41V10137C8124.74 10144 8083.91 10151 8027.91 10158C7974.24 10165 7920.57 10168.5 7866.91 10168.5C7813.24 10168.5 7765.41 10163.8 7723.41 10154.5C7683.74 10147.5 7649.91 10133.5 7621.91 10112.5C7593.91 10091.5 7572.91 10062.3 7558.91 10025C7544.91 9987.67 7537.91 9938.67 7537.91 9878V8520H7012.91ZM9055.31 8355.5C9055.31 8255.17 9084.48 8175.83 9142.81 8117.5C9201.15 8059.17 9280.48 8030 9380.81 8030H10535.8C10552.1 8055.67 10566.1 8089.5 10577.8 8131.5C10591.8 8173.5 10598.8 8217.83 10598.8 8264.5C10598.8 8353.17 10579 8416.17 10539.3 8453.5C10502 8490.83 10451.8 8509.5 10388.8 8509.5H9650.31V8835H10437.8C10454.1 8860.67 10468.1 8894.5 10479.8 8936.5C10493.8 8976.17 10500.8 9019.33 10500.8 9066C10500.8 9154.67 10482.1 9217.67 10444.8 9255C10407.5 9292.33 10357.3 9311 10294.3 9311H9650.31V9678.5H10549.8C10566.1 9704.17 10580.1 9738 10591.8 9780C10605.8 9822 10612.8 9866.33 10612.8 9913C10612.8 10001.7 10593 10065.8 10553.3 10105.5C10516 10142.8 10465.8 10161.5 10402.8 10161.5H9380.81C9280.48 10161.5 9201.15 10132.3 9142.81 10074C9084.48 10015.7 9055.31 9936.33 9055.31 9836V8355.5ZM11581.4 9465V10137C11555.7 10144 11514.9 10151 11458.9 10158C11405.2 10165 11351.5 10168.5 11297.9 10168.5C11244.2 10168.5 11196.4 10163.8 11154.4 10154.5C11114.7 10147.5 11080.9 10133.5 11052.9 10112.5C11027.2 10091.5 11007.4 10062.3 10993.4 10025C10979.4 9987.67 10972.4 9938.67 10972.4 9878V8229.5C10972.4 8180.5 10985.2 8143.17 11010.9 8117.5C11038.9 8089.5 11076.2 8067.33 11122.9 8051C11202.2 8023 11294.4 8003.17 11399.4 7991.5C11504.4 7977.5 11616.4 7970.5 11735.4 7970.5C12057.4 7970.5 12300 8038.17 12463.4 8173.5C12626.7 8308.83 12708.4 8492 12708.4 8723C12708.4 8867.67 12671 8991.33 12596.4 9094C12521.7 9196.67 12433 9276 12330.4 9332C12414.4 9446.33 12497.2 9553.67 12578.9 9654C12660.5 9754.33 12724.7 9845.33 12771.4 9927C12748 10008.7 12704.9 10071.7 12641.9 10116C12581.2 10158 12512.4 10179 12435.4 10179C12384 10179 12339.7 10173.2 12302.4 10161.5C12265 10149.8 12232.4 10133.5 12204.4 10112.5C12176.4 10091.5 12150.7 10065.8 12127.4 10035.5C12104 10005.2 12081.9 9972.5 12060.9 9937.5L11766.9 9465H11581.4ZM11801.9 8999.5C11890.5 8999.5 11960.5 8977.33 12011.9 8933C12063.2 8886.33 12088.9 8818.67 12088.9 8730C12088.9 8641.33 12059.7 8574.83 12001.4 8530.5C11945.4 8483.83 11855.5 8460.5 11731.9 8460.5C11696.9 8460.5 11668.9 8461.67 11647.9 8464C11626.9 8466.33 11603.5 8469.83 11577.9 8474.5V8999.5H11801.9ZM13899.3 9013.5C13997.3 9013.5 14071.9 8991.33 14123.3 8947C14176.9 8900.33 14203.8 8830.33 14203.8 8737C14203.8 8648.33 14175.8 8580.67 14119.8 8534C14066.1 8485 13986.8 8460.5 13881.8 8460.5C13844.4 8460.5 13812.9 8461.67 13787.3 8464C13763.9 8464 13739.4 8466.33 13713.8 8471V9013.5H13899.3ZM13717.3 10137C13691.6 10144 13650.8 10151 13594.8 10158C13541.1 10165 13487.4 10168.5 13433.8 10168.5C13380.1 10168.5 13332.3 10163.8 13290.3 10154.5C13250.6 10147.5 13216.8 10133.5 13188.8 10112.5C13160.8 10091.5 13139.8 10062.3 13125.8 10025C13111.8 9987.67 13104.8 9938.67 13104.8 9878V8229.5C13104.8 8180.5 13117.6 8143.17 13143.3 8117.5C13171.3 8089.5 13208.6 8067.33 13255.3 8051C13334.6 8023 13424.4 8003.17 13524.8 7991.5C13627.4 7977.5 13730.1 7970.5 13832.8 7970.5C14154.8 7970.5 14400.9 8039.33 14571.3 8177C14741.6 8314.67 14826.8 8501.33 14826.8 8737C14826.8 8851.33 14808.1 8955.17 14770.8 9048.5C14735.8 9139.5 14682.1 9218.83 14609.8 9286.5C14539.8 9351.83 14449.9 9403.17 14340.3 9440.5C14232.9 9475.5 14108.1 9493 13965.8 9493H13717.3V10137ZM15747 9465V10137C15721.4 10144 15680.5 10151 15624.5 10158C15570.9 10165 15517.2 10168.5 15463.5 10168.5C15409.9 10168.5 15362 10163.8 15320 10154.5C15280.4 10147.5 15246.5 10133.5 15218.5 10112.5C15192.9 10091.5 15173 10062.3 15159 10025C15145 9987.67 15138 9938.67 15138 9878V8229.5C15138 8180.5 15150.9 8143.17 15176.5 8117.5C15204.5 8089.5 15241.9 8067.33 15288.5 8051C15367.9 8023 15460 8003.17 15565 7991.5C15670 7977.5 15782 7970.5 15901 7970.5C16223 7970.5 16465.7 8038.17 16629 8173.5C16792.4 8308.83 16874 8492 16874 8723C16874 8867.67 16836.7 8991.33 16762 9094C16687.4 9196.67 16598.7 9276 16496 9332C16580 9446.33 16662.9 9553.67 16744.5 9654C16826.2 9754.33 16890.4 9845.33 16937 9927C16913.7 10008.7 16870.5 10071.7 16807.5 10116C16746.9 10158 16678 10179 16601 10179C16549.7 10179 16505.4 10173.2 16468 10161.5C16430.7 10149.8 16398 10133.5 16370 10112.5C16342 10091.5 16316.4 10065.8 16293 10035.5C16269.7 10005.2 16247.5 9972.5 16226.5 9937.5L15932.5 9465H15747ZM15967.5 8999.5C16056.2 8999.5 16126.2 8977.33 16177.5 8933C16228.9 8886.33 16254.5 8818.67 16254.5 8730C16254.5 8641.33 16225.4 8574.83 16167 8530.5C16111 8483.83 16021.2 8460.5 15897.5 8460.5C15862.5 8460.5 15834.5 8461.67 15813.5 8464C15792.5 8466.33 15769.2 8469.83 15743.5 8474.5V8999.5H15967.5ZM17882.9 10137C17857.3 10144 17816.4 10151 17760.4 10158C17706.8 10165 17653.1 10168.5 17599.4 10168.5C17545.8 10168.5 17497.9 10163.8 17455.9 10154.5C17416.3 10147.5 17382.4 10133.5 17354.4 10112.5C17326.4 10091.5 17305.4 10062.3 17291.4 10025C17277.4 9987.67 17270.4 9938.67 17270.4 9878V8030C17296.1 8025.33 17336.9 8019.5 17392.9 8012.5C17448.9 8003.17 17502.6 7998.5 17553.9 7998.5C17607.6 7998.5 17654.3 8003.17 17693.9 8012.5C17735.9 8019.5 17770.9 8033.5 17798.9 8054.5C17826.9 8075.5 17847.9 8104.67 17861.9 8142C17875.9 8179.33 17882.9 8228.33 17882.9 8289V10137ZM18938.4 9307.5C18835.8 9272.5 18742.4 9237.5 18658.4 9202.5C18574.4 9165.17 18502.1 9120.83 18441.4 9069.5C18380.8 9018.17 18332.9 8957.5 18297.9 8887.5C18265.3 8815.17 18248.9 8727.67 18248.9 8625C18248.9 8426.67 18324.8 8268 18476.4 8149C18630.4 8030 18845.1 7970.5 19120.4 7970.5C19220.8 7970.5 19314.1 7977.5 19400.4 7991.5C19486.8 8005.5 19560.3 8027.67 19620.9 8058C19683.9 8086 19732.9 8123.33 19767.9 8170C19802.9 8214.33 19820.4 8266.83 19820.4 8327.5C19820.4 8388.17 19806.4 8440.67 19778.4 8485C19750.4 8527 19716.6 8563.17 19676.9 8593.5C19625.6 8560.83 19556.8 8532.83 19470.4 8509.5C19384.1 8483.83 19289.6 8471 19186.9 8471C19081.9 8471 19004.9 8486.17 18955.9 8516.5C18906.9 8544.5 18882.4 8580.67 18882.4 8625C18882.4 8660 18897.6 8689.17 18927.9 8712.5C18958.3 8733.5 19003.8 8753.33 19064.4 8772L19249.9 8831.5C19469.3 8901.5 19637.3 8991.33 19753.9 9101C19872.9 9208.33 19932.4 9355.33 19932.4 9542C19932.4 9740.33 19854.3 9901.33 19697.9 10025C19541.6 10146.3 19311.8 10207 19008.4 10207C18901.1 10207 18800.8 10197.7 18707.4 10179C18616.4 10162.7 18535.9 10138.2 18465.9 10105.5C18398.3 10070.5 18344.6 10028.5 18304.9 9979.5C18267.6 9928.17 18248.9 9869.83 18248.9 9804.5C18248.9 9736.83 18268.8 9679.67 18308.4 9633C18348.1 9584 18391.3 9546.67 18437.9 9521C18503.3 9572.33 18582.6 9616.67 18675.9 9654C18771.6 9691.33 18875.4 9710 18987.4 9710C19101.8 9710 19182.3 9692.5 19228.9 9657.5C19275.6 9622.5 19298.9 9581.67 19298.9 9535C19298.9 9488.33 19280.3 9453.33 19242.9 9430C19205.6 9404.33 19153.1 9379.83 19085.4 9356.5L18938.4 9307.5ZM20263.8 8355.5C20263.8 8255.17 20292.9 8175.83 20351.3 8117.5C20409.6 8059.17 20488.9 8030 20589.3 8030H21744.3C21760.6 8055.67 21774.6 8089.5 21786.2 8131.5C21800.3 8173.5 21807.3 8217.83 21807.3 8264.5C21807.3 8353.17 21787.4 8416.17 21747.8 8453.5C21710.4 8490.83 21660.3 8509.5 21597.3 8509.5H20858.8V8835H21646.3C21662.6 8860.67 21676.6 8894.5 21688.3 8936.5C21702.3 8976.17 21709.3 9019.33 21709.3 9066C21709.3 9154.67 21690.6 9217.67 21653.3 9255C21615.9 9292.33 21565.8 9311 21502.8 9311H20858.8V9678.5H21758.3C21774.6 9704.17 21788.6 9738 21800.3 9780C21814.3 9822 21821.3 9866.33 21821.3 9913C21821.3 10001.7 21801.4 10065.8 21761.8 10105.5C21724.4 10142.8 21674.3 10161.5 21611.3 10161.5H20589.3C20488.9 10161.5 20409.6 10132.3 20351.3 10074C20292.9 10015.7 20263.8 9936.33 20263.8 9836V8355.5Z" fill="#1C1F24"/>
</svg>
