<svg width="456" height="264" viewBox="0 0 456 264" fill="none" xmlns="http://www.w3.org/2000/svg">
<path d="M24.5341 19.6364C24.5341 22.3007 24.035 24.5826 23.0369 26.4822C22.0469 28.3738 20.6946 29.8227 18.9801 30.8288C17.2737 31.835 15.3378 32.3381 13.1726 32.3381C11.0073 32.3381 9.06747 31.835 7.35298 30.8288C5.64654 29.8146 4.29427 28.3617 3.29616 26.4702C2.30611 24.5705 1.81108 22.2926 1.81108 19.6364C1.81108 16.9721 2.30611 14.6941 3.29616 12.8026C4.29427 10.9029 5.64654 9.45005 7.35298 8.44389C9.06747 7.43774 11.0073 6.93466 13.1726 6.93466C15.3378 6.93466 17.2737 7.43774 18.9801 8.44389C20.6946 9.45005 22.0469 10.9029 23.0369 12.8026C24.035 14.6941 24.5341 16.9721 24.5341 19.6364ZM20.0305 19.6364C20.0305 17.7609 19.7367 16.1792 19.1491 14.8913C18.5696 13.5954 17.7647 12.6174 16.7344 11.9574C15.7041 11.2893 14.5168 10.9553 13.1726 10.9553C11.8284 10.9553 10.6411 11.2893 9.6108 11.9574C8.58049 12.6174 7.77154 13.5954 7.18395 14.8913C6.6044 16.1792 6.31463 17.7609 6.31463 19.6364C6.31463 21.5118 6.6044 23.0975 7.18395 24.3935C7.77154 25.6813 8.58049 26.6593 9.6108 27.3274C10.6411 27.9875 11.8284 28.3175 13.1726 28.3175C14.5168 28.3175 15.7041 27.9875 16.7344 27.3274C17.7647 26.6593 18.5696 25.6813 19.1491 24.3935C19.7367 23.0975 20.0305 21.5118 20.0305 19.6364ZM28.1758 32V13.4545H43.8356V32H39.6218V17.0405H32.3534V32H28.1758ZM46.6503 32L46.6261 28.402H47.2661C47.749 28.402 48.1555 28.2933 48.4855 28.076C48.8155 27.8587 49.0892 27.4964 49.3065 26.9893C49.5239 26.4742 49.6929 25.782 49.8136 24.9126C49.9344 24.0433 50.0189 22.9607 50.0672 21.6648L50.3932 13.4545H63.9159V32H59.6901V17.0405H54.3655L54.0757 23.017C54.0033 24.5625 53.8302 25.9027 53.5565 27.0376C53.2909 28.1645 52.9126 29.0942 52.4216 29.8267C51.9386 30.5592 51.3309 31.1065 50.5984 31.4688C49.866 31.8229 49.0007 32 48.0026 32H46.6503ZM73.2535 32.3743C72.0783 32.3743 71.0198 32.165 70.0781 31.7464C69.1443 31.3198 68.4038 30.692 67.8565 29.8629C67.3172 29.0339 67.0475 28.0116 67.0475 26.7962C67.0475 25.7498 67.2407 24.8845 67.6271 24.2003C68.0134 23.5161 68.5407 22.9688 69.2087 22.5582C69.8768 22.1477 70.6294 21.8378 71.4666 21.6286C72.3117 21.4112 73.1851 21.2543 74.0866 21.1577C75.1732 21.045 76.0546 20.9444 76.7308 20.8558C77.4069 20.7592 77.8979 20.6143 78.2038 20.4212C78.5177 20.2199 78.6746 19.91 78.6746 19.4915V19.419C78.6746 18.5095 78.405 17.8052 77.8657 17.3061C77.3264 16.8071 76.5496 16.5575 75.5354 16.5575C74.4649 16.5575 73.6157 16.791 72.9879 17.2578C72.3681 17.7247 71.9495 18.276 71.7322 18.9119L67.6512 18.3324C67.9732 17.2055 68.5044 16.2637 69.245 15.5071C69.9855 14.7424 70.891 14.1709 71.9616 13.7926C73.0321 13.4062 74.2154 13.2131 75.5113 13.2131C76.4048 13.2131 77.2942 13.3177 78.1796 13.527C79.065 13.7363 79.874 14.0824 80.6065 14.5653C81.3389 15.0402 81.9265 15.6882 82.3693 16.5092C82.82 17.3303 83.0454 18.3565 83.0454 19.5881V32H78.8437V29.4524H78.6988C78.4332 29.9676 78.0589 30.4505 77.5759 30.9013C77.101 31.344 76.5014 31.7022 75.7769 31.9759C75.0605 32.2415 74.2194 32.3743 73.2535 32.3743ZM74.3884 29.1626C75.2658 29.1626 76.0264 28.9896 76.6704 28.6435C77.3143 28.2893 77.8094 27.8224 78.1555 27.2429C78.5096 26.6634 78.6867 26.0315 78.6867 25.3473V23.1619C78.5499 23.2746 78.3165 23.3793 77.9864 23.4759C77.6645 23.5724 77.3023 23.657 76.8998 23.7294C76.4973 23.8018 76.0989 23.8662 75.7045 23.9226C75.3101 23.9789 74.968 24.0272 74.6782 24.0675C74.0262 24.156 73.4426 24.3009 72.9275 24.5021C72.4123 24.7034 72.0059 24.9851 71.708 25.3473C71.4102 25.7015 71.2613 26.1603 71.2613 26.7237C71.2613 27.5286 71.5551 28.1364 72.1427 28.5469C72.7303 28.9574 73.4789 29.1626 74.3884 29.1626ZM84.9636 17.0405V13.4545H101.191V17.0405H95.1901V32H90.9643V17.0405H84.9636ZM108.844 32.3743C107.669 32.3743 106.61 32.165 105.669 31.7464C104.735 31.3198 103.994 30.692 103.447 29.8629C102.908 29.0339 102.638 28.0116 102.638 26.7962C102.638 25.7498 102.831 24.8845 103.218 24.2003C103.604 23.5161 104.131 22.9688 104.799 22.5582C105.467 22.1477 106.22 21.8378 107.057 21.6286C107.902 21.4112 108.776 21.2543 109.677 21.1577C110.764 21.045 111.645 20.9444 112.321 20.8558C112.998 20.7592 113.489 20.6143 113.794 20.4212C114.108 20.2199 114.265 19.91 114.265 19.4915V19.419C114.265 18.5095 113.996 17.8052 113.456 17.3061C112.917 16.8071 112.14 16.5575 111.126 16.5575C110.056 16.5575 109.206 16.791 108.578 17.2578C107.959 17.7247 107.54 18.276 107.323 18.9119L103.242 18.3324C103.564 17.2055 104.095 16.2637 104.836 15.5071C105.576 14.7424 106.482 14.1709 107.552 13.7926C108.623 13.4062 109.806 13.2131 111.102 13.2131C111.995 13.2131 112.885 13.3177 113.77 13.527C114.656 13.7363 115.465 14.0824 116.197 14.5653C116.93 15.0402 117.517 15.6882 117.96 16.5092C118.411 17.3303 118.636 18.3565 118.636 19.5881V32H114.434V29.4524H114.289C114.024 29.9676 113.65 30.4505 113.167 30.9013C112.692 31.344 112.092 31.7022 111.368 31.9759C110.651 32.2415 109.81 32.3743 108.844 32.3743ZM109.979 29.1626C110.856 29.1626 111.617 28.9896 112.261 28.6435C112.905 28.2893 113.4 27.8224 113.746 27.2429C114.1 26.6634 114.277 26.0315 114.277 25.3473V23.1619C114.141 23.2746 113.907 23.3793 113.577 23.4759C113.255 23.5724 112.893 23.657 112.49 23.7294C112.088 23.8018 111.69 23.8662 111.295 23.9226C110.901 23.9789 110.559 24.0272 110.269 24.0675C109.617 24.156 109.033 24.3009 108.518 24.5021C108.003 24.7034 107.596 24.9851 107.299 25.3473C107.001 25.7015 106.852 26.1603 106.852 26.7237C106.852 27.5286 107.146 28.1364 107.733 28.5469C108.321 28.9574 109.069 29.1626 109.979 29.1626ZM130.664 32V13.4545H138.452C140.65 13.4545 142.384 13.8932 143.656 14.7706C144.936 15.648 145.576 16.8714 145.576 18.4411C145.576 19.4794 145.213 20.3286 144.489 20.9886C143.773 21.6406 142.795 22.0793 141.555 22.3047C142.529 22.3852 143.382 22.6307 144.115 23.0412C144.855 23.4517 145.435 23.991 145.853 24.6591C146.272 25.3272 146.481 26.0959 146.481 26.9652C146.481 27.9875 146.212 28.8769 145.672 29.6335C145.141 30.3821 144.364 30.9657 143.342 31.3842C142.328 31.7947 141.096 32 139.647 32H130.664ZM134.758 28.5589H139.647C140.452 28.5589 141.084 28.3698 141.543 27.9915C142.002 27.6051 142.231 27.0819 142.231 26.4219C142.231 25.6572 142.002 25.0575 141.543 24.6229C141.084 24.1802 140.452 23.9588 139.647 23.9588H134.758V28.5589ZM134.758 21.1335H138.537C139.132 21.1335 139.643 21.049 140.07 20.88C140.497 20.7029 140.823 20.4574 141.048 20.1435C141.273 19.8215 141.386 19.4392 141.386 18.9964C141.386 18.3606 141.124 17.8615 140.601 17.4993C140.086 17.1371 139.37 16.956 138.452 16.956H134.758V21.1335ZM152.646 19.4915H158.116C160.482 19.4915 162.314 20.067 163.609 21.218C164.905 22.3691 165.557 23.8783 165.565 25.7457C165.557 26.9612 165.26 28.0398 164.672 28.9815C164.092 29.9233 163.247 30.6638 162.136 31.2031C161.034 31.7344 159.694 32 158.116 32H149.688V13.4545H153.902V28.4141H158.116C159.066 28.4141 159.846 28.1726 160.458 27.6896C161.07 27.1986 161.376 26.5708 161.376 25.8061C161.376 25.0012 161.07 24.3452 160.458 23.8381C159.846 23.331 159.066 23.0774 158.116 23.0774H152.646V19.4915ZM167.872 32V13.4545H172.242V32H167.872ZM191.212 6.59659L192.733 9.42188C192.194 9.88873 191.59 10.2268 190.922 10.4361C190.254 10.6454 189.469 10.7822 188.568 10.8466C187.674 10.9029 186.612 10.9432 185.38 10.9673C183.996 10.9995 182.865 11.2611 181.987 11.7521C181.11 12.2431 180.438 12.9877 179.971 13.9858C179.504 14.9759 179.198 16.2396 179.053 17.777H179.259C179.838 16.642 180.651 15.7768 181.698 15.1811C182.744 14.5855 183.971 14.2876 185.38 14.2876C186.918 14.2876 188.274 14.6338 189.449 15.326C190.632 16.0102 191.554 17.0043 192.214 18.3082C192.882 19.6122 193.216 21.1899 193.216 23.0412C193.216 24.9489 192.858 26.603 192.141 28.0036C191.425 29.3961 190.407 30.4706 189.087 31.2273C187.775 31.9839 186.217 32.3622 184.414 32.3622C182.619 32.3622 181.058 31.9718 179.73 31.1911C178.409 30.4022 177.387 29.2391 176.663 27.7017C175.946 26.1562 175.588 24.2526 175.588 21.9908V20.3246C175.588 15.9619 176.401 12.706 178.027 10.5568C179.653 8.40767 182.064 7.31297 185.259 7.27273C186.209 7.25663 187.058 7.2526 187.807 7.26065C188.564 7.2687 189.224 7.23248 189.787 7.15199C190.351 7.0715 190.825 6.88636 191.212 6.59659ZM184.438 28.8608C185.332 28.8608 186.105 28.6314 186.757 28.1726C187.409 27.7057 187.908 27.0457 188.254 26.1925C188.608 25.3393 188.785 24.3291 188.785 23.1619C188.785 22.0109 188.608 21.0329 188.254 20.228C187.9 19.415 187.396 18.7952 186.744 18.3686C186.092 17.942 185.316 17.7287 184.414 17.7287C183.738 17.7287 183.13 17.8494 182.591 18.0909C182.052 18.3324 181.593 18.6866 181.215 19.1534C180.836 19.6203 180.547 20.1877 180.345 20.8558C180.144 21.5239 180.035 22.2926 180.019 23.1619C180.019 24.9086 180.414 26.2971 181.203 27.3274C181.991 28.3497 183.07 28.8608 184.438 28.8608ZM196.535 38.9545V13.4545H200.833V16.5213H201.087C201.312 16.0705 201.63 15.5916 202.04 15.0845C202.451 14.5694 203.006 14.1307 203.707 13.7685C204.407 13.3982 205.3 13.2131 206.387 13.2131C207.82 13.2131 209.112 13.5793 210.263 14.3118C211.422 15.0362 212.339 16.1108 213.016 17.5355C213.7 18.9522 214.042 20.6908 214.042 22.7514C214.042 24.7879 213.708 26.5185 213.04 27.9432C212.372 29.3679 211.462 30.4545 210.311 31.2031C209.16 31.9517 207.856 32.326 206.399 32.326C205.337 32.326 204.455 32.1489 203.755 31.7947C203.055 31.4406 202.491 31.014 202.065 30.5149C201.646 30.0078 201.32 29.5289 201.087 29.0781H200.906V38.9545H196.535ZM200.821 22.7273C200.821 23.9266 200.99 24.977 201.328 25.8786C201.674 26.7801 202.169 27.4844 202.813 27.9915C203.465 28.4905 204.254 28.7401 205.18 28.7401C206.146 28.7401 206.955 28.4825 207.607 27.9673C208.259 27.4441 208.75 26.7318 209.08 25.8303C209.418 24.9207 209.587 23.8864 209.587 22.7273C209.587 21.5762 209.422 20.554 209.092 19.6605C208.762 18.767 208.271 18.0668 207.619 17.5597C206.967 17.0526 206.154 16.799 205.18 16.799C204.246 16.799 203.453 17.0445 202.801 17.5355C202.149 18.0265 201.654 18.7147 201.316 19.6001C200.986 20.4856 200.821 21.5279 200.821 22.7273ZM222.721 32.3743C221.546 32.3743 220.488 32.165 219.546 31.7464C218.612 31.3198 217.872 30.692 217.324 29.8629C216.785 29.0339 216.515 28.0116 216.515 26.7962C216.515 25.7498 216.709 24.8845 217.095 24.2003C217.481 23.5161 218.009 22.9688 218.677 22.5582C219.345 22.1477 220.097 21.8378 220.935 21.6286C221.78 21.4112 222.653 21.2543 223.555 21.1577C224.641 21.045 225.523 20.9444 226.199 20.8558C226.875 20.7592 227.366 20.6143 227.672 20.4212C227.986 20.2199 228.143 19.91 228.143 19.4915V19.419C228.143 18.5095 227.873 17.8052 227.334 17.3061C226.794 16.8071 226.018 16.5575 225.003 16.5575C223.933 16.5575 223.084 16.791 222.456 17.2578C221.836 17.7247 221.417 18.276 221.2 18.9119L217.119 18.3324C217.441 17.2055 217.972 16.2637 218.713 15.5071C219.453 14.7424 220.359 14.1709 221.43 13.7926C222.5 13.4062 223.683 13.2131 224.979 13.2131C225.873 13.2131 226.762 13.3177 227.648 13.527C228.533 13.7363 229.342 14.0824 230.074 14.5653C230.807 15.0402 231.395 15.6882 231.837 16.5092C232.288 17.3303 232.513 18.3565 232.513 19.5881V32H228.312V29.4524H228.167C227.901 29.9676 227.527 30.4505 227.044 30.9013C226.569 31.344 225.969 31.7022 225.245 31.9759C224.529 32.2415 223.687 32.3743 222.721 32.3743ZM223.856 29.1626C224.734 29.1626 225.494 28.9896 226.138 28.6435C226.782 28.2893 227.277 27.8224 227.623 27.2429C227.978 26.6634 228.155 26.0315 228.155 25.3473V23.1619C228.018 23.2746 227.784 23.3793 227.454 23.4759C227.132 23.5724 226.77 23.657 226.368 23.7294C225.965 23.8018 225.567 23.8662 225.172 23.9226C224.778 23.9789 224.436 24.0272 224.146 24.0675C223.494 24.156 222.911 24.3009 222.395 24.5021C221.88 24.7034 221.474 24.9851 221.176 25.3473C220.878 25.7015 220.729 26.1603 220.729 26.7237C220.729 27.5286 221.023 28.1364 221.611 28.5469C222.198 28.9574 222.947 29.1626 223.856 29.1626ZM249.246 20.9162V24.5021H239.37V20.9162H249.246ZM240.722 13.4545V32H236.508V13.4545H240.722ZM252.108 13.4545V32H247.906V13.4545H252.108ZM268.868 20.9162V24.5021H258.991V20.9162H268.868ZM260.344 13.4545V32H256.13V13.4545H260.344ZM271.729 13.4545V32H267.527V13.4545H271.729ZM283.841 32.3622C282.03 32.3622 280.46 31.9638 279.132 31.1669C277.804 30.37 276.773 29.2552 276.041 27.8224C275.317 26.3897 274.954 24.7154 274.954 22.7997C274.954 20.884 275.317 19.2057 276.041 17.7649C276.773 16.3241 277.804 15.2053 279.132 14.4084C280.46 13.6115 282.03 13.2131 283.841 13.2131C285.652 13.2131 287.221 13.6115 288.549 14.4084C289.878 15.2053 290.904 16.3241 291.628 17.7649C292.361 19.2057 292.727 20.884 292.727 22.7997C292.727 24.7154 292.361 26.3897 291.628 27.8224C290.904 29.2552 289.878 30.37 288.549 31.1669C287.221 31.9638 285.652 32.3622 283.841 32.3622ZM283.865 28.8608C284.847 28.8608 285.668 28.5911 286.328 28.0518C286.988 27.5045 287.479 26.772 287.801 25.8544C288.131 24.9368 288.296 23.9145 288.296 22.7876C288.296 21.6527 288.131 20.6264 287.801 19.7088C287.479 18.7831 286.988 18.0466 286.328 17.4993C285.668 16.9519 284.847 16.6783 283.865 16.6783C282.859 16.6783 282.022 16.9519 281.353 17.4993C280.693 18.0466 280.198 18.7831 279.868 19.7088C279.546 20.6264 279.385 21.6527 279.385 22.7876C279.385 23.9145 279.546 24.9368 279.868 25.8544C280.198 26.772 280.693 27.5045 281.353 28.0518C282.022 28.5911 282.859 28.8608 283.865 28.8608ZM308.304 13.4545V17.0405H300.311V32H296.037V13.4545H308.304ZM318.734 32.3622C316.923 32.3622 315.353 31.9638 314.025 31.1669C312.697 30.37 311.667 29.2552 310.934 27.8224C310.21 26.3897 309.848 24.7154 309.848 22.7997C309.848 20.884 310.21 19.2057 310.934 17.7649C311.667 16.3241 312.697 15.2053 314.025 14.4084C315.353 13.6115 316.923 13.2131 318.734 13.2131C320.545 13.2131 322.115 13.6115 323.443 14.4084C324.771 15.2053 325.797 16.3241 326.522 17.7649C327.254 19.2057 327.62 20.884 327.62 22.7997C327.62 24.7154 327.254 26.3897 326.522 27.8224C325.797 29.2552 324.771 30.37 323.443 31.1669C322.115 31.9638 320.545 32.3622 318.734 32.3622ZM318.758 28.8608C319.74 28.8608 320.561 28.5911 321.221 28.0518C321.881 27.5045 322.372 26.772 322.694 25.8544C323.024 24.9368 323.189 23.9145 323.189 22.7876C323.189 21.6527 323.024 20.6264 322.694 19.7088C322.372 18.7831 321.881 18.0466 321.221 17.4993C320.561 16.9519 319.74 16.6783 318.758 16.6783C317.752 16.6783 316.915 16.9519 316.247 17.4993C315.587 18.0466 315.092 18.7831 314.762 19.7088C314.44 20.6264 314.279 21.6527 314.279 22.7876C314.279 23.9145 314.44 24.9368 314.762 25.8544C315.092 26.772 315.587 27.5045 316.247 28.0518C316.915 28.5911 317.752 28.8608 318.758 28.8608ZM1.23153 57.0405V53.4545H17.4588V57.0405H11.4581V72H7.23224V57.0405H1.23153ZM25.1121 72.3743C23.9369 72.3743 22.8784 72.165 21.9366 71.7464C21.0029 71.3198 20.2624 70.692 19.7151 69.8629C19.1758 69.0339 18.9061 68.0116 18.9061 66.7962C18.9061 65.7498 19.0993 64.8845 19.4857 64.2003C19.872 63.5161 20.3992 62.9688 21.0673 62.5582C21.7354 62.1477 22.488 61.8378 23.3251 61.6286C24.1703 61.4112 25.0437 61.2543 25.9452 61.1577C27.0318 61.045 27.9132 60.9444 28.5893 60.8558C29.2655 60.7592 29.7565 60.6143 30.0624 60.4212C30.3763 60.2199 30.5332 59.91 30.5332 59.4915V59.419C30.5332 58.5095 30.2636 57.8052 29.7243 57.3061C29.185 56.8071 28.4082 56.5575 27.394 56.5575C26.3235 56.5575 25.4743 56.791 24.8464 57.2578C24.2267 57.7247 23.8081 58.276 23.5908 58.9119L19.5098 58.3324C19.8318 57.2055 20.363 56.2637 21.1036 55.5071C21.8441 54.7424 22.7496 54.1709 23.8202 53.7926C24.8907 53.4062 26.074 53.2131 27.3699 53.2131C28.2634 53.2131 29.1528 53.3177 30.0382 53.527C30.9236 53.7363 31.7326 54.0824 32.4651 54.5653C33.1975 55.0402 33.7851 55.6882 34.2278 56.5092C34.6786 57.3303 34.904 58.3565 34.904 59.5881V72H30.7023V69.4524H30.5574C30.2918 69.9676 29.9175 70.4505 29.4345 70.9013C28.9596 71.344 28.3599 71.7022 27.6355 71.9759C26.9191 72.2415 26.078 72.3743 25.1121 72.3743ZM26.247 69.1626C27.1244 69.1626 27.885 68.9896 28.529 68.6435C29.1729 68.2893 29.6679 67.8224 30.0141 67.2429C30.3682 66.6634 30.5453 66.0315 30.5453 65.3473V63.1619C30.4085 63.2746 30.175 63.3793 29.845 63.4759C29.5231 63.5724 29.1608 63.657 28.7584 63.7294C28.3559 63.8018 27.9575 63.8662 27.5631 63.9226C27.1687 63.9789 26.8266 64.0272 26.5368 64.0675C25.8848 64.156 25.3012 64.3009 24.7861 64.5021C24.2709 64.7034 23.8644 64.9851 23.5666 65.3473C23.2688 65.7015 23.1199 66.1603 23.1199 66.7237C23.1199 67.5286 23.4137 68.1364 24.0013 68.5469C24.5889 68.9574 25.3375 69.1626 26.247 69.1626ZM38.8989 78.9545V53.4545H43.1972V56.5213H43.4507C43.6761 56.0705 43.994 55.5916 44.4045 55.0845C44.8151 54.5694 45.3705 54.1307 46.0707 53.7685C46.771 53.3982 47.6645 53.2131 48.7511 53.2131C50.1839 53.2131 51.4758 53.5793 52.6268 54.3118C53.7859 55.0362 54.7036 56.1108 55.3797 57.5355C56.0639 58.9522 56.406 60.6908 56.406 62.7514C56.406 64.7879 56.0719 66.5185 55.4038 67.9432C54.7357 69.3679 53.8262 70.4545 52.6751 71.2031C51.5241 71.9517 50.2201 72.326 48.7632 72.326C47.7007 72.326 46.8193 72.1489 46.119 71.7947C45.4188 71.4406 44.8553 71.014 44.4287 70.5149C44.0101 70.0078 43.6841 69.5289 43.4507 69.0781H43.2696V78.9545H38.8989ZM43.1851 62.7273C43.1851 63.9266 43.3541 64.977 43.6922 65.8786C44.0383 66.7801 44.5333 67.4844 45.1773 67.9915C45.8293 68.4905 46.6181 68.7401 47.5438 68.7401C48.5097 68.7401 49.3186 68.4825 49.9706 67.9673C50.6226 67.4441 51.1136 66.7318 51.4436 65.8303C51.7817 64.9207 51.9507 63.8864 51.9507 62.7273C51.9507 61.5762 51.7857 60.554 51.4557 59.6605C51.1257 58.767 50.6347 58.0668 49.9827 57.5597C49.3307 57.0526 48.5177 56.799 47.5438 56.799C46.61 56.799 45.8172 57.0445 45.1652 57.5355C44.5132 58.0265 44.0182 58.7147 43.6801 59.6001C43.3501 60.4856 43.1851 61.5279 43.1851 62.7273ZM63.9626 66.0838L71.3881 53.4545H75.8795V72H71.6537V59.3587L64.2524 72H59.7489V53.4545H63.9626V66.0838ZM88.3835 78.3026V47.2727H92.7663V78.3026H88.3835ZM88.3835 72.3622C87.0232 72.3622 85.7796 72.1328 84.6527 71.674C83.5258 71.2152 82.5518 70.5632 81.7308 69.718C80.9178 68.8729 80.286 67.8667 79.8352 66.6996C79.3925 65.5244 79.1711 64.2244 79.1711 62.7997C79.1711 61.375 79.3925 60.075 79.8352 58.8999C80.286 57.7247 80.9178 56.7145 81.7308 55.8693C82.5518 55.0161 83.5258 54.3601 84.6527 53.9013C85.7796 53.4425 87.0232 53.2131 88.3835 53.2131H89.3132V72.3622H88.3835ZM88.3835 68.8366H88.9268V56.7386H88.3835C87.6108 56.7386 86.9266 56.8996 86.3309 57.2216C85.7433 57.5355 85.2483 57.9742 84.8458 58.5376C84.4514 59.093 84.1496 59.737 83.9403 60.4695C83.7391 61.1939 83.6385 61.9706 83.6385 62.7997C83.6385 63.9025 83.8196 64.9126 84.1818 65.8303C84.544 66.7398 85.0753 67.4683 85.7755 68.0156C86.4839 68.563 87.3532 68.8366 88.3835 68.8366ZM92.7663 72.3622H91.8366V53.2131H92.7663C94.1266 53.2131 95.3702 53.4425 96.4971 53.9013C97.624 54.3601 98.594 55.0161 99.4069 55.8693C100.228 56.7145 100.86 57.7247 101.303 58.8999C101.753 60.075 101.979 61.375 101.979 62.7997C101.979 64.2244 101.753 65.5244 101.303 66.6996C100.86 67.8667 100.228 68.8729 99.4069 69.718C98.594 70.5632 97.624 71.2152 96.4971 71.674C95.3702 72.1328 94.1266 72.3622 92.7663 72.3622ZM92.7663 68.8366C93.5471 68.8366 94.2313 68.6797 94.8189 68.3658C95.4065 68.0518 95.8975 67.6172 96.2919 67.0618C96.6943 66.5064 96.9962 65.8665 97.1974 65.142C97.3986 64.4096 97.4993 63.6288 97.4993 62.7997C97.4993 61.697 97.3222 60.6868 96.968 59.7692C96.6138 58.8516 96.0826 58.1191 95.3743 57.5717C94.674 57.0163 93.8047 56.7386 92.7663 56.7386H92.223V68.8366H92.7663ZM110.604 72.3743C109.429 72.3743 108.37 72.165 107.428 71.7464C106.495 71.3198 105.754 70.692 105.207 69.8629C104.668 69.0339 104.398 68.0116 104.398 66.7962C104.398 65.7498 104.591 64.8845 104.977 64.2003C105.364 63.5161 105.891 62.9688 106.559 62.5582C107.227 62.1477 107.98 61.8378 108.817 61.6286C109.662 61.4112 110.535 61.2543 111.437 61.1577C112.524 61.045 113.405 60.9444 114.081 60.8558C114.757 60.7592 115.248 60.6143 115.554 60.4212C115.868 60.2199 116.025 59.91 116.025 59.4915V59.419C116.025 58.5095 115.755 57.8052 115.216 57.3061C114.677 56.8071 113.9 56.5575 112.886 56.5575C111.815 56.5575 110.966 56.791 110.338 57.2578C109.718 57.7247 109.3 58.276 109.083 58.9119L105.002 58.3324C105.324 57.2055 105.855 56.2637 106.595 55.5071C107.336 54.7424 108.241 54.1709 109.312 53.7926C110.383 53.4062 111.566 53.2131 112.862 53.2131C113.755 53.2131 114.645 53.3177 115.53 53.527C116.415 53.7363 117.224 54.0824 117.957 54.5653C118.689 55.0402 119.277 55.6882 119.72 56.5092C120.17 57.3303 120.396 58.3565 120.396 59.5881V72H116.194V69.4524H116.049C115.784 69.9676 115.409 70.4505 114.926 70.9013C114.451 71.344 113.852 71.7022 113.127 71.9759C112.411 72.2415 111.57 72.3743 110.604 72.3743ZM111.739 69.1626C112.616 69.1626 113.377 68.9896 114.021 68.6435C114.665 68.2893 115.16 67.8224 115.506 67.2429C115.86 66.6634 116.037 66.0315 116.037 65.3473V63.1619C115.9 63.2746 115.667 63.3793 115.337 63.4759C115.015 63.5724 114.653 63.657 114.25 63.7294C113.848 63.8018 113.449 63.8662 113.055 63.9226C112.66 63.9789 112.318 64.0272 112.029 64.0675C111.377 64.156 110.793 64.3009 110.278 64.5021C109.763 64.7034 109.356 64.9851 109.058 65.3473C108.761 65.7015 108.612 66.1603 108.612 66.7237C108.612 67.5286 108.905 68.1364 109.493 68.5469C110.081 68.9574 110.829 69.1626 111.739 69.1626Z" fill="#282828"/>
<rect x="0.5" y="88.5" width="455" height="51" rx="5.5" fill="white"/>
<rect x="0.5" y="88.5" width="455" height="51" rx="5.5" stroke="#D0D5DD"/>
<path d="M51.4545 114.909L51.5455 112.409L49.4318 113.75L48.8864 112.795L51.1136 111.636L48.8864 110.477L49.4318 109.523L51.5455 110.864L51.4545 108.364H52.5455L52.4545 110.864L54.5682 109.523L55.1136 110.477L52.8864 111.636L55.1136 112.795L54.5682 113.75L52.4545 112.409L52.5455 114.909H51.4545ZM59.4545 114.909L59.5455 112.409L57.4318 113.75L56.8864 112.795L59.1136 111.636L56.8864 110.477L57.4318 109.523L59.5455 110.864L59.4545 108.364H60.5455L60.4545 110.864L62.5682 109.523L63.1136 110.477L60.8864 111.636L63.1136 112.795L62.5682 113.75L60.4545 112.409L60.5455 114.909H59.4545ZM67.4545 114.909L67.5455 112.409L65.4318 113.75L64.8864 112.795L67.1136 111.636L64.8864 110.477L65.4318 109.523L67.5455 110.864L67.4545 108.364H68.5455L68.4545 110.864L70.5682 109.523L71.1136 110.477L68.8864 111.636L71.1136 112.795L70.5682 113.75L68.4545 112.409L68.5455 114.909H67.4545ZM75.4545 114.909L75.5455 112.409L73.4318 113.75L72.8864 112.795L75.1136 111.636L72.8864 110.477L73.4318 109.523L75.5455 110.864L75.4545 108.364H76.5455L76.4545 110.864L78.5682 109.523L79.1136 110.477L76.8864 111.636L79.1136 112.795L78.5682 113.75L76.4545 112.409L76.5455 114.909H75.4545ZM83.4545 114.909L83.5455 112.409L81.4318 113.75L80.8864 112.795L83.1136 111.636L80.8864 110.477L81.4318 109.523L83.5455 110.864L83.4545 108.364H84.5455L84.4545 110.864L86.5682 109.523L87.1136 110.477L84.8864 111.636L87.1136 112.795L86.5682 113.75L84.4545 112.409L84.5455 114.909H83.4545ZM91.4545 114.909L91.5455 112.409L89.4318 113.75L88.8864 112.795L91.1136 111.636L88.8864 110.477L89.4318 109.523L91.5455 110.864L91.4545 108.364H92.5455L92.4545 110.864L94.5682 109.523L95.1136 110.477L92.8864 111.636L95.1136 112.795L94.5682 113.75L92.4545 112.409L92.5455 114.909H91.4545ZM99.4545 114.909L99.5455 112.409L97.4318 113.75L96.8864 112.795L99.1136 111.636L96.8864 110.477L97.4318 109.523L99.5455 110.864L99.4545 108.364H100.545L100.455 110.864L102.568 109.523L103.114 110.477L100.886 111.636L103.114 112.795L102.568 113.75L100.455 112.409L100.545 114.909H99.4545ZM107.455 114.909L107.545 112.409L105.432 113.75L104.886 112.795L107.114 111.636L104.886 110.477L105.432 109.523L107.545 110.864L107.455 108.364H108.545L108.455 110.864L110.568 109.523L111.114 110.477L108.886 111.636L111.114 112.795L110.568 113.75L108.455 112.409L108.545 114.909H107.455ZM115.455 114.909L115.545 112.409L113.432 113.75L112.886 112.795L115.114 111.636L112.886 110.477L113.432 109.523L115.545 110.864L115.455 108.364H116.545L116.455 110.864L118.568 109.523L119.114 110.477L116.886 111.636L119.114 112.795L118.568 113.75L116.455 112.409L116.545 114.909H115.455ZM123.455 114.909L123.545 112.409L121.432 113.75L120.886 112.795L123.114 111.636L120.886 110.477L121.432 109.523L123.545 110.864L123.455 108.364H124.545L124.455 110.864L126.568 109.523L127.114 110.477L124.886 111.636L127.114 112.795L126.568 113.75L124.455 112.409L124.545 114.909H123.455ZM131.455 114.909L131.545 112.409L129.432 113.75L128.886 112.795L131.114 111.636L128.886 110.477L129.432 109.523L131.545 110.864L131.455 108.364H132.545L132.455 110.864L134.568 109.523L135.114 110.477L132.886 111.636L135.114 112.795L134.568 113.75L132.455 112.409L132.545 114.909H131.455ZM139.455 114.909L139.545 112.409L137.432 113.75L136.886 112.795L139.114 111.636L136.886 110.477L137.432 109.523L139.545 110.864L139.455 108.364H140.545L140.455 110.864L142.568 109.523L143.114 110.477L140.886 111.636L143.114 112.795L142.568 113.75L140.455 112.409L140.545 114.909H139.455ZM147.455 114.909L147.545 112.409L145.432 113.75L144.886 112.795L147.114 111.636L144.886 110.477L145.432 109.523L147.545 110.864L147.455 108.364H148.545L148.455 110.864L150.568 109.523L151.114 110.477L148.886 111.636L151.114 112.795L150.568 113.75L148.455 112.409L148.545 114.909H147.455ZM155.455 114.909L155.545 112.409L153.432 113.75L152.886 112.795L155.114 111.636L152.886 110.477L153.432 109.523L155.545 110.864L155.455 108.364H156.545L156.455 110.864L158.568 109.523L159.114 110.477L156.886 111.636L159.114 112.795L158.568 113.75L156.455 112.409L156.545 114.909H155.455ZM163.455 114.909L163.545 112.409L161.432 113.75L160.886 112.795L163.114 111.636L160.886 110.477L161.432 109.523L163.545 110.864L163.455 108.364H164.545L164.455 110.864L166.568 109.523L167.114 110.477L164.886 111.636L167.114 112.795L166.568 113.75L164.455 112.409L164.545 114.909H163.455ZM171.455 114.909L171.545 112.409L169.432 113.75L168.886 112.795L171.114 111.636L168.886 110.477L169.432 109.523L171.545 110.864L171.455 108.364H172.545L172.455 110.864L174.568 109.523L175.114 110.477L172.886 111.636L175.114 112.795L174.568 113.75L172.455 112.409L172.545 114.909H171.455ZM179.455 114.909L179.545 112.409L177.432 113.75L176.886 112.795L179.114 111.636L176.886 110.477L177.432 109.523L179.545 110.864L179.455 108.364H180.545L180.455 110.864L182.568 109.523L183.114 110.477L180.886 111.636L183.114 112.795L182.568 113.75L180.455 112.409L180.545 114.909H179.455ZM187.455 114.909L187.545 112.409L185.432 113.75L184.886 112.795L187.114 111.636L184.886 110.477L185.432 109.523L187.545 110.864L187.455 108.364H188.545L188.455 110.864L190.568 109.523L191.114 110.477L188.886 111.636L191.114 112.795L190.568 113.75L188.455 112.409L188.545 114.909H187.455ZM195.455 114.909L195.545 112.409L193.432 113.75L192.886 112.795L195.114 111.636L192.886 110.477L193.432 109.523L195.545 110.864L195.455 108.364H196.545L196.455 110.864L198.568 109.523L199.114 110.477L196.886 111.636L199.114 112.795L198.568 113.75L196.455 112.409L196.545 114.909H195.455ZM203.455 114.909L203.545 112.409L201.432 113.75L200.886 112.795L203.114 111.636L200.886 110.477L201.432 109.523L203.545 110.864L203.455 108.364H204.545L204.455 110.864L206.568 109.523L207.114 110.477L204.886 111.636L207.114 112.795L206.568 113.75L204.455 112.409L204.545 114.909H203.455ZM211.455 114.909L211.545 112.409L209.432 113.75L208.886 112.795L211.114 111.636L208.886 110.477L209.432 109.523L211.545 110.864L211.455 108.364H212.545L212.455 110.864L214.568 109.523L215.114 110.477L212.886 111.636L215.114 112.795L214.568 113.75L212.455 112.409L212.545 114.909H211.455ZM219.455 114.909L219.545 112.409L217.432 113.75L216.886 112.795L219.114 111.636L216.886 110.477L217.432 109.523L219.545 110.864L219.455 108.364H220.545L220.455 110.864L222.568 109.523L223.114 110.477L220.886 111.636L223.114 112.795L222.568 113.75L220.455 112.409L220.545 114.909H219.455ZM227.455 114.909L227.545 112.409L225.432 113.75L224.886 112.795L227.114 111.636L224.886 110.477L225.432 109.523L227.545 110.864L227.455 108.364H228.545L228.455 110.864L230.568 109.523L231.114 110.477L228.886 111.636L231.114 112.795L230.568 113.75L228.455 112.409L228.545 114.909H227.455ZM235.455 114.909L235.545 112.409L233.432 113.75L232.886 112.795L235.114 111.636L232.886 110.477L233.432 109.523L235.545 110.864L235.455 108.364H236.545L236.455 110.864L238.568 109.523L239.114 110.477L236.886 111.636L239.114 112.795L238.568 113.75L236.455 112.409L236.545 114.909H235.455ZM243.455 114.909L243.545 112.409L241.432 113.75L240.886 112.795L243.114 111.636L240.886 110.477L241.432 109.523L243.545 110.864L243.455 108.364H244.545L244.455 110.864L246.568 109.523L247.114 110.477L244.886 111.636L247.114 112.795L246.568 113.75L244.455 112.409L244.545 114.909H243.455ZM251.455 114.909L251.545 112.409L249.432 113.75L248.886 112.795L251.114 111.636L248.886 110.477L249.432 109.523L251.545 110.864L251.455 108.364H252.545L252.455 110.864L254.568 109.523L255.114 110.477L252.886 111.636L255.114 112.795L254.568 113.75L252.455 112.409L252.545 114.909H251.455ZM259.455 114.909L259.545 112.409L257.432 113.75L256.886 112.795L259.114 111.636L256.886 110.477L257.432 109.523L259.545 110.864L259.455 108.364H260.545L260.455 110.864L262.568 109.523L263.114 110.477L260.886 111.636L263.114 112.795L262.568 113.75L260.455 112.409L260.545 114.909H259.455ZM267.455 114.909L267.545 112.409L265.432 113.75L264.886 112.795L267.114 111.636L264.886 110.477L265.432 109.523L267.545 110.864L267.455 108.364H268.545L268.455 110.864L270.568 109.523L271.114 110.477L268.886 111.636L271.114 112.795L270.568 113.75L268.455 112.409L268.545 114.909H267.455ZM275.455 114.909L275.545 112.409L273.432 113.75L272.886 112.795L275.114 111.636L272.886 110.477L273.432 109.523L275.545 110.864L275.455 108.364H276.545L276.455 110.864L278.568 109.523L279.114 110.477L276.886 111.636L279.114 112.795L278.568 113.75L276.455 112.409L276.545 114.909H275.455ZM283.455 114.909L283.545 112.409L281.432 113.75L280.886 112.795L283.114 111.636L280.886 110.477L281.432 109.523L283.545 110.864L283.455 108.364H284.545L284.455 110.864L286.568 109.523L287.114 110.477L284.886 111.636L287.114 112.795L286.568 113.75L284.455 112.409L284.545 114.909H283.455Z" fill="#9D9FA2"/>
<rect x="0.5" y="148.5" width="157" height="51" rx="5.5" fill="white"/>
<rect x="0.5" y="148.5" width="157" height="51" rx="5.5" stroke="#D0D5DD"/>
<path d="M62.4545 174.909L62.5455 172.409L60.4318 173.75L59.8864 172.795L62.1136 171.636L59.8864 170.477L60.4318 169.523L62.5455 170.864L62.4545 168.364H63.5455L63.4545 170.864L65.5682 169.523L66.1136 170.477L63.8864 171.636L66.1136 172.795L65.5682 173.75L63.4545 172.409L63.5455 174.909H62.4545ZM70.4545 174.909L70.5455 172.409L68.4318 173.75L67.8864 172.795L70.1136 171.636L67.8864 170.477L68.4318 169.523L70.5455 170.864L70.4545 168.364H71.5455L71.4545 170.864L73.5682 169.523L74.1136 170.477L71.8864 171.636L74.1136 172.795L73.5682 173.75L71.4545 172.409L71.5455 174.909H70.4545ZM78.4545 174.909L78.5455 172.409L76.4318 173.75L75.8864 172.795L78.1136 171.636L75.8864 170.477L76.4318 169.523L78.5455 170.864L78.4545 168.364H79.5455L79.4545 170.864L81.5682 169.523L82.1136 170.477L79.8864 171.636L82.1136 172.795L81.5682 173.75L79.4545 172.409L79.5455 174.909H78.4545ZM86.4545 174.909L86.5455 172.409L84.4318 173.75L83.8864 172.795L86.1136 171.636L83.8864 170.477L84.4318 169.523L86.5455 170.864L86.4545 168.364H87.5455L87.4545 170.864L89.5682 169.523L90.1136 170.477L87.8864 171.636L90.1136 172.795L89.5682 173.75L87.4545 172.409L87.5455 174.909H86.4545ZM94.4545 174.909L94.5455 172.409L92.4318 173.75L91.8864 172.795L94.1136 171.636L91.8864 170.477L92.4318 169.523L94.5455 170.864L94.4545 168.364H95.5455L95.4545 170.864L97.5682 169.523L98.1136 170.477L95.8864 171.636L98.1136 172.795L97.5682 173.75L95.4545 172.409L95.5455 174.909H94.4545ZM102.455 174.909L102.545 172.409L100.432 173.75L99.8864 172.795L102.114 171.636L99.8864 170.477L100.432 169.523L102.545 170.864L102.455 168.364H103.545L103.455 170.864L105.568 169.523L106.114 170.477L103.886 171.636L106.114 172.795L105.568 173.75L103.455 172.409L103.545 174.909H102.455Z" fill="#9D9FA2"/>
<rect x="197.5" y="148.5" width="157" height="51" rx="5.5" fill="white"/>
<rect x="197.5" y="148.5" width="157" height="51" rx="5.5" stroke="#D0D5DD"/>
<path d="M259.455 174.909L259.545 172.409L257.432 173.75L256.886 172.795L259.114 171.636L256.886 170.477L257.432 169.523L259.545 170.864L259.455 168.364H260.545L260.455 170.864L262.568 169.523L263.114 170.477L260.886 171.636L263.114 172.795L262.568 173.75L260.455 172.409L260.545 174.909H259.455ZM267.455 174.909L267.545 172.409L265.432 173.75L264.886 172.795L267.114 171.636L264.886 170.477L265.432 169.523L267.545 170.864L267.455 168.364H268.545L268.455 170.864L270.568 169.523L271.114 170.477L268.886 171.636L271.114 172.795L270.568 173.75L268.455 172.409L268.545 174.909H267.455ZM275.455 174.909L275.545 172.409L273.432 173.75L272.886 172.795L275.114 171.636L272.886 170.477L273.432 169.523L275.545 170.864L275.455 168.364H276.545L276.455 170.864L278.568 169.523L279.114 170.477L276.886 171.636L279.114 172.795L278.568 173.75L276.455 172.409L276.545 174.909H275.455ZM283.455 174.909L283.545 172.409L281.432 173.75L280.886 172.795L283.114 171.636L280.886 170.477L281.432 169.523L283.545 170.864L283.455 168.364H284.545L284.455 170.864L286.568 169.523L287.114 170.477L284.886 171.636L287.114 172.795L286.568 173.75L284.455 172.409L284.545 174.909H283.455ZM291.455 174.909L291.545 172.409L289.432 173.75L288.886 172.795L291.114 171.636L288.886 170.477L289.432 169.523L291.545 170.864L291.455 168.364H292.545L292.455 170.864L294.568 169.523L295.114 170.477L292.886 171.636L295.114 172.795L294.568 173.75L292.455 172.409L292.545 174.909H291.455ZM299.455 174.909L299.545 172.409L297.432 173.75L296.886 172.795L299.114 171.636L296.886 170.477L297.432 169.523L299.545 170.864L299.455 168.364H300.545L300.455 170.864L302.568 169.523L303.114 170.477L300.886 171.636L303.114 172.795L302.568 173.75L300.455 172.409L300.545 174.909H299.455Z" fill="#9D9FA2"/>
<rect y="208" width="456" height="56" rx="6" fill="#282828"/>
<path d="M124.747 229.909V243H122.395V231.878H116.668V243H114.315V229.909H124.747ZM131.564 243.192C130.605 243.192 129.774 242.981 129.071 242.559C128.368 242.137 127.822 241.547 127.435 240.788C127.051 240.03 126.859 239.143 126.859 238.129C126.859 237.115 127.051 236.227 127.435 235.464C127.822 234.701 128.368 234.109 129.071 233.687C129.774 233.265 130.605 233.054 131.564 233.054C132.523 233.054 133.354 233.265 134.057 233.687C134.76 234.109 135.303 234.701 135.687 235.464C136.075 236.227 136.269 237.115 136.269 238.129C136.269 239.143 136.075 240.03 135.687 240.788C135.303 241.547 134.76 242.137 134.057 242.559C133.354 242.981 132.523 243.192 131.564 243.192ZM131.577 241.338C132.097 241.338 132.531 241.195 132.881 240.91C133.23 240.62 133.49 240.232 133.661 239.746C133.835 239.261 133.923 238.719 133.923 238.123C133.923 237.522 133.835 236.979 133.661 236.493C133.49 236.003 133.23 235.613 132.881 235.323C132.531 235.033 132.097 234.888 131.577 234.888C131.044 234.888 130.601 235.033 130.247 235.323C129.898 235.613 129.636 236.003 129.461 236.493C129.291 236.979 129.205 237.522 129.205 238.123C129.205 238.719 129.291 239.261 129.461 239.746C129.636 240.232 129.898 240.62 130.247 240.91C130.601 241.195 131.044 241.338 131.577 241.338ZM137.163 245.851V241.095H137.943C138.152 240.933 138.327 240.714 138.467 240.437C138.608 240.156 138.723 239.825 138.812 239.446C138.906 239.062 138.983 238.634 139.042 238.161C139.102 237.684 139.155 237.17 139.202 236.621L139.483 233.182H146.579V241.095H148.1V245.851H145.863V243H139.439V245.851H137.163ZM140.321 241.095H144.367V235.048H141.491L141.337 236.621C141.252 237.661 141.139 238.551 140.998 239.293C140.858 240.034 140.632 240.635 140.321 241.095ZM149.09 235.08V233.182H157.681V235.08H154.505V243H152.267V235.08H149.09ZM159.324 243V233.182H163.447C164.61 233.182 165.528 233.414 166.202 233.879C166.879 234.343 167.218 234.991 167.218 235.822C167.218 236.371 167.026 236.821 166.643 237.17C166.264 237.516 165.746 237.748 165.09 237.867C165.605 237.91 166.057 238.04 166.445 238.257C166.837 238.474 167.143 238.76 167.365 239.114C167.587 239.467 167.697 239.874 167.697 240.335C167.697 240.876 167.555 241.347 167.269 241.747C166.988 242.143 166.577 242.452 166.036 242.674C165.499 242.891 164.847 243 164.08 243H159.324ZM161.491 241.178H164.08C164.506 241.178 164.84 241.078 165.083 240.878C165.326 240.673 165.447 240.396 165.447 240.047C165.447 239.642 165.326 239.325 165.083 239.094C164.84 238.86 164.506 238.743 164.08 238.743H161.491V241.178ZM161.491 237.247H163.491C163.807 237.247 164.077 237.202 164.303 237.113C164.529 237.019 164.702 236.889 164.821 236.723C164.94 236.553 165 236.35 165 236.116C165 235.779 164.862 235.515 164.585 235.323C164.312 235.131 163.933 235.036 163.447 235.036H161.491V237.247ZM173.754 243.192C172.769 243.192 171.919 242.987 171.203 242.578C170.492 242.165 169.944 241.581 169.56 240.827C169.177 240.068 168.985 239.175 168.985 238.148C168.985 237.138 169.177 236.252 169.56 235.489C169.948 234.722 170.489 234.126 171.184 233.7C171.879 233.269 172.695 233.054 173.632 233.054C174.237 233.054 174.808 233.152 175.345 233.348C175.886 233.54 176.364 233.838 176.777 234.243C177.195 234.648 177.523 235.163 177.761 235.79C178 236.412 178.119 237.153 178.119 238.014V238.724H170.072V237.164H175.901C175.897 236.721 175.801 236.327 175.614 235.982C175.426 235.632 175.164 235.357 174.828 235.157C174.495 234.957 174.107 234.857 173.664 234.857C173.191 234.857 172.776 234.972 172.418 235.202C172.06 235.428 171.781 235.726 171.58 236.097C171.384 236.463 171.284 236.866 171.28 237.305V238.666C171.28 239.237 171.384 239.727 171.593 240.136C171.802 240.541 172.094 240.852 172.469 241.07C172.844 241.283 173.283 241.389 173.786 241.389C174.122 241.389 174.427 241.342 174.7 241.249C174.972 241.151 175.209 241.008 175.409 240.82C175.609 240.633 175.761 240.401 175.863 240.124L178.024 240.366C177.887 240.937 177.627 241.436 177.244 241.862C176.864 242.284 176.379 242.612 175.786 242.847C175.194 243.077 174.516 243.192 173.754 243.192ZM179.877 246.682V233.182H182.153V234.805H182.287C182.406 234.567 182.574 234.313 182.792 234.045C183.009 233.772 183.303 233.54 183.674 233.348C184.045 233.152 184.518 233.054 185.093 233.054C185.851 233.054 186.535 233.248 187.145 233.636C187.758 234.019 188.244 234.588 188.602 235.342C188.964 236.092 189.145 237.013 189.145 238.104C189.145 239.182 188.969 240.098 188.615 240.852C188.261 241.607 187.78 242.182 187.17 242.578C186.561 242.974 185.871 243.173 185.099 243.173C184.537 243.173 184.07 243.079 183.699 242.891C183.329 242.704 183.03 242.478 182.805 242.214C182.583 241.945 182.41 241.692 182.287 241.453H182.191V246.682H179.877ZM182.146 238.091C182.146 238.726 182.236 239.282 182.415 239.759C182.598 240.237 182.86 240.609 183.201 240.878C183.546 241.142 183.964 241.274 184.454 241.274C184.965 241.274 185.393 241.138 185.739 240.865C186.084 240.588 186.344 240.211 186.518 239.734C186.697 239.252 186.787 238.705 186.787 238.091C186.787 237.482 186.699 236.94 186.525 236.467C186.35 235.994 186.09 235.624 185.745 235.355C185.4 235.087 184.969 234.952 184.454 234.952C183.959 234.952 183.54 235.082 183.194 235.342C182.849 235.602 182.587 235.967 182.408 236.435C182.234 236.904 182.146 237.456 182.146 238.091ZM190.058 245.851V241.095H190.838C191.046 240.933 191.221 240.714 191.362 240.437C191.502 240.156 191.617 239.825 191.707 239.446C191.801 239.062 191.877 238.634 191.937 238.161C191.997 237.684 192.05 237.17 192.097 236.621L192.378 233.182H199.473V241.095H200.994V245.851H198.757V243H192.333V245.851H190.058ZM193.215 241.095H197.262V235.048H194.385L194.232 236.621C194.146 237.661 194.034 238.551 193.893 239.293C193.752 240.034 193.526 240.635 193.215 241.095ZM204.753 239.868L208.684 233.182H211.062V243H208.824V236.308L204.906 243H202.522V233.182H204.753V239.868ZM212.139 235.08V233.182H220.729V235.08H217.553V243H215.315V235.08H212.139ZM223.938 236.378H226.834C228.086 236.378 229.056 236.683 229.742 237.292C230.428 237.901 230.773 238.7 230.777 239.689C230.773 240.332 230.616 240.903 230.304 241.402C229.998 241.901 229.55 242.293 228.962 242.578C228.378 242.859 227.669 243 226.834 243H222.372V233.182H224.603V241.102H226.834C227.336 241.102 227.75 240.974 228.074 240.718C228.397 240.458 228.559 240.126 228.559 239.721C228.559 239.295 228.397 238.947 228.074 238.679C227.75 238.411 227.336 238.276 226.834 238.276H223.938V236.378ZM236.289 235.08V233.182H244.879V235.08H241.703V243H239.465V235.08H236.289ZM246.522 246.682V233.182H248.797V234.805H248.932C249.051 234.567 249.219 234.313 249.437 234.045C249.654 233.772 249.948 233.54 250.319 233.348C250.69 233.152 251.163 233.054 251.738 233.054C252.496 233.054 253.18 233.248 253.79 233.636C254.403 234.019 254.889 234.588 255.247 235.342C255.609 236.092 255.79 237.013 255.79 238.104C255.79 239.182 255.614 240.098 255.26 240.852C254.906 241.607 254.425 242.182 253.815 242.578C253.206 242.974 252.516 243.173 251.744 243.173C251.182 243.173 250.715 243.079 250.344 242.891C249.974 242.704 249.675 242.478 249.449 242.214C249.228 241.945 249.055 241.692 248.932 241.453H248.836V246.682H246.522ZM248.791 238.091C248.791 238.726 248.881 239.282 249.06 239.759C249.243 240.237 249.505 240.609 249.846 240.878C250.191 241.142 250.609 241.274 251.099 241.274C251.61 241.274 252.038 241.138 252.383 240.865C252.729 240.588 252.989 240.211 253.163 239.734C253.342 239.252 253.432 238.705 253.432 238.091C253.432 237.482 253.344 236.94 253.17 236.467C252.995 235.994 252.735 235.624 252.39 235.355C252.045 235.087 251.614 234.952 251.099 234.952C250.604 234.952 250.185 235.082 249.839 235.342C249.494 235.602 249.232 235.967 249.053 236.435C248.878 236.904 248.791 237.456 248.791 238.091ZM260.397 243.198C259.775 243.198 259.215 243.087 258.716 242.866C258.222 242.64 257.83 242.308 257.54 241.869C257.254 241.43 257.112 240.888 257.112 240.245C257.112 239.691 257.214 239.233 257.419 238.871C257.623 238.509 257.902 238.219 258.256 238.001C258.61 237.784 259.008 237.62 259.451 237.509C259.899 237.394 260.361 237.311 260.838 237.26C261.414 237.2 261.88 237.147 262.238 237.1C262.596 237.049 262.856 236.972 263.018 236.87C263.184 236.763 263.267 236.599 263.267 236.378V236.339C263.267 235.858 263.124 235.485 262.839 235.221C262.553 234.957 262.142 234.825 261.605 234.825C261.039 234.825 260.589 234.948 260.257 235.195C259.928 235.442 259.707 235.734 259.592 236.071L257.431 235.764C257.602 235.168 257.883 234.669 258.275 234.268C258.667 233.864 259.146 233.561 259.713 233.361C260.28 233.156 260.906 233.054 261.593 233.054C262.066 233.054 262.536 233.109 263.005 233.22C263.474 233.331 263.902 233.514 264.29 233.77C264.678 234.021 264.989 234.364 265.223 234.799C265.462 235.234 265.581 235.777 265.581 236.429V243H263.357V241.651H263.28C263.139 241.924 262.941 242.18 262.686 242.418C262.434 242.653 262.117 242.842 261.733 242.987C261.354 243.128 260.909 243.198 260.397 243.198ZM260.998 241.498C261.463 241.498 261.865 241.406 262.206 241.223C262.547 241.036 262.809 240.788 262.992 240.482C263.18 240.175 263.274 239.84 263.274 239.478V238.321C263.201 238.381 263.078 238.436 262.903 238.487C262.732 238.538 262.541 238.583 262.328 238.621C262.115 238.66 261.904 238.694 261.695 238.724C261.486 238.754 261.305 238.779 261.151 238.8C260.806 238.847 260.497 238.924 260.225 239.031C259.952 239.137 259.737 239.286 259.579 239.478C259.421 239.665 259.343 239.908 259.343 240.207C259.343 240.633 259.498 240.955 259.809 241.172C260.12 241.389 260.517 241.498 260.998 241.498ZM274.451 237.132V239.031H269.223V237.132H274.451ZM269.939 233.182V243H267.708V233.182H269.939ZM275.966 233.182V243H273.742V233.182H275.966ZM277.564 240.309H279.859C279.88 240.675 280.044 240.959 280.351 241.159C280.658 241.359 281.056 241.46 281.546 241.46C282.045 241.46 282.465 241.351 282.806 241.134C283.151 240.912 283.323 240.577 283.323 240.13C283.323 239.866 283.257 239.634 283.125 239.433C282.993 239.229 282.808 239.071 282.569 238.96C282.33 238.849 282.049 238.794 281.725 238.794H280.223V237.151H281.725C282.207 237.151 282.571 237.04 282.818 236.819C283.07 236.597 283.196 236.318 283.196 235.982C283.196 235.619 283.063 235.325 282.799 235.099C282.539 234.874 282.179 234.761 281.719 234.761C281.259 234.761 280.875 234.865 280.568 235.074C280.266 235.283 280.108 235.551 280.095 235.879H277.813C277.822 235.308 277.992 234.812 278.325 234.39C278.661 233.968 279.113 233.64 279.68 233.406C280.251 233.171 280.894 233.054 281.61 233.054C282.377 233.054 283.04 233.169 283.598 233.399C284.156 233.629 284.587 233.951 284.889 234.364C285.192 234.773 285.343 235.255 285.343 235.809C285.343 236.342 285.177 236.783 284.845 237.132C284.512 237.477 284.065 237.724 283.502 237.874V237.976C283.89 237.997 284.24 238.108 284.551 238.308C284.862 238.504 285.109 238.771 285.292 239.107C285.475 239.444 285.567 239.834 285.567 240.277C285.567 240.878 285.394 241.398 285.049 241.837C284.704 242.271 284.229 242.606 283.624 242.84C283.023 243.075 282.335 243.192 281.559 243.192C280.805 243.192 280.129 243.079 279.533 242.853C278.941 242.623 278.47 242.293 278.12 241.862C277.771 241.432 277.585 240.914 277.564 240.309ZM290.014 243.198C289.392 243.198 288.831 243.087 288.333 242.866C287.839 242.64 287.447 242.308 287.157 241.869C286.871 241.43 286.729 240.888 286.729 240.245C286.729 239.691 286.831 239.233 287.035 238.871C287.24 238.509 287.519 238.219 287.873 238.001C288.226 237.784 288.625 237.62 289.068 237.509C289.515 237.394 289.978 237.311 290.455 237.26C291.03 237.2 291.497 237.147 291.855 237.1C292.213 237.049 292.473 236.972 292.635 236.87C292.801 236.763 292.884 236.599 292.884 236.378V236.339C292.884 235.858 292.741 235.485 292.456 235.221C292.17 234.957 291.759 234.825 291.222 234.825C290.655 234.825 290.206 234.948 289.873 235.195C289.545 235.442 289.324 235.734 289.209 236.071L287.048 235.764C287.219 235.168 287.5 234.669 287.892 234.268C288.284 233.864 288.763 233.561 289.33 233.361C289.897 233.156 290.523 233.054 291.209 233.054C291.682 233.054 292.153 233.109 292.622 233.22C293.091 233.331 293.519 233.514 293.907 233.77C294.295 234.021 294.606 234.364 294.84 234.799C295.079 235.234 295.198 235.777 295.198 236.429V243H292.974V241.651H292.897C292.756 241.924 292.558 242.18 292.302 242.418C292.051 242.653 291.733 242.842 291.35 242.987C290.971 243.128 290.525 243.198 290.014 243.198ZM290.615 241.498C291.079 241.498 291.482 241.406 291.823 241.223C292.164 241.036 292.426 240.788 292.609 240.482C292.797 240.175 292.89 239.84 292.89 239.478V238.321C292.818 238.381 292.694 238.436 292.52 238.487C292.349 238.538 292.157 238.583 291.944 238.621C291.731 238.66 291.52 238.694 291.312 238.724C291.103 238.754 290.922 238.779 290.768 238.8C290.423 238.847 290.114 238.924 289.841 239.031C289.569 239.137 289.354 239.286 289.196 239.478C289.038 239.665 288.959 239.908 288.959 240.207C288.959 240.633 289.115 240.955 289.426 241.172C289.737 241.389 290.133 241.498 290.615 241.498ZM297.325 243V233.182H299.639V237.145H300.482L303.435 233.182H306.222L302.585 238.001L306.261 243H303.461L300.77 239.299H299.639V243H297.325ZM315.663 233.182V241.274H317.165V246.158H314.903V243H307.373V233.182H309.604V241.102H313.452V233.182H315.663ZM321.093 239.868L325.024 233.182H327.402V243H325.165V236.308L321.246 243H318.862V233.182H321.093V239.868ZM334.762 237.202V239.107H329.476V237.202H334.762ZM331.31 233.182V243H328.99V233.182H331.31ZM337.728 243.192C336.782 243.192 335.962 242.977 335.267 242.546C334.577 242.116 334.042 241.519 333.663 240.756C333.283 239.994 333.094 239.112 333.094 238.11C333.094 237.109 333.283 236.229 333.663 235.47C334.042 234.712 334.577 234.119 335.267 233.693C335.962 233.267 336.782 233.054 337.728 233.054C338.67 233.054 339.486 233.267 340.176 233.693C340.871 234.119 341.408 234.712 341.787 235.47C342.171 236.229 342.362 237.109 342.362 238.11C342.362 239.112 342.171 239.994 341.787 240.756C341.408 241.519 340.871 242.116 340.176 242.546C339.486 242.977 338.67 243.192 337.728 243.192ZM337.728 241.274C338.286 241.274 338.742 241.134 339.096 240.852C339.45 240.571 339.71 240.192 339.876 239.714C340.042 239.237 340.125 238.702 340.125 238.11C340.125 237.518 340.042 236.983 339.876 236.506C339.71 236.028 339.45 235.651 339.096 235.374C338.742 235.093 338.286 234.952 337.728 234.952C337.166 234.952 336.705 235.093 336.347 235.374C335.994 235.651 335.734 236.028 335.568 236.506C335.401 236.983 335.318 237.518 335.318 238.11C335.318 238.707 335.401 239.244 335.568 239.721C335.734 240.198 335.994 240.577 336.347 240.859C336.705 241.136 337.166 241.274 337.728 241.274Z" fill="white"/>
</svg>
